<svg width="1253" height="972" xmlns="http://www.w3.org/2000/svg"><path fill="#fff" d="M0 0h1253v972H0z"/><rect y="39" width="1253" height="933" rx="67" fill="#e2e2e2"/><rect x="1007" y="662" width="216" height="196" rx="57" fill="#fff3d6"/><rect x="582" y="121" width="485" height="437" rx="73" fill="#fff3d6"/><path fill="#fff" stroke="#000" stroke-width="2" d="M261 118h215v243H261z"/><rect x="723" y="181" width="229" height="200" rx="73" fill="#e0ffc1" stroke="#469710" stroke-width="2"/><rect x="637" y="392" width="172" height="140" rx="56" fill="#e0ffc1" stroke="#469710" stroke-width="2"/><rect x="852" y="287" width="183" height="177" rx="70" fill="#91ff87" fill-opacity=".38" stroke="#469710" stroke-width="2"/><path fill="#fff" stroke="#000" stroke-width="2" d="M578 622h333v214H578zM35 429h231v145H35z"/><path d="M1040.06 751.061c.59-.586.59-1.536 0-2.122l-9.55-9.546a1.5 1.5 0 0 0-2.12 0 1.511 1.511 0 0 0 0 2.122l8.49 8.485-8.49 8.485a1.511 1.511 0 0 0 0 2.122 1.5 1.5 0 0 0 2.12 0zM912 751.5h127v-3H912z"/><rect x="237" y="660" width="207" height="187" rx="70" fill="#fff3d6"/><path d="M105 752.5h-1.5v1.5h1.5zm241.061 1.061a1.502 1.502 0 0 0 0-2.122l-9.546-9.546a1.502 1.502 0 0 0-2.122 0 1.502 1.502 0 0 0 0 2.122l8.486 8.485-8.486 8.485a1.502 1.502 0 0 0 0 2.122 1.502 1.502 0 0 0 2.122 0zM103.5 575v177.5h3V575zm1.5 179h240v-3H105zM753.061 266.061a1.502 1.502 0 0 0 0-2.122l-9.546-9.546a1.502 1.502 0 0 0-2.122 0 1.502 1.502 0 0 0 0 2.122l8.486 8.485-8.486 8.485a1.502 1.502 0 0 0 0 2.122 1.502 1.502 0 0 0 2.122 0zM476 266.5h276v-3H476z"/><path d="M749.059 710.168a1.5 1.5 0 0 0 2.109-.227l8.467-10.516a1.5 1.5 0 0 0-2.337-1.881l-7.526 9.347-9.347-7.526a1.5 1.5 0 0 0-1.881 2.337zm-19.55-177.007 19 176 2.982-.322-19-176zM822.597 709.531a1.5 1.5 0 0 0 1.934.872l12.626-4.779a1.5 1.5 0 0 0-1.062-2.806l-11.223 4.248-4.248-11.223a1.5 1.5 0 0 0-2.806 1.062zm110.036-245.147-110 244 2.734 1.232 110-244z" fill="#469710"/><rect x="732" y="710" width="50" height="32" rx="16" fill="#e0ffc1" stroke="#469710" stroke-width="2"/><rect x="727" y="775" width="119" height="32" rx="16" fill="#c1ffff" stroke="#106697" stroke-width="2"/><rect x="795" y="710" width="51" height="32" rx="16" fill="#e0ffc1" stroke="#469710" stroke-width="2"/><path stroke="#000" stroke-width="2" d="M35 490h232M260 176h217M577 679h335"/><path d="M769.569 910.199h.5v.5h-.5zm-399.569 0v.5h-.5v-.5zm-.354-136.053a.502.502 0 0 1 .708 0l3.182 3.182a.502.502 0 0 1-.708.708L370 775.207l-2.828 2.829a.502.502 0 0 1-.708-.708zm400.363 36.062.003 5.102-1 .001-.003-5.102zm.005 9.183.007 10.203-1 .001-.007-10.203zm.009 14.285.006 10.203h-1l-.006-10.203zm.009 14.284.006 10.203-1 .001-.006-10.203zm.008 14.284.006 10.204h-1l-.006-10.203zm.009 14.285.006 10.203-1 .001-.006-10.204zm.008 14.284.007 10.203-1 .001-.007-10.203zm.009 14.285.003 5.101-1 .001-.003-5.102zm-.497 5.601h-4.921v-1h4.921zm-8.857 0h-9.842v-1h9.842zm-13.779 0h-9.841v-1h9.841zm-13.778 0h-9.841v-1h9.841zm-13.778 0h-9.842v-1h9.842zm-13.778 0h-9.842v-1h9.842zm-13.779 0h-9.841v-1h9.841zm-13.778 0h-9.841v-1h9.841zm-13.778 0h-9.842v-1h9.842zm-13.778 0h-9.842v-1h9.842zm-13.779 0h-9.841v-1h9.841zm-13.778 0h-9.841v-1h9.841zm-13.778 0h-9.842v-1h9.842zm-13.778 0h-9.842v-1h9.842zm-13.778 0h-9.842v-1h9.842zm-13.779 0h-9.841v-1h9.841zm-13.778 0h-9.842v-1h9.842zm-13.778 0h-9.842v-1h9.842zm-13.778 0h-9.842v-1h9.842zm-13.779 0h-9.841v-1h9.841zm-13.778 0h-9.842v-1h9.842zm-13.778 0h-9.842v-1h9.842zm-13.778 0h-9.842v-1h9.842zm-13.779 0h-9.841v-1h9.841zm-13.778 0h-9.842v-1h9.842zm-13.778 0h-9.842v-1h9.842zm-13.779 0h-9.841v-1h9.841zm-13.778 0h-9.841v-1h9.841zm-13.778 0h-9.842v-1h9.842zm-13.778 0H370v-1h4.921zm-5.421-.5v-4.846h1v4.846zm0-8.723v-9.693h1v9.693zm0-13.57v-9.693h1v9.693zm0-13.57v-9.693h1v9.693zm0-13.57v-9.693h1v9.693zm0-13.57v-9.693h1v9.693zm0-13.57v-9.693h1v9.693zm0-13.57v-9.693h1v9.693zm0-13.57v-9.693h1v9.693zm0-13.57v-9.692h1v9.692zm0-13.57V774.5h1v4.846zm400.069 130.853h1l.001 1h-1.001zm-399.569 0v1h-1v-1zm-.707-136.406a.999.999 0 0 1 1.414 0l6.364 6.364a.999.999 0 1 1-1.414 1.414L370 775.914l-5.657 5.657a.999.999 0 1 1-1.414-1.414zm401.216 36.415.003 5.102-2 .001-.003-5.102zm.005 9.183.007 10.203-2 .001-.007-10.203zm.009 14.284.006 10.203-2 .002-.006-10.204zm.009 14.285.006 10.203-2 .001-.006-10.203zm.008 14.284.006 10.203-2 .001-.006-10.203zm.009 14.284.006 10.204-2 .001-.006-10.203zm.008 14.285.007 10.203-2 .001-.007-10.203zm.009 14.284.003 5.102-2 .001-.003-5.102zm-.997 6.102h-4.921v-2h4.921zm-8.857 0h-9.842v-2h9.842zm-13.779 0h-9.841v-2h9.841zm-13.778 0h-9.841v-2h9.841zm-13.778 0h-9.842v-2h9.842zm-13.778 0h-9.842v-2h9.842zm-13.779 0h-9.841v-2h9.841zm-13.778 0h-9.841v-2h9.841zm-13.778 0h-9.842v-2h9.842zm-13.778 0h-9.842v-2h9.842zm-13.779 0h-9.841v-2h9.841zm-13.778 0h-9.841v-2h9.841zm-13.778 0h-9.842v-2h9.842zm-13.778 0h-9.842v-2h9.842zm-13.778 0h-9.842v-2h9.842zm-13.779 0h-9.841v-2h9.841zm-13.778 0h-9.842v-2h9.842zm-13.778 0h-9.842v-2h9.842zm-13.778 0h-9.842v-2h9.842zm-13.779 0h-9.841v-2h9.841zm-13.778 0h-9.842v-2h9.842zm-13.778 0h-9.842v-2h9.842zm-13.778 0h-9.842v-2h9.842zm-13.779 0h-9.841v-2h9.841zm-13.778 0h-9.842v-2h9.842zm-13.778 0h-9.842v-2h9.842zm-13.779 0h-9.841v-2h9.841zm-13.778 0h-9.841v-2h9.841zm-13.778 0h-9.842v-2h9.842zm-13.778 0H370v-2h4.921zm-5.921-1v-4.846h2v4.846zm0-8.723v-9.693h2v9.693zm0-13.57v-9.693h2v9.693zm0-13.57v-9.693h2v9.693zm0-13.57v-9.693h2v9.693zm0-13.57v-9.693h2v9.693zm0-13.57v-9.693h2v9.693zm0-13.57v-9.693h2v9.693zm0-13.57v-9.693h2v9.693zm0-13.57v-9.692h2v9.692zm0-13.57V774.5h2v4.846z" fill="#204a8a"/><path d="M755.939 775.061a1.502 1.502 0 0 0 2.122 0l9.546-9.546a1.502 1.502 0 0 0 0-2.122 1.502 1.502 0 0 0-2.122 0L757 771.879l-8.485-8.486a1.502 1.502 0 0 0-2.122 0 1.502 1.502 0 0 0 0 2.122zM755.5 743v31h3v-31zM819.939 775.061a1.502 1.502 0 0 0 2.122 0l9.546-9.546a1.502 1.502 0 0 0 0-2.122 1.502 1.502 0 0 0-2.122 0L821 771.879l-8.485-8.486a1.502 1.502 0 0 0-2.122 0 1.502 1.502 0 0 0 0 2.122zM819.5 743v31h3v-31z" fill="#469710"/><path d="M132.5 262v-1.5H131v1.5zm-1.061 166.561a1.5 1.5 0 0 0 2.122 0l9.546-9.546a1.501 1.501 0 0 0-2.122-2.121l-8.485 8.485-8.485-8.485a1.5 1.5 0 0 0-2.122 2.121zM285 260.5H132.5v3H285zM131 262v165.5h3V262z"/><text xml:space="preserve" style="font-style:normal;font-variant:normal;font-weight:400;font-stretch:normal;font-size:26.6667px;font-family:'Times New Roman';-inkscape-font-specification:'Times New Roman, ';text-align:start;writing-mode:lr-tb;direction:ltr;text-anchor:start;fill:#000" x="601.077" y="24.832"><tspan x="601.077" y="24.832">Мир</tspan></text><text xml:space="preserve" style="font-style:normal;font-variant:normal;font-weight:400;font-stretch:normal;font-size:26.6667px;font-family:'Times New Roman';-inkscape-font-specification:'Times New Roman, ';text-align:start;writing-mode:lr-tb;direction:ltr;text-anchor:start;fill:#000" x="296.803" y="151.358"><tspan x="296.803" y="151.358" style="font-weight:700">Сущность</tspan></text><text xml:space="preserve" style="font-style:normal;font-variant:normal;font-weight:400;font-stretch:normal;font-size:26.6667px;font-family:'Times New Roman';-inkscape-font-specification:'Times New Roman, ';text-align:start;writing-mode:lr-tb;direction:ltr;text-anchor:start;fill:#000" x="62.836" y="466.505"><tspan x="62.836" y="466.505" style="font-weight:700">Компонент</tspan></text><text xml:space="preserve" style="font-style:normal;font-variant:normal;font-weight:400;font-stretch:normal;font-size:26.6667px;font-family:'Times New Roman';-inkscape-font-specification:'Times New Roman, ';text-align:start;writing-mode:lr-tb;direction:ltr;text-anchor:start;fill:#000" x="609.387" y="659.339"><tspan x="609.387" y="659.339" style="font-weight:700">Система</tspan></text><text xml:space="preserve" style="font-style:normal;font-variant:normal;font-weight:400;font-stretch:normal;font-size:32px;font-family:'Times New Roman';-inkscape-font-specification:'Times New Roman, ';text-align:start;writing-mode:lr-tb;direction:ltr;text-anchor:start;fill:#000" x="752.058" y="105.241"><tspan x="752.058" y="105.241" style="font-size:32px">сущности</tspan></text><text xml:space="preserve" style="font-style:normal;font-variant:normal;font-weight:400;font-stretch:normal;font-size:32px;font-family:'Times New Roman';-inkscape-font-specification:'Times New Roman, ';text-align:start;writing-mode:lr-tb;direction:ltr;text-anchor:start;fill:#000" x="259.191" y="648.676"><tspan x="259.191" y="648.676" style="font-size:32px">компоненты</tspan></text><text xml:space="preserve" style="font-style:normal;font-variant:normal;font-weight:400;font-stretch:normal;font-size:32px;font-family:'Times New Roman';-inkscape-font-specification:'Times New Roman, ';text-align:start;writing-mode:lr-tb;direction:ltr;text-anchor:start;fill:#000" x="1059.938" y="647.816"><tspan x="1059.938" y="647.816" style="font-size:32px">системы</tspan></text><text xml:space="preserve" style="font-style:normal;font-variant:normal;font-weight:400;font-stretch:normal;font-size:29.3333px;font-family:'Times New Roman';-inkscape-font-specification:'Times New Roman, ';text-align:start;writing-mode:lr-tb;direction:ltr;text-anchor:start;fill:#000" x="296.509" y="223.489"><tspan x="296.509" y="223.489" style="font-size:29.3333px">Компонент</tspan></text><text xml:space="preserve" style="font-style:normal;font-variant:normal;font-weight:400;font-stretch:normal;font-size:29.3333px;font-family:'Times New Roman';-inkscape-font-specification:'Times New Roman, ';text-align:start;writing-mode:lr-tb;direction:ltr;text-anchor:start;fill:#000" x="296.509" y="271.453"><tspan x="296.509" y="271.453" style="font-size:29.3333px">Компонент</tspan></text><text xml:space="preserve" style="font-style:normal;font-variant:normal;font-weight:400;font-stretch:normal;font-size:29.3333px;font-family:'Times New Roman';-inkscape-font-specification:'Times New Roman, ';text-align:start;writing-mode:lr-tb;direction:ltr;text-anchor:start;fill:#000" x="296.509" y="319.417"><tspan x="296.509" y="319.417" style="font-size:29.3333px">Компонент</tspan></text><text xml:space="preserve" style="font-style:normal;font-variant:normal;font-weight:400;font-stretch:normal;font-size:29.3333px;font-family:'Times New Roman';-inkscape-font-specification:'Times New Roman, ';text-align:start;writing-mode:lr-tb;direction:ltr;text-anchor:start;fill:#000" x="64.638" y="537.95"><tspan x="64.638" y="537.95" style="font-size:29.3333px">Данные</tspan></text><text xml:space="preserve" style="font-style:normal;font-variant:normal;font-weight:400;font-stretch:normal;font-size:29.3333px;font-family:'Times New Roman';-inkscape-font-specification:'Times New Roman, ';text-align:start;writing-mode:lr-tb;direction:ltr;text-anchor:start;fill:#000" x="609.941" y="731.984"><tspan x="609.941" y="731.984" style="font-size:29.3333px">Запросы</tspan></text><text xml:space="preserve" style="font-style:normal;font-variant:normal;font-weight:400;font-stretch:normal;font-size:29.3333px;font-family:'Times New Roman';-inkscape-font-specification:'Times New Roman, ';text-align:start;writing-mode:lr-tb;direction:ltr;text-anchor:start;fill:#000" x="608.107" y="796.596"><tspan x="608.107" y="796.596" style="font-size:29.3333px">Логика</tspan></text><text xml:space="preserve" style="font-style:normal;font-variant:normal;font-weight:400;font-stretch:normal;font-size:29.3333px;font-family:'Times New Roman';-inkscape-font-specification:'Times New Roman, ';text-align:start;writing-mode:lr-tb;direction:ltr;text-anchor:start;fill:#84b653;fill-opacity:1" x="775.708" y="171.46"><tspan x="775.708" y="171.46">запрос</tspan></text><text xml:space="preserve" style="font-style:normal;font-variant:normal;font-weight:400;font-stretch:normal;font-size:29.3333px;font-family:'Times New Roman';-inkscape-font-specification:'Times New Roman, ';text-align:start;writing-mode:lr-tb;direction:ltr;text-anchor:start;fill:#84b653;fill-opacity:1" x="966.393" y="278.66"><tspan x="966.393" y="278.66">запрос</tspan></text><text xml:space="preserve" style="font-style:normal;font-variant:normal;font-weight:400;font-stretch:normal;font-size:29.3333px;font-family:'Times New Roman';-inkscape-font-specification:'Times New Roman, ';text-align:start;writing-mode:lr-tb;direction:ltr;text-anchor:start;fill:#84b653;fill-opacity:1" x="966.393" y="278.66"><tspan x="966.393" y="278.66">запрос</tspan></text><text xml:space="preserve" style="font-style:normal;font-variant:normal;font-weight:400;font-stretch:normal;font-size:29.3333px;font-family:'Times New Roman';-inkscape-font-specification:'Times New Roman, ';text-align:start;writing-mode:lr-tb;direction:ltr;text-anchor:start;fill:#84b653;fill-opacity:1" x="637.101" y="381.017"><tspan x="637.101" y="381.017">запрос</tspan></text><text xml:space="preserve" style="font-style:normal;font-variant:normal;font-weight:400;font-stretch:normal;font-size:34.6667px;font-family:'Times New Roman';-inkscape-font-specification:'Times New Roman, ';text-align:start;writing-mode:lr-tb;direction:ltr;text-anchor:start;fill:#84b653;fill-opacity:1" x="621.985" y="212.847"><tspan x="621.985" y="212.847" style="font-size:34.6667px;fill:#000;fill-opacity:1">сущ</tspan></text><text xml:space="preserve" style="font-style:normal;font-variant:normal;font-weight:400;font-stretch:normal;font-size:34.6667px;font-family:'Times New Roman';-inkscape-font-specification:'Times New Roman, ';text-align:start;writing-mode:lr-tb;direction:ltr;text-anchor:start;fill:#84b653;fill-opacity:1" x="955.443" y="183.948"><tspan x="955.443" y="183.948" style="font-size:34.6667px;fill:#000;fill-opacity:1">сущ</tspan></text><text xml:space="preserve" style="font-style:normal;font-variant:normal;font-weight:400;font-stretch:normal;font-size:34.6667px;font-family:'Times New Roman';-inkscape-font-specification:'Times New Roman, ';text-align:start;writing-mode:lr-tb;direction:ltr;text-anchor:start;fill:#84b653;fill-opacity:1" x="958.647" y="363.247"><tspan x="958.647" y="363.247" style="font-size:34.6667px;fill:#000;fill-opacity:1">сущ</tspan></text><text xml:space="preserve" style="font-style:normal;font-variant:normal;font-weight:400;font-stretch:normal;font-size:34.6667px;font-family:'Times New Roman';-inkscape-font-specification:'Times New Roman, ';text-align:start;writing-mode:lr-tb;direction:ltr;text-anchor:start;fill:#84b653;fill-opacity:1" x="903.691" y="441.648"><tspan x="903.691" y="441.648" style="font-size:34.6667px;fill:#000;fill-opacity:1">сущ</tspan></text><text xml:space="preserve" style="font-style:normal;font-variant:normal;font-weight:400;font-stretch:normal;font-size:34.6667px;font-family:'Times New Roman';-inkscape-font-specification:'Times New Roman, ';text-align:start;writing-mode:lr-tb;direction:ltr;text-anchor:start;fill:#84b653;fill-opacity:1" x="721.341" y="502.269"><tspan x="721.341" y="502.269" style="font-size:34.6667px;fill:#000;fill-opacity:1">сущ</tspan></text><text xml:space="preserve" style="font-style:normal;font-variant:normal;font-weight:400;font-stretch:normal;font-size:34.6667px;font-family:'Times New Roman';-inkscape-font-specification:'Times New Roman, ';text-align:start;writing-mode:lr-tb;direction:ltr;text-anchor:start;fill:#84b653;fill-opacity:1" x="663.144" y="437.108"><tspan x="663.144" y="437.108" style="font-size:34.6667px;fill:#000;fill-opacity:1">сущ</tspan></text><text xml:space="preserve" style="font-style:normal;font-variant:normal;font-weight:400;font-stretch:normal;font-size:34.6667px;font-family:'Times New Roman';-inkscape-font-specification:'Times New Roman, ';text-align:start;writing-mode:lr-tb;direction:ltr;text-anchor:start;fill:#84b653;fill-opacity:1" x="746.209" y="342.736"><tspan x="746.209" y="342.736" style="font-size:34.6667px;fill:#000;fill-opacity:1">сущ</tspan></text><text xml:space="preserve" style="font-style:normal;font-variant:normal;font-weight:400;font-stretch:normal;font-size:34.6667px;font-family:'Times New Roman';-inkscape-font-specification:'Times New Roman, ';text-align:start;writing-mode:lr-tb;direction:ltr;text-anchor:start;fill:#84b653;fill-opacity:1" x="772.465" y="212.254"><tspan x="772.465" y="212.254" style="font-size:34.6667px;fill:#000;fill-opacity:1">сущ</tspan></text><text xml:space="preserve" style="font-style:normal;font-variant:normal;font-weight:400;font-stretch:normal;font-size:34.6667px;font-family:'Times New Roman';-inkscape-font-specification:'Times New Roman, ';text-align:start;writing-mode:lr-tb;direction:ltr;text-anchor:start;fill:#84b653;fill-opacity:1" x="762.8" y="273.816"><tspan x="762.8" y="273.816" style="font-weight:700;font-size:34.6667px;fill:#000;fill-opacity:1">сущ</tspan></text><text xml:space="preserve" style="font-style:normal;font-variant:normal;font-weight:400;font-stretch:normal;font-size:34.6667px;font-family:'Times New Roman';-inkscape-font-specification:'Times New Roman, ';text-align:start;writing-mode:lr-tb;direction:ltr;text-anchor:start;fill:#84b653;fill-opacity:1" x="860.399" y="227.605"><tspan x="860.399" y="227.605" style="font-size:34.6667px;fill:#000;fill-opacity:1">сущ</tspan></text><text xml:space="preserve" style="font-style:normal;font-variant:normal;font-weight:400;font-stretch:normal;font-size:34.6667px;font-family:'Times New Roman';-inkscape-font-specification:'Times New Roman, ';text-align:start;writing-mode:lr-tb;direction:ltr;text-anchor:start;fill:#84b653;fill-opacity:1" x="878.377" y="323.291"><tspan x="878.377" y="323.291" style="font-size:34.6667px;fill:#000;fill-opacity:1">сущ</tspan></text><text xml:space="preserve" style="font-style:normal;font-variant:normal;font-weight:400;font-stretch:normal;font-size:34.6667px;font-family:'Times New Roman';-inkscape-font-specification:'Times New Roman, ';text-align:start;writing-mode:lr-tb;direction:ltr;text-anchor:start;fill:#84b653;fill-opacity:1" x="859.618" y="357.889"><tspan x="859.618" y="357.889" style="font-size:34.6667px;fill:#000;fill-opacity:1">сущ</tspan></text><text xml:space="preserve" style="font-style:normal;font-variant:normal;font-weight:400;font-stretch:normal;font-size:34.6667px;font-family:'Times New Roman';-inkscape-font-specification:'Times New Roman, ';text-align:start;writing-mode:lr-tb;direction:ltr;text-anchor:start;fill:#84b653;fill-opacity:1" x="620.903" y="320.298"><tspan x="620.903" y="320.298" style="font-size:34.6667px;fill:#000;fill-opacity:1">сущ</tspan></text><text xml:space="preserve" style="font-style:normal;font-variant:normal;font-weight:400;font-stretch:normal;font-size:34.6667px;font-family:'Times New Roman';-inkscape-font-specification:'Times New Roman, ';text-align:start;writing-mode:lr-tb;direction:ltr;text-anchor:start;fill:#84b653;fill-opacity:1" x="289.268" y="701.999"><tspan x="289.268" y="701.999" style="font-size:34.6667px;fill:#000;fill-opacity:1">к</tspan></text><text xml:space="preserve" style="font-style:normal;font-variant:normal;font-weight:400;font-stretch:normal;font-size:34.6667px;font-family:'Times New Roman';-inkscape-font-specification:'Times New Roman, ';text-align:start;writing-mode:lr-tb;direction:ltr;text-anchor:start;fill:#84b653;fill-opacity:1" x="357.535" y="758.903"><tspan x="357.535" y="758.903" style="font-weight:700;font-size:34.6667px;fill:#000;fill-opacity:1">к</tspan></text><text xml:space="preserve" style="font-style:normal;font-variant:normal;font-weight:400;font-stretch:normal;font-size:34.6667px;font-family:'Times New Roman';-inkscape-font-specification:'Times New Roman, ';text-align:start;writing-mode:lr-tb;direction:ltr;text-anchor:start;fill:#84b653;fill-opacity:1" x="285.404" y="812.115"><tspan x="285.404" y="812.115" style="font-size:34.6667px;fill:#000;fill-opacity:1">к</tspan></text><text xml:space="preserve" style="font-style:normal;font-variant:normal;font-weight:400;font-stretch:normal;font-size:34.6667px;font-family:'Times New Roman';-inkscape-font-specification:'Times New Roman, ';text-align:start;writing-mode:lr-tb;direction:ltr;text-anchor:start;fill:#84b653;fill-opacity:1" x="374.44" y="705.034"><tspan x="374.44" y="705.034" style="font-size:34.6667px;fill:#000;fill-opacity:1">к</tspan></text><text xml:space="preserve" style="font-style:normal;font-variant:normal;font-weight:400;font-stretch:normal;font-size:34.6667px;font-family:'Times New Roman';-inkscape-font-specification:'Times New Roman, ';text-align:start;writing-mode:lr-tb;direction:ltr;text-anchor:start;fill:#84b653;fill-opacity:1" x="1088.44" y="717.334"><tspan x="1088.44" y="717.334" style="font-size:34.6667px;fill:#000;fill-opacity:1">сист</tspan></text><text xml:space="preserve" style="font-style:normal;font-variant:normal;font-weight:400;font-stretch:normal;font-size:34.6667px;font-family:'Times New Roman';-inkscape-font-specification:'Times New Roman, ';text-align:start;writing-mode:lr-tb;direction:ltr;text-anchor:start;fill:#84b653;fill-opacity:1" x="1057.063" y="834.393"><tspan x="1057.063" y="834.393" style="font-size:34.6667px;fill:#000;fill-opacity:1">сист</tspan></text><text xml:space="preserve" style="font-style:normal;font-variant:normal;font-weight:400;font-stretch:normal;font-size:34.6667px;font-family:'Times New Roman';-inkscape-font-specification:'Times New Roman, ';text-align:start;writing-mode:lr-tb;direction:ltr;text-anchor:start;fill:#84b653;fill-opacity:1" x="1132.012" y="779.086"><tspan x="1132.012" y="779.086" style="font-size:34.6667px;fill:#000;fill-opacity:1">сист</tspan></text><text xml:space="preserve" style="font-style:normal;font-variant:normal;font-weight:400;font-stretch:normal;font-size:34.6667px;font-family:'Times New Roman';-inkscape-font-specification:'Times New Roman, ';text-align:start;writing-mode:lr-tb;direction:ltr;text-anchor:start;fill:#84b653;fill-opacity:1" x="1048.691" y="758.802"><tspan x="1048.691" y="758.802" style="font-weight:700;font-size:34.6667px;fill:#000;fill-opacity:1">сист</tspan></text><text xml:space="preserve" style="font-style:normal;font-variant:normal;font-weight:400;font-stretch:normal;font-size:29.3333px;font-family:'Times New Roman';-inkscape-font-specification:'Times New Roman, ';text-align:start;writing-mode:lr-tb;direction:ltr;text-anchor:start;fill:#264f8d;fill-opacity:1" x="452.89" y="902.686"><tspan x="452.89" y="902.686" style="font-style:italic;font-size:29.3333px;fill:#264f8d;fill-opacity:1">изменение данных</tspan></text></svg>