<svg width="1342" height="1554" fill="none" xmlns="http://www.w3.org/2000/svg"><path fill="#ECECEC" d="M0 0h1342v1554H0z"/><path fill="#fff" d="M0 0h1342v1554H0z"/><text xml:space="preserve" style="font-style:normal;font-variant:normal;font-weight:400;font-stretch:normal;font-size:26.6667px;font-family:'Times New Roman';-inkscape-font-specification:'Times New Roman, ';text-align:start;writing-mode:lr-tb;direction:ltr;text-anchor:start;fill:#000" x="-1050.182" y="46.732" transform="rotate(-90)"><tspan x="-1050.182" y="46.732" style="font-style:normal;font-variant:normal;font-weight:400;font-stretch:normal;font-size:26.6667px;font-family:'Times New Roman';-inkscape-font-specification:'Times New Roman, '">системы</tspan></text><text xml:space="preserve" style="font-style:normal;font-variant:normal;font-weight:400;font-stretch:normal;font-size:26.6667px;font-family:'Times New Roman';-inkscape-font-specification:'Times New Roman, ';text-align:start;writing-mode:lr-tb;direction:ltr;text-anchor:start;fill:#000" x="-327.433" y="44.576" transform="rotate(-90)"><tspan x="-327.433" y="44.576" style="font-style:normal;font-variant:normal;font-weight:400;font-stretch:normal;font-size:26.6667px;font-family:'Times New Roman';-inkscape-font-specification:'Times New Roman, '">сущности</tspan></text><rect x="208.5" y="142.5" width="251" height="295" rx="27.5" fill="#FFF7CE" stroke="#C4AC32" stroke-width="3"/><rect x="248.5" y="182.5" width="171" height="53" rx="6.5" fill="#F8BEE0" stroke="#B828C5" stroke-width="3"/><rect x="248.5" y="263.5" width="171" height="53" rx="6.5" fill="#F8BEE0" stroke="#B828C5" stroke-width="3"/><rect x="248.5" y="342.5" width="171" height="53" rx="6.5" fill="#F8BEE0" stroke="#B828C5" stroke-width="3"/><path d="M314.728 201.248h-1.76L307.4 220h-1.888l-5.472-16.64h-.128L294.6 220h-1.888l-5.952-18.752H285V199.2h7.2v2.048h-2.944l4.384 14.944h.128l4.8-14.944h-2.08V199.2h7.168v2.048h-2.08l4.864 15.04h.128l4.032-15.04h-3.008V199.2h7.136v2.048zm1.333 5.6a7.81 7.81 0 0 1 2.368-1.056c.832-.213 1.717-.32 2.656-.32 3.392 0 5.088 1.589 5.088 4.768v6.784c0 1.024.405 1.536 1.216 1.536.362 0 .682-.064.96-.192l.032 1.472c-.576.32-1.195.48-1.856.48-1.686 0-2.55-.96-2.592-2.88v-.064c-.448.768-1.088 1.451-1.92 2.048-.811.597-1.792.896-2.944.896-.939 0-1.899-.288-2.88-.864-.96-.576-1.44-1.621-1.44-3.136 0-1.792.704-2.965 2.112-3.52a12.04 12.04 0 0 1 4.544-.864c.426 0 .853.011 1.28.032.448.021.864.053 1.248.096v-1.28c0-1.024-.224-1.856-.672-2.496-.427-.64-1.28-.96-2.56-.96-1.046 0-1.963.192-2.752.576l-.544 2.464-1.856-.224.512-3.296zm7.872 7.808v-1.088a29.202 29.202 0 0 1-1.28-.096 14.405 14.405 0 0 0-1.376-.064c-1.067 0-2.038.171-2.912.512-.854.32-1.28 1.035-1.28 2.144 0 .917.288 1.547.864 1.888a3.47 3.47 0 0 0 1.792.512c.981 0 1.898-.341 2.752-1.024.874-.683 1.354-1.611 1.44-2.784zM336.81 220h-7.232v-1.824h2.496v-18.368h-2.528v-1.824h4.768v20.192h2.496V220zm16.916 0h-6.72v-1.824h2.144l-3.904-4.832h-2.528v4.832h2.048V220h-6.784v-1.824h2.464v-18.368h-2.528v-1.824h4.8v13.632h2.56l3.264-4.032h-2.208v-1.824h6.656v1.824h-2.176l-3.808 4.704 4.704 5.888h2.016V220zm13.725-4.096c-.192 1.216-.8 2.261-1.824 3.136-1.024.853-2.41 1.28-4.16 1.28-2.005 0-3.626-.629-4.864-1.888-1.237-1.259-1.856-3.04-1.856-5.344 0-2.219.587-4.043 1.76-5.472 1.174-1.429 2.763-2.144 4.768-2.144 1.963 0 3.456.619 4.48 1.856 1.024 1.237 1.547 2.699 1.568 4.384 0 .555-.064 1.12-.192 1.696h-10.016c.128 3.328 1.632 4.992 4.512 4.992 1.131 0 2.016-.267 2.656-.8.64-.533 1.067-1.237 1.28-2.112l1.888.416zm-2.496-4.16c.107-1.067-.149-2.069-.768-3.008-.597-.939-1.589-1.408-2.976-1.408-1.322 0-2.293.437-2.912 1.312-.618.875-1.002 1.909-1.152 3.104h7.808zm12.696-6.24c1.024 0 1.834.245 2.432.736l.544 3.584-1.824.224-.544-2.432a3.255 3.255 0 0 0-1.088-.192c-.832 0-1.526.352-2.08 1.056-.555.683-.832 1.579-.832 2.688v7.008h3.296V220h-8.032v-1.824h2.496v-10.592h-2.56v-1.824h4.672v2.56a4.566 4.566 0 0 1 1.344-1.984c.64-.555 1.365-.832 2.176-.832zM302.832 301h-15.488v-2.048h2.624v-16.704h-2.624V280.2h15.2l.64 5.888-2.048.224-.64-4.064h-8.192v7.168h9.824v2.048h-9.824v7.488h8.48l.64-4.064 2.016.224-.608 5.888zm20.029 0h-7.2v-1.824h2.464v-6.624c0-1.536-.31-2.613-.928-3.232-.619-.64-1.408-.96-2.368-.96-1.28 0-2.315.427-3.104 1.28-.768.832-1.174 1.792-1.216 2.88v6.656h2.496V301h-7.232v-1.824h2.496v-10.592h-2.56v-1.824h4.8v2.528c1.024-1.877 2.688-2.816 4.992-2.816 1.386 0 2.549.427 3.488 1.28.938.853 1.408 2.229 1.408 4.128v7.296h2.464V301zm14.215-4.096c-.192 1.216-.8 2.261-1.824 3.136-1.024.853-2.41 1.28-4.16 1.28-2.005 0-3.626-.629-4.864-1.888-1.237-1.259-1.856-3.04-1.856-5.344 0-2.219.587-4.043 1.76-5.472 1.174-1.429 2.763-2.144 4.768-2.144 1.963 0 3.456.619 4.48 1.856 1.024 1.237 1.547 2.699 1.568 4.384 0 .555-.064 1.12-.192 1.696H326.74c.128 3.328 1.632 4.992 4.512 4.992 1.131 0 2.016-.267 2.656-.8.64-.533 1.067-1.237 1.28-2.112l1.888.416zm-2.496-4.16c.107-1.067-.149-2.069-.768-3.008-.597-.939-1.589-1.408-2.976-1.408-1.322 0-2.293.437-2.912 1.312-.618.875-1.002 1.909-1.152 3.104h7.808zM365.516 301H358.7v-1.824h2.08v-6.624c0-1.536-.31-2.613-.928-3.232-.598-.64-1.366-.96-2.304-.96-1.302 0-2.304.491-3.008 1.472-.704.981-1.067 1.92-1.088 2.816v6.528h2.464V301h-6.784v-1.824h2.048v-6.624c0-1.557-.299-2.645-.896-3.264-.598-.619-1.355-.928-2.272-.928-1.323 0-2.336.48-3.04 1.44-.683.939-1.046 1.867-1.088 2.784v6.592h2.624V301h-7.36v-1.824h2.496v-10.592h-2.528v-1.824h4.768v2.656a6.19 6.19 0 0 1 1.888-2.112c.789-.555 1.749-.832 2.88-.832 1.109 0 2.069.277 2.88.832.832.555 1.397 1.419 1.696 2.592a6.016 6.016 0 0 1 1.888-2.464c.853-.64 1.898-.96 3.136-.96 1.365 0 2.496.427 3.392 1.28.917.853 1.376 2.229 1.376 4.128v7.296h2.496V301zm15.611-12.416h-1.696L374.407 301l-1.92 4.992h2.432v1.824h-7.232v-1.824h2.656l1.856-5.024-5.184-12.384h-1.696v-1.824h6.592v1.824h-2.496l4 9.568h.192l3.552-9.568h-2.304v-1.824h6.272v1.824zM298.944 361.248h-2.72v16.704h2.592V380h-7.392v-2.048h2.432v-13.248h-.128l-6.976 14.24h-1.248l-7.136-14.336h-.128v13.344h2.496V380h-7.36v-2.048H276v-16.704h-2.72V359.2h4.768l8.096 16.288h.128l7.872-16.288h4.8v2.048zm15.757 11.616c0 2.155-.64 3.936-1.92 5.344-1.28 1.408-3.019 2.112-5.216 2.112-2.155 0-3.851-.683-5.088-2.048-1.216-1.365-1.824-3.125-1.824-5.28 0-2.069.597-3.84 1.792-5.312 1.194-1.493 2.944-2.24 5.248-2.24 2.325 0 4.074.736 5.248 2.208 1.173 1.451 1.76 3.189 1.76 5.216zm-2.368-.032c0-1.621-.416-2.933-1.248-3.936-.811-1.024-1.963-1.536-3.456-1.536-1.494 0-2.646.523-3.456 1.568-.79 1.045-1.184 2.357-1.184 3.936 0 1.557.394 2.869 1.184 3.936.789 1.067 1.941 1.6 3.456 1.6 1.514 0 2.677-.523 3.488-1.568.81-1.067 1.216-2.4 1.216-4zM332.995 380h-4.704v-2.88a7.358 7.358 0 0 1-1.92 2.24c-.811.64-1.867.96-3.168.96-1.835 0-3.317-.619-4.448-1.856-1.109-1.259-1.664-2.997-1.664-5.216 0-1.899.491-3.669 1.472-5.312.981-1.643 2.635-2.464 4.96-2.464 2.219 0 3.808.864 4.768 2.592v-8.256h-3.456v-1.824h5.696v20.192h2.464V380zm-4.704-6.304v-2.272c-.043-1.195-.48-2.165-1.312-2.912-.832-.747-1.813-1.12-2.944-1.12-1.579 0-2.741.576-3.488 1.728-.725 1.152-1.088 2.475-1.088 3.968 0 1.749.405 3.072 1.216 3.968.832.896 1.867 1.344 3.104 1.344 1.28 0 2.336-.512 3.168-1.536.853-1.045 1.301-2.101 1.344-3.168zm19.067 2.208c-.192 1.216-.8 2.261-1.824 3.136-1.024.853-2.411 1.28-4.16 1.28-2.006 0-3.627-.629-4.864-1.888-1.238-1.259-1.856-3.04-1.856-5.344 0-2.219.586-4.043 1.76-5.472 1.173-1.429 2.762-2.144 4.768-2.144 1.962 0 3.456.619 4.48 1.856 1.024 1.237 1.546 2.699 1.568 4.384 0 .555-.064 1.12-.192 1.696h-10.016c.128 3.328 1.632 4.992 4.512 4.992 1.13 0 2.016-.267 2.656-.8.64-.533 1.066-1.237 1.28-2.112l1.888.416zm-2.496-4.16c.106-1.067-.15-2.069-.768-3.008-.598-.939-1.59-1.408-2.976-1.408-1.323 0-2.294.437-2.912 1.312-.619.875-1.003 1.909-1.152 3.104h7.808zM356.341 380h-7.232v-1.824h2.496v-18.368h-2.528v-1.824h4.768v20.192h2.496V380zm2.74-15.328c.597-.405 1.376-.779 2.336-1.12a8.78 8.78 0 0 1 3.072-.544c1.685 0 3.072.437 4.16 1.312 1.109.875 1.664 2.133 1.664 3.776a5.15 5.15 0 0 1-.896 2.912c-.576.875-1.611 1.547-3.104 2.016v.128c1.898.32 3.189.971 3.872 1.952a5.642 5.642 0 0 1 1.024 3.296c0 1.856-.608 3.339-1.824 4.448-1.195 1.109-2.838 1.664-4.928 1.664-1.963 0-3.456-.437-4.48-1.312-1.024-.875-1.664-1.941-1.92-3.2l1.824-.64a5.299 5.299 0 0 0 1.472 2.208c.682.619 1.696.928 3.04.928 1.706 0 2.848-.437 3.424-1.312a5.052 5.052 0 0 0 .896-2.912c0-1.259-.448-2.24-1.344-2.944-.896-.704-2.464-1.088-4.704-1.152v-1.728c2.005-.085 3.37-.555 4.096-1.408.725-.875 1.088-1.76 1.088-2.656 0-1.045-.342-1.867-1.024-2.464-.662-.597-1.59-.896-2.784-.896-1.046 0-2.07.267-3.072.8l-.576 2.592-1.856-.224.544-3.52zm34.824 4.896c0 3.051-.939 5.557-2.816 7.52-1.856 1.941-4.427 2.912-7.712 2.912h-9.408v-2.016h2.624v-16.768h-2.624V359.2h9.312c3.392 0 6.005.981 7.84 2.944 1.856 1.941 2.784 4.416 2.784 7.424zm-2.496.032c0-2.517-.704-4.544-2.112-6.08-1.387-1.536-3.403-2.304-6.048-2.304h-4.32v16.768h4.32c2.645 0 4.661-.747 6.048-2.24 1.408-1.515 2.112-3.563 2.112-6.144z" fill="#000"/><rect x="537.5" y="142.5" width="251" height="295" rx="27.5" fill="#FFF7CE" stroke="#C4AC32" stroke-width="3"/><rect x="577.5" y="182.5" width="171" height="53" rx="6.5" fill="#F8BEE0" stroke="#B828C5" stroke-width="3"/><rect x="577.5" y="263.5" width="171" height="53" rx="6.5" fill="#F8BEE0" stroke="#B828C5" stroke-width="3"/><rect x="577.5" y="342.5" width="171" height="53" rx="6.5" fill="#F8BEE0" stroke="#B828C5" stroke-width="3"/><path d="m644.12 205.184-2.112.224-.64-4.16h-8.064v8.096h9.568v2.048h-9.568v6.56h3.68V220h-8.64v-2.048h2.624v-16.704h-2.624V199.2h15.104l.672 5.984zM652.716 220h-7.232v-1.824h2.496v-18.368h-2.528v-1.824h4.768v20.192h2.496V220zm16.286-12.416h-1.696L662.282 220l-1.92 4.992h2.432v1.824h-7.232v-1.824h2.656l1.856-5.024-5.184-12.384h-1.696v-1.824h6.592v1.824h-2.496l4 9.568h.192l3.552-9.568h-2.304v-1.824h6.272v1.824zm13.793 8.32c-.192 1.216-.8 2.261-1.824 3.136-1.024.853-2.411 1.28-4.16 1.28-2.005 0-3.627-.629-4.864-1.888s-1.856-3.04-1.856-5.344c0-2.219.587-4.043 1.76-5.472 1.173-1.429 2.763-2.144 4.768-2.144 1.963 0 3.456.619 4.48 1.856 1.024 1.237 1.547 2.699 1.568 4.384 0 .555-.064 1.12-.192 1.696h-10.016c.128 3.328 1.632 4.992 4.512 4.992 1.131 0 2.016-.267 2.656-.8.64-.533 1.067-1.237 1.28-2.112l1.888.416zm-2.496-4.16c.107-1.067-.149-2.069-.768-3.008-.597-.939-1.589-1.408-2.976-1.408-1.323 0-2.293.437-2.912 1.312-.619.875-1.003 1.909-1.152 3.104h7.808zm12.695-6.24c1.024 0 1.835.245 2.432.736l.544 3.584-1.824.224-.544-2.432a3.246 3.246 0 0 0-1.088-.192c-.832 0-1.525.352-2.08 1.056-.554.683-.832 1.579-.832 2.688v7.008h3.296V220h-8.032v-1.824h2.496v-10.592h-2.56v-1.824h4.672v2.56a4.583 4.583 0 0 1 1.344-1.984c.64-.555 1.366-.832 2.176-.832zM631.832 301h-15.488v-2.048h2.624v-16.704h-2.624V280.2h15.2l.64 5.888-2.048.224-.64-4.064h-8.192v7.168h9.824v2.048h-9.824v7.488h8.48l.64-4.064 2.016.224-.608 5.888zm20.029 0h-7.2v-1.824h2.464v-6.624c0-1.536-.31-2.613-.928-3.232-.619-.64-1.408-.96-2.368-.96-1.28 0-2.315.427-3.104 1.28-.768.832-1.174 1.792-1.216 2.88v6.656h2.496V301h-7.232v-1.824h2.496v-10.592h-2.56v-1.824h4.8v2.528c1.024-1.877 2.688-2.816 4.992-2.816 1.386 0 2.549.427 3.488 1.28.938.853 1.408 2.229 1.408 4.128v7.296h2.464V301zm14.215-4.096c-.192 1.216-.8 2.261-1.824 3.136-1.024.853-2.41 1.28-4.16 1.28-2.005 0-3.626-.629-4.864-1.888-1.237-1.259-1.856-3.04-1.856-5.344 0-2.219.587-4.043 1.76-5.472 1.174-1.429 2.763-2.144 4.768-2.144 1.963 0 3.456.619 4.48 1.856 1.024 1.237 1.547 2.699 1.568 4.384 0 .555-.064 1.12-.192 1.696H655.74c.128 3.328 1.632 4.992 4.512 4.992 1.131 0 2.016-.267 2.656-.8.64-.533 1.067-1.237 1.28-2.112l1.888.416zm-2.496-4.16c.107-1.067-.149-2.069-.768-3.008-.597-.939-1.589-1.408-2.976-1.408-1.322 0-2.293.437-2.912 1.312-.618.875-1.002 1.909-1.152 3.104h7.808zM694.516 301H687.7v-1.824h2.08v-6.624c0-1.536-.31-2.613-.928-3.232-.598-.64-1.366-.96-2.304-.96-1.302 0-2.304.491-3.008 1.472-.704.981-1.067 1.92-1.088 2.816v6.528h2.464V301h-6.784v-1.824h2.048v-6.624c0-1.557-.299-2.645-.896-3.264-.598-.619-1.355-.928-2.272-.928-1.323 0-2.336.48-3.04 1.44-.683.939-1.046 1.867-1.088 2.784v6.592h2.624V301h-7.36v-1.824h2.496v-10.592h-2.528v-1.824h4.768v2.656a6.19 6.19 0 0 1 1.888-2.112c.789-.555 1.749-.832 2.88-.832 1.109 0 2.069.277 2.88.832.832.555 1.397 1.419 1.696 2.592a6.016 6.016 0 0 1 1.888-2.464c.853-.64 1.898-.96 3.136-.96 1.365 0 2.496.427 3.392 1.28.917.853 1.376 2.229 1.376 4.128v7.296h2.496V301zm15.611-12.416h-1.696L703.407 301l-1.92 4.992h2.432v1.824h-7.232v-1.824h2.656l1.856-5.024-5.184-12.384h-1.696v-1.824h6.592v1.824h-2.496l4 9.568h.192l3.552-9.568h-2.304v-1.824h6.272v1.824zM627.944 361.248h-2.72v16.704h2.592V380h-7.392v-2.048h2.432v-13.248h-.128l-6.976 14.24h-1.248l-7.136-14.336h-.128v13.344h2.496V380h-7.36v-2.048H605v-16.704h-2.72V359.2h4.768l8.096 16.288h.128l7.872-16.288h4.8v2.048zm15.757 11.616c0 2.155-.64 3.936-1.92 5.344-1.28 1.408-3.019 2.112-5.216 2.112-2.155 0-3.851-.683-5.088-2.048-1.216-1.365-1.824-3.125-1.824-5.28 0-2.069.597-3.84 1.792-5.312 1.194-1.493 2.944-2.24 5.248-2.24 2.325 0 4.074.736 5.248 2.208 1.173 1.451 1.76 3.189 1.76 5.216zm-2.368-.032c0-1.621-.416-2.933-1.248-3.936-.811-1.024-1.963-1.536-3.456-1.536-1.494 0-2.646.523-3.456 1.568-.79 1.045-1.184 2.357-1.184 3.936 0 1.557.394 2.869 1.184 3.936.789 1.067 1.941 1.6 3.456 1.6 1.514 0 2.677-.523 3.488-1.568.81-1.067 1.216-2.4 1.216-4zM661.995 380h-4.704v-2.88a7.358 7.358 0 0 1-1.92 2.24c-.811.64-1.867.96-3.168.96-1.835 0-3.317-.619-4.448-1.856-1.109-1.259-1.664-2.997-1.664-5.216 0-1.899.491-3.669 1.472-5.312.981-1.643 2.635-2.464 4.96-2.464 2.219 0 3.808.864 4.768 2.592v-8.256h-3.456v-1.824h5.696v20.192h2.464V380zm-4.704-6.304v-2.272c-.043-1.195-.48-2.165-1.312-2.912-.832-.747-1.813-1.12-2.944-1.12-1.579 0-2.741.576-3.488 1.728-.725 1.152-1.088 2.475-1.088 3.968 0 1.749.405 3.072 1.216 3.968.832.896 1.867 1.344 3.104 1.344 1.28 0 2.336-.512 3.168-1.536.853-1.045 1.301-2.101 1.344-3.168zm19.067 2.208c-.192 1.216-.8 2.261-1.824 3.136-1.024.853-2.411 1.28-4.16 1.28-2.006 0-3.627-.629-4.864-1.888-1.238-1.259-1.856-3.04-1.856-5.344 0-2.219.586-4.043 1.76-5.472 1.173-1.429 2.762-2.144 4.768-2.144 1.962 0 3.456.619 4.48 1.856 1.024 1.237 1.546 2.699 1.568 4.384 0 .555-.064 1.12-.192 1.696h-10.016c.128 3.328 1.632 4.992 4.512 4.992 1.13 0 2.016-.267 2.656-.8.64-.533 1.066-1.237 1.28-2.112l1.888.416zm-2.496-4.16c.106-1.067-.15-2.069-.768-3.008-.598-.939-1.59-1.408-2.976-1.408-1.323 0-2.294.437-2.912 1.312-.619.875-1.003 1.909-1.152 3.104h7.808zM685.341 380h-7.232v-1.824h2.496v-18.368h-2.528v-1.824h4.768v20.192h2.496V380zm2.74-15.328c.597-.405 1.376-.779 2.336-1.12a8.78 8.78 0 0 1 3.072-.544c1.685 0 3.072.437 4.16 1.312 1.109.875 1.664 2.133 1.664 3.776a5.15 5.15 0 0 1-.896 2.912c-.576.875-1.611 1.547-3.104 2.016v.128c1.898.32 3.189.971 3.872 1.952a5.642 5.642 0 0 1 1.024 3.296c0 1.856-.608 3.339-1.824 4.448-1.195 1.109-2.838 1.664-4.928 1.664-1.963 0-3.456-.437-4.48-1.312-1.024-.875-1.664-1.941-1.92-3.2l1.824-.64a5.299 5.299 0 0 0 1.472 2.208c.682.619 1.696.928 3.04.928 1.706 0 2.848-.437 3.424-1.312a5.052 5.052 0 0 0 .896-2.912c0-1.259-.448-2.24-1.344-2.944-.896-.704-2.464-1.088-4.704-1.152v-1.728c2.005-.085 3.37-.555 4.096-1.408.725-.875 1.088-1.76 1.088-2.656 0-1.045-.342-1.867-1.024-2.464-.662-.597-1.59-.896-2.784-.896-1.046 0-2.07.267-3.072.8l-.576 2.592-1.856-.224.544-3.52zm34.824 4.896c0 3.051-.939 5.557-2.816 7.52-1.856 1.941-4.427 2.912-7.712 2.912h-9.408v-2.016h2.624v-16.768h-2.624V359.2h9.312c3.392 0 6.005.981 7.84 2.944 1.856 1.941 2.784 4.416 2.784 7.424zm-2.496.032c0-2.517-.704-4.544-2.112-6.08-1.387-1.536-3.403-2.304-6.048-2.304h-4.32v16.768h4.32c2.645 0 4.661-.747 6.048-2.24 1.408-1.515 2.112-3.563 2.112-6.144z" fill="#000"/><rect x="866.5" y="142.5" width="251" height="295" rx="27.5" fill="#FFF7CE" stroke="#C4AC32" stroke-width="3"/><rect x="906.5" y="182.5" width="171" height="53" rx="6.5" fill="#F8BEE0" stroke="#B828C5" stroke-width="3"/><rect x="906.5" y="263.5" width="171" height="53" rx="6.5" fill="#F8BEE0" stroke="#B828C5" stroke-width="3"/><rect x="906.5" y="342.5" width="171" height="53" rx="6.5" fill="#F8BEE0" stroke="#B828C5" stroke-width="3"/><path d="M972.728 201.248h-1.76L965.4 220h-1.888l-5.472-16.64h-.128L952.6 220h-1.888l-5.952-18.752H943V199.2h7.2v2.048h-2.944l4.384 14.944h.128l4.8-14.944h-2.08V199.2h7.168v2.048h-2.08l4.864 15.04h.128l4.032-15.04h-3.008V199.2h7.136v2.048zm1.333 5.6a7.81 7.81 0 0 1 2.368-1.056c.832-.213 1.717-.32 2.656-.32 3.392 0 5.088 1.589 5.088 4.768v6.784c0 1.024.405 1.536 1.216 1.536.362 0 .682-.064.96-.192l.032 1.472c-.576.32-1.195.48-1.856.48-1.686 0-2.55-.96-2.592-2.88v-.064c-.448.768-1.088 1.451-1.92 2.048-.811.597-1.792.896-2.944.896-.939 0-1.899-.288-2.88-.864-.96-.576-1.44-1.621-1.44-3.136 0-1.792.704-2.965 2.112-3.52a12.04 12.04 0 0 1 4.544-.864c.426 0 .853.011 1.28.032.448.021.864.053 1.248.096v-1.28c0-1.024-.224-1.856-.672-2.496-.427-.64-1.28-.96-2.56-.96-1.046 0-1.963.192-2.752.576l-.544 2.464-1.856-.224.512-3.296zm7.872 7.808v-1.088a29.202 29.202 0 0 1-1.28-.096 14.405 14.405 0 0 0-1.376-.064c-1.067 0-2.038.171-2.912.512-.854.32-1.28 1.035-1.28 2.144 0 .917.288 1.547.864 1.888a3.47 3.47 0 0 0 1.792.512c.981 0 1.898-.341 2.752-1.024.874-.683 1.354-1.611 1.44-2.784zM994.81 220h-7.232v-1.824h2.496v-18.368h-2.528v-1.824h4.768v20.192h2.496V220zm16.92 0h-6.72v-1.824h2.14l-3.9-4.832h-2.53v4.832h2.05V220h-6.788v-1.824h2.464v-18.368h-2.528v-1.824h4.802v13.632h2.56l3.26-4.032h-2.21v-1.824h6.66v1.824h-2.18l-3.8 4.704 4.7 5.888h2.02V220zm13.72-4.096c-.19 1.216-.8 2.261-1.82 3.136-1.03.853-2.41 1.28-4.16 1.28-2.01 0-3.63-.629-4.87-1.888-1.23-1.259-1.85-3.04-1.85-5.344 0-2.219.58-4.043 1.76-5.472 1.17-1.429 2.76-2.144 4.77-2.144 1.96 0 3.45.619 4.48 1.856 1.02 1.237 1.54 2.699 1.56 4.384 0 .555-.06 1.12-.19 1.696h-10.01c.12 3.328 1.63 4.992 4.51 4.992 1.13 0 2.01-.267 2.65-.8.64-.533 1.07-1.237 1.28-2.112l1.89.416zm-2.49-4.16c.1-1.067-.15-2.069-.77-3.008-.6-.939-1.59-1.408-2.98-1.408-1.32 0-2.29.437-2.91 1.312-.62.875-1 1.909-1.15 3.104h7.81zm12.69-6.24c1.02 0 1.84.245 2.43.736l.55 3.584-1.83.224-.54-2.432a3.262 3.262 0 0 0-1.09-.192c-.83 0-1.52.352-2.08 1.056-.55.683-.83 1.579-.83 2.688v7.008h3.29V220h-8.03v-1.824h2.5v-10.592h-2.56v-1.824h4.67v2.56c.28-.789.73-1.451 1.34-1.984.64-.555 1.37-.832 2.18-.832zM965.408 286.568c0 2.176-.661 3.84-1.984 4.992-1.323 1.131-3.008 1.696-5.056 1.696h-4.064v5.696h3.584V301h-8.544v-2.048h2.624v-16.704h-2.624V280.2h8.832c2.581 0 4.427.629 5.536 1.888 1.131 1.259 1.696 2.752 1.696 4.48zm-2.496.064c0-1.344-.395-2.411-1.184-3.2-.789-.789-2.037-1.184-3.744-1.184h-3.68v8.96h3.776c3.221 0 4.832-1.525 4.832-4.576zM974.247 301h-7.232v-1.824h2.496v-18.368h-2.528v-1.824h4.768v20.192h2.496V301zm3.22-13.152a7.82 7.82 0 0 1 2.368-1.056c.832-.213 1.717-.32 2.656-.32 3.392 0 5.088 1.589 5.088 4.768v6.784c0 1.024.405 1.536 1.216 1.536.363 0 .683-.064.96-.192l.032 1.472c-.576.32-1.195.48-1.856.48-1.685 0-2.549-.96-2.592-2.88v-.064c-.448.768-1.088 1.451-1.92 2.048-.811.597-1.792.896-2.944.896-.939 0-1.899-.288-2.88-.864-.96-.576-1.44-1.621-1.44-3.136 0-1.792.704-2.965 2.112-3.52a12.04 12.04 0 0 1 4.544-.864c.427 0 .853.011 1.28.032.448.021.864.053 1.248.096v-1.28c0-1.024-.224-1.856-.672-2.496-.427-.64-1.28-.96-2.56-.96-1.045 0-1.963.192-2.752.576l-.544 2.464-1.856-.224.512-3.296zm7.872 7.808v-1.088a29.318 29.318 0 0 1-1.28-.096 14.405 14.405 0 0 0-1.376-.064c-1.067 0-2.037.171-2.912.512-.853.32-1.28 1.035-1.28 2.144 0 .917.288 1.547.864 1.888a3.47 3.47 0 0 0 1.792.512c.981 0 1.899-.341 2.752-1.024.875-.683 1.355-1.611 1.44-2.784zm20.381-7.072h-1.7L999 301l-1.92 4.992h2.432v1.824h-7.232v-1.824h2.656l1.856-5.024-5.184-12.384h-1.696v-1.824h6.592v1.824h-2.496l4 9.568h.192l3.55-9.568h-2.302v-1.824h6.272v1.824zm13.79 8.32c-.19 1.216-.8 2.261-1.82 3.136-1.02.853-2.41 1.28-4.16 1.28-2.01 0-3.63-.629-4.86-1.888-1.24-1.259-1.86-3.04-1.86-5.344 0-2.219.59-4.043 1.76-5.472 1.17-1.429 2.76-2.144 4.77-2.144 1.96 0 3.45.619 4.48 1.856 1.02 1.237 1.54 2.699 1.57 4.384 0 .555-.07 1.12-.2 1.696h-10.01c.13 3.328 1.63 4.992 4.51 4.992 1.13 0 2.02-.267 2.66-.8.64-.533 1.06-1.237 1.28-2.112l1.88.416zm-2.49-4.16c.1-1.067-.15-2.069-.77-3.008-.6-.939-1.59-1.408-2.98-1.408-1.32 0-2.29.437-2.91 1.312-.62.875-1 1.909-1.15 3.104h7.81zm12.69-6.24c1.03 0 1.84.245 2.44.736l.54 3.584-1.82.224-.55-2.432a3.219 3.219 0 0 0-1.09-.192c-.83 0-1.52.352-2.08 1.056-.55.683-.83 1.579-.83 2.688v7.008h3.3V301h-8.03v-1.824h2.49v-10.592h-2.56v-1.824h4.67v2.56c.28-.789.73-1.451 1.35-1.984.64-.555 1.36-.832 2.17-.832zM956.944 361.248h-2.72v16.704h2.592V380h-7.392v-2.048h2.432v-13.248h-.128l-6.976 14.24h-1.248l-7.136-14.336h-.128v13.344h2.496V380h-7.36v-2.048H934v-16.704h-2.72V359.2h4.768l8.096 16.288h.128l7.872-16.288h4.8v2.048zm15.757 11.616c0 2.155-.64 3.936-1.92 5.344-1.28 1.408-3.019 2.112-5.216 2.112-2.155 0-3.851-.683-5.088-2.048-1.216-1.365-1.824-3.125-1.824-5.28 0-2.069.597-3.84 1.792-5.312 1.194-1.493 2.944-2.24 5.248-2.24 2.325 0 4.074.736 5.248 2.208 1.173 1.451 1.76 3.189 1.76 5.216zm-2.368-.032c0-1.621-.416-2.933-1.248-3.936-.811-1.024-1.963-1.536-3.456-1.536-1.494 0-2.646.523-3.456 1.568-.79 1.045-1.184 2.357-1.184 3.936 0 1.557.394 2.869 1.184 3.936.789 1.067 1.941 1.6 3.456 1.6 1.514 0 2.677-.523 3.488-1.568.81-1.067 1.216-2.4 1.216-4zM990.995 380h-4.704v-2.88a7.358 7.358 0 0 1-1.92 2.24c-.811.64-1.867.96-3.168.96-1.835 0-3.317-.619-4.448-1.856-1.109-1.259-1.664-2.997-1.664-5.216 0-1.899.491-3.669 1.472-5.312.981-1.643 2.635-2.464 4.96-2.464 2.219 0 3.808.864 4.768 2.592v-8.256h-3.456v-1.824h5.696v20.192h2.464V380zm-4.704-6.304v-2.272c-.043-1.195-.48-2.165-1.312-2.912-.832-.747-1.813-1.12-2.944-1.12-1.579 0-2.741.576-3.488 1.728-.725 1.152-1.088 2.475-1.088 3.968 0 1.749.405 3.072 1.216 3.968.832.896 1.867 1.344 3.104 1.344 1.28 0 2.336-.512 3.168-1.536.853-1.045 1.301-2.101 1.344-3.168zm19.069 2.208c-.19 1.216-.8 2.261-1.83 3.136-1.02.853-2.41 1.28-4.156 1.28-2.006 0-3.627-.629-4.864-1.888-1.238-1.259-1.856-3.04-1.856-5.344 0-2.219.586-4.043 1.76-5.472 1.173-1.429 2.762-2.144 4.768-2.144 1.958 0 3.458.619 4.478 1.856 1.03 1.237 1.55 2.699 1.57 4.384 0 .555-.06 1.12-.19 1.696h-10.018c.128 3.328 1.632 4.992 4.512 4.992 1.126 0 2.016-.267 2.656-.8.64-.533 1.07-1.237 1.28-2.112l1.89.416zm-2.5-4.16c.11-1.067-.15-2.069-.77-3.008-.59-.939-1.59-1.408-2.972-1.408-1.323 0-2.294.437-2.912 1.312-.619.875-1.003 1.909-1.152 3.104h7.806zm11.48 8.256h-7.23v-1.824h2.49v-18.368h-2.52v-1.824h4.76v20.192h2.5V380zm2.74-15.328c.6-.405 1.38-.779 2.34-1.12.98-.363 2-.544 3.07-.544 1.68 0 3.07.437 4.16 1.312 1.11.875 1.66 2.133 1.66 3.776 0 1.045-.3 2.016-.89 2.912-.58.875-1.61 1.547-3.11 2.016v.128c1.9.32 3.19.971 3.87 1.952.69.981 1.03 2.08 1.03 3.296 0 1.856-.61 3.339-1.83 4.448-1.19 1.109-2.83 1.664-4.92 1.664-1.97 0-3.46-.437-4.48-1.312-1.03-.875-1.67-1.941-1.92-3.2l1.82-.64c.3.853.79 1.589 1.47 2.208.69.619 1.7.928 3.04.928 1.71 0 2.85-.437 3.43-1.312.59-.875.89-1.845.89-2.912 0-1.259-.45-2.24-1.34-2.944-.9-.704-2.47-1.088-4.71-1.152v-1.728c2.01-.085 3.38-.555 4.1-1.408.73-.875 1.09-1.76 1.09-2.656 0-1.045-.34-1.867-1.03-2.464-.66-.597-1.58-.896-2.78-.896-1.04 0-2.07.267-3.07.8l-.58 2.592-1.85-.224.54-3.52zm34.83 4.896c0 3.051-.94 5.557-2.82 7.52-1.86 1.941-4.43 2.912-7.71 2.912h-9.41v-2.016h2.62v-16.768h-2.62V359.2h9.31c3.39 0 6.01.981 7.84 2.944 1.86 1.941 2.79 4.416 2.79 7.424zm-2.5.032c0-2.517-.7-4.544-2.11-6.08-1.39-1.536-3.41-2.304-6.05-2.304h-4.32v16.768h4.32c2.64 0 4.66-.747 6.05-2.24 1.41-1.515 2.11-3.563 2.11-6.144z" fill="#000"/><rect x="100.5" y="547.5" width="545" height="222" rx="11.5" fill="#E7F7FB" stroke="#265FB5" stroke-width="3"/><path d="M148.92 689.904c-.192 1.216-.8 2.261-1.824 3.136-1.024.853-2.411 1.28-4.16 1.28-2.005 0-3.627-.629-4.864-1.888s-1.856-3.04-1.856-5.344c0-2.219.587-4.043 1.76-5.472 1.173-1.429 2.763-2.144 4.768-2.144 1.963 0 3.456.619 4.48 1.856 1.024 1.237 1.547 2.699 1.568 4.384 0 .555-.064 1.12-.192 1.696h-10.016c.128 3.328 1.632 4.992 4.512 4.992 1.131 0 2.016-.267 2.656-.8.64-.533 1.067-1.237 1.28-2.112l1.888.416zm-2.496-4.16c.107-1.067-.149-2.069-.768-3.008-.597-.939-1.589-1.408-2.976-1.408-1.323 0-2.293.437-2.912 1.312-.619.875-1.003 1.909-1.152 3.104h7.808zM165.655 694h-6.272v-1.824h1.856l-3.328-4.096-3.36 4.096h1.696V694h-5.92v-1.824h1.952l4.48-5.28-4.512-5.312h-1.92v-1.824h6.496v1.824h-1.92l3.2 4.032 3.296-4.032h-1.696v-1.824h5.696v1.824h-1.664l-4.448 5.184 4.576 5.408h1.792V694zm13.89-4.096c-.192 1.216-.8 2.261-1.824 3.136-1.024.853-2.411 1.28-4.16 1.28-2.005 0-3.627-.629-4.864-1.888s-1.856-3.04-1.856-5.344c0-2.219.587-4.043 1.76-5.472 1.173-1.429 2.763-2.144 4.768-2.144 1.963 0 3.456.619 4.48 1.856 1.024 1.237 1.547 2.699 1.568 4.384 0 .555-.064 1.12-.192 1.696h-10.016c.128 3.328 1.632 4.992 4.512 4.992 1.131 0 2.016-.267 2.656-.8.64-.533 1.067-1.237 1.28-2.112l1.888.416zm-2.496-4.16c.107-1.067-.149-2.069-.768-3.008-.597-.939-1.589-1.408-2.976-1.408-1.323 0-2.293.437-2.912 1.312-.619.875-1.003 1.909-1.152 3.104h7.808zm17.303 3.456c-.192 1.237-.757 2.4-1.696 3.488-.917 1.088-2.357 1.632-4.32 1.632-1.962 0-3.53-.629-4.704-1.888-1.173-1.28-1.76-3.061-1.76-5.344 0-1.963.555-3.723 1.664-5.28 1.11-1.557 2.774-2.336 4.992-2.336.939 0 1.803.107 2.592.32.79.213 1.547.597 2.272 1.152l.544 3.424-1.856.224-.544-2.4c-.853-.533-1.866-.8-3.04-.8-1.514 0-2.602.544-3.264 1.632-.661 1.088-.992 2.4-.992 3.936 0 1.707.374 3.04 1.12 4 .747.96 1.824 1.44 3.232 1.44 2.134 0 3.414-1.205 3.84-3.616l1.92.416zm18.558 4.8h-4.8v-2.688a5.41 5.41 0 0 1-1.984 2.176c-.854.555-1.846.832-2.976.832-1.387 0-2.56-.427-3.52-1.28-.939-.875-1.408-2.261-1.408-4.16v-7.296h-2.496v-1.824h4.736v8.48c0 1.536.32 2.613.96 3.232.64.619 1.461.928 2.463.928 1.217 0 2.209-.459 2.977-1.376.789-.917 1.205-1.888 1.248-2.912v-6.528h-2.976v-1.824h5.216v12.416h2.56V694zm12.177-3.84c-.384 2.773-1.888 4.16-4.512 4.16-1.429 0-2.528-.405-3.296-1.216-.747-.811-1.12-1.909-1.12-3.296v-8.256h-2.304v-1.792h2.304v-4.576h2.24v4.576h5.568v1.792h-5.568v7.968c0 .853.181 1.547.544 2.08.384.512 1.003.768 1.856.768.555 0 1.067-.171 1.536-.512.491-.341.843-1.088 1.056-2.24l1.696.544zm14.083-.256c-.192 1.216-.8 2.261-1.824 3.136-1.024.853-2.411 1.28-4.16 1.28-2.005 0-3.627-.629-4.864-1.888s-1.856-3.04-1.856-5.344c0-2.219.587-4.043 1.76-5.472 1.173-1.429 2.763-2.144 4.768-2.144 1.963 0 3.456.619 4.48 1.856 1.024 1.237 1.547 2.699 1.568 4.384 0 .555-.064 1.12-.192 1.696h-10.016c.128 3.328 1.632 4.992 4.512 4.992 1.131 0 2.016-.267 2.656-.8.64-.533 1.067-1.237 1.28-2.112l1.888.416zm-2.496-4.16c.107-1.067-.149-2.069-.768-3.008-.597-.939-1.589-1.408-2.976-1.408-1.323 0-2.293.437-2.912 1.312-.619.875-1.003 1.909-1.152 3.104h7.808zm10.007-14.72h2.144c-3.541 4.501-5.312 9.28-5.312 14.336 0 2.475.438 4.96 1.312 7.456.896 2.496 2.23 4.843 4 7.04h-2.208c-1.77-2.347-3.061-4.736-3.872-7.168-.81-2.453-1.216-4.896-1.216-7.328 0-2.475.416-4.917 1.248-7.328.854-2.411 2.155-4.747 3.904-7.008zm12 28.832h-2.144c3.541-4.501 5.312-9.28 5.312-14.336 0-2.475-.448-4.949-1.344-7.424-.875-2.496-2.198-4.853-3.968-7.072h2.208c1.77 2.347 3.061 4.747 3.872 7.2.81 2.432 1.216 4.864 1.216 7.296 0 2.453-.427 4.885-1.28 7.296-.832 2.411-2.123 4.757-3.872 7.04z" fill="#000"/><rect x="399.5" y="585.5" width="85" height="51" rx="6.5" fill="#FFF7CE" stroke="#C4AC32" stroke-width="3"/><rect x="495.5" y="585.5" width="105" height="51" rx="6.5" fill="#FFF7CE" stroke="#C4AC32" stroke-width="3"/><rect x="234.5" y="585.5" width="113" height="51" rx="9.5" fill="#F8BEE0" stroke="#B828C5" stroke-width="3"/><path d="M151.864 626.816h-7.776v-1.824h3.328v-7.904a6.514 6.514 0 0 1-1.856 2.272c-.811.64-1.888.96-3.232.96-1.771 0-3.232-.608-4.384-1.824-1.152-1.216-1.728-2.955-1.728-5.216 0-1.237.213-2.453.64-3.648.427-1.216 1.109-2.208 2.048-2.976.939-.789 2.155-1.184 3.648-1.184 1.109 0 2.112.245 3.008.736.917.469 1.6 1.141 2.048 2.016l.128-1.216c.043-.427.107-.843.192-1.248h2.24a27.903 27.903 0 0 0-.352 2.208 18.947 18.947 0 0 0-.128 2.208v14.816h2.176zm-4.448-13.12v-2.144c0-1.195-.437-2.187-1.312-2.976-.853-.789-1.877-1.184-3.072-1.184-1.557 0-2.688.576-3.392 1.728-.704 1.152-1.056 2.464-1.056 3.936 0 1.771.416 3.104 1.248 4 .832.896 1.845 1.344 3.04 1.344 1.344 0 2.421-.512 3.232-1.536.832-1.045 1.269-2.101 1.312-3.168zm22.15 6.304h-4.8v-2.688a5.41 5.41 0 0 1-1.984 2.176c-.854.555-1.846.832-2.976.832-1.387 0-2.56-.427-3.52-1.28-.939-.875-1.408-2.261-1.408-4.16v-7.296h-2.496v-1.824h4.736v8.48c0 1.536.32 2.613.96 3.232.64.619 1.461.928 2.464.928 1.216 0 2.208-.459 2.976-1.376.789-.917 1.205-1.888 1.248-2.912v-6.528h-2.976v-1.824h5.216v12.416h2.56zm14.385-4.096c-.192 1.216-.8 2.261-1.824 3.136-1.024.853-2.41 1.28-4.16 1.28-2.005 0-3.626-.629-4.864-1.888-1.237-1.259-1.856-3.04-1.856-5.344 0-2.219.587-4.043 1.76-5.472 1.174-1.429 2.763-2.144 4.768-2.144 1.963 0 3.456.619 4.48 1.856 1.024 1.237 1.547 2.699 1.568 4.384 0 .555-.064 1.12-.192 1.696h-10.016c.128 3.328 1.632 4.992 4.512 4.992 1.131 0 2.016-.267 2.656-.8.64-.533 1.067-1.237 1.28-2.112zm-2.496-4.16c.107-1.067-.149-2.069-.768-3.008-.597-.939-1.589-1.408-2.976-1.408-1.322 0-2.293.437-2.912 1.312-.618.875-1.002 1.909-1.152 3.104zm12.696-6.24c1.024 0 1.834.245 2.432.736l.544 3.584-1.824.224-.544-2.432a3.255 3.255 0 0 0-1.088-.192c-.832 0-1.526.352-2.08 1.056-.555.683-.832 1.579-.832 2.688v7.008h3.296V620h-8.032v-1.824h2.496v-10.592h-2.56v-1.824h4.672v2.56a4.566 4.566 0 0 1 1.344-1.984c.64-.555 1.365-.832 2.176-.832zm20.413 2.08h-1.696L207.844 620l-1.92 4.992h2.432v1.824h-7.232v-1.824h2.656l1.856-5.024-5.184-12.384h-1.696v-1.824h6.592v1.824h-2.496l4 9.568h.192l3.552-9.568h-2.304v-1.824h6.272zm9.437 19.232V596h5.664v1.664h-3.649v27.488h3.649v1.664zm49.508-25.568h-1.76L266.181 620h-1.888l-5.472-16.64h-.128L253.381 620h-1.888l-5.952-18.752h-1.76V599.2h7.2v2.048h-2.944l4.384 14.944h.128l4.8-14.944h-2.08V599.2h7.168v2.048h-2.08l4.864 15.04h.128l4.032-15.04h-3.008V599.2h7.136zm1.333 5.6a7.82 7.82 0 0 1 2.368-1.056c.832-.213 1.717-.32 2.656-.32 3.392 0 5.088 1.589 5.088 4.768v6.784c0 1.024.405 1.536 1.216 1.536.363 0 .683-.064.96-.192l.032 1.472c-.576.32-1.195.48-1.856.48-1.685 0-2.549-.96-2.592-2.88v-.064c-.448.768-1.088 1.451-1.92 2.048-.811.597-1.792.896-2.944.896-.939 0-1.899-.288-2.88-.864-.96-.576-1.44-1.621-1.44-3.136 0-1.792.704-2.965 2.112-3.52a12.04 12.04 0 0 1 4.544-.864c.427 0 .853.011 1.28.032.448.021.864.053 1.248.096v-1.28c0-1.024-.224-1.856-.672-2.496-.427-.64-1.28-.96-2.56-.96-1.045 0-1.963.192-2.752.576l-.544 2.464-1.856-.224zm7.872 7.808v-1.088a29.318 29.318 0 0 1-1.28-.096 14.405 14.405 0 0 0-1.376-.064c-1.067 0-2.037.171-2.912.512-.853.32-1.28 1.035-1.28 2.144 0 .917.288 1.547.864 1.888a3.47 3.47 0 0 0 1.792.512c.981 0 1.899-.341 2.752-1.024.875-.683 1.355-1.611 1.44-2.784zM295.591 620h-7.232v-1.824h2.496v-18.368h-2.528v-1.824h4.768v20.192h2.496zm16.916 0h-6.72v-1.824h2.144l-3.904-4.832h-2.528v4.832h2.048V620h-6.784v-1.824h2.464v-18.368h-2.528v-1.824h4.8v13.632h2.56l3.264-4.032h-2.208v-1.824h6.656v1.824h-2.176l-3.808 4.704 4.704 5.888h2.016zm13.726-4.096c-.192 1.216-.8 2.261-1.824 3.136-1.024.853-2.411 1.28-4.16 1.28-2.006 0-3.627-.629-4.864-1.888-1.238-1.259-1.856-3.04-1.856-5.344 0-2.219.586-4.043 1.76-5.472 1.173-1.429 2.762-2.144 4.768-2.144 1.962 0 3.456.619 4.48 1.856 1.024 1.237 1.546 2.699 1.568 4.384 0 .555-.064 1.12-.192 1.696h-10.016c.128 3.328 1.632 4.992 4.512 4.992 1.13 0 2.016-.267 2.656-.8.64-.533 1.066-1.237 1.28-2.112zm-2.496-4.16c.106-1.067-.15-2.069-.768-3.008-.598-.939-1.59-1.408-2.976-1.408-1.323 0-2.294.437-2.912 1.312-.619.875-1.003 1.909-1.152 3.104zm12.695-6.24c1.024 0 1.834.245 2.432.736l.544 3.584-1.824.224-.544-2.432a3.255 3.255 0 0 0-1.088-.192c-.832 0-1.526.352-2.08 1.056-.555.683-.832 1.579-.832 2.688v7.008h3.296V620h-8.032v-1.824h2.496v-10.592h-2.56v-1.824h4.672v2.56a4.566 4.566 0 0 1 1.344-1.984c.64-.555 1.365-.832 2.176-.832zm24.653 21.312h-5.664v-1.664h3.648v-27.488h-3.648V596h5.664zm11.93-18.464v-1.728h14.624v1.728zm0 7.04v-1.664h14.624v1.664zM368.197 512.248h-1.76L360.869 531h-1.888l-5.472-16.64h-.128L348.069 531h-1.888l-5.952-18.752h-1.76V510.2h7.2v2.048h-2.944l4.384 14.944h.128l4.8-14.944h-2.08V510.2h7.168v2.048h-2.08l4.864 15.04h.128l4.032-15.04h-3.008V510.2h7.136v2.048zm1.333 5.6a7.81 7.81 0 0 1 2.368-1.056c.832-.213 1.717-.32 2.656-.32 3.392 0 5.088 1.589 5.088 4.768v6.784c0 1.024.405 1.536 1.216 1.536.362 0 .682-.064.96-.192l.032 1.472c-.576.32-1.195.48-1.856.48-1.686 0-2.55-.96-2.592-2.88v-.064c-.448.768-1.088 1.451-1.92 2.048-.811.597-1.792.896-2.944.896-.939 0-1.899-.288-2.88-.864-.96-.576-1.44-1.621-1.44-3.136 0-1.792.704-2.965 2.112-3.52a12.04 12.04 0 0 1 4.544-.864c.426 0 .853.011 1.28.032.448.021.864.053 1.248.096v-1.28c0-1.024-.224-1.856-.672-2.496-.427-.64-1.28-.96-2.56-.96-1.046 0-1.963.192-2.752.576l-.544 2.464-1.856-.224.512-3.296zm7.872 7.808v-1.088a29.202 29.202 0 0 1-1.28-.096 14.405 14.405 0 0 0-1.376-.064c-1.067 0-2.038.171-2.912.512-.854.32-1.28 1.035-1.28 2.144 0 .917.288 1.547.864 1.888a3.47 3.47 0 0 0 1.792.512c.981 0 1.898-.341 2.752-1.024.874-.683 1.354-1.611 1.44-2.784zM390.278 531h-7.232v-1.824h2.496v-18.368h-2.528v-1.824h4.768v20.192h2.496V531zm16.916 0h-6.72v-1.824h2.144l-3.904-4.832h-2.528v4.832h2.048V531h-6.784v-1.824h2.464v-18.368h-2.528v-1.824h4.8v13.632h2.56l3.264-4.032h-2.208v-1.824h6.656v1.824h-2.176l-3.808 4.704 4.704 5.888h2.016V531z" fill="#000"/><rect x="704.5" y="872.5" width="545" height="273" rx="11.5" fill="#E7F7FB" stroke="#265FB5" stroke-width="3"/><path d="M752.92 1076.9c-.192 1.22-.8 2.27-1.824 3.14-1.024.85-2.411 1.28-4.16 1.28-2.005 0-3.627-.63-4.864-1.89-1.237-1.26-1.856-3.04-1.856-5.34 0-2.22.587-4.04 1.76-5.47 1.173-1.43 2.763-2.15 4.768-2.15 1.963 0 3.456.62 4.48 1.86 1.024 1.24 1.547 2.7 1.568 4.38 0 .56-.064 1.12-.192 1.7h-10.016c.128 3.33 1.632 4.99 4.512 4.99 1.131 0 2.016-.27 2.656-.8.64-.53 1.067-1.24 1.28-2.11l1.888.41zm-2.496-4.16c.107-1.06-.149-2.07-.768-3-.597-.94-1.589-1.41-2.976-1.41-1.323 0-2.293.44-2.912 1.31-.619.87-1.003 1.91-1.152 3.1h7.808zm19.231 8.26h-6.272v-1.82h1.856l-3.328-4.1-3.36 4.1h1.696v1.82h-5.92v-1.82h1.952l4.48-5.28-4.512-5.32h-1.92v-1.82h6.496v1.82h-1.92l3.2 4.04 3.296-4.04h-1.696v-1.82h5.696v1.82h-1.664l-4.448 5.19 4.576 5.41h1.792v1.82zm13.89-4.1c-.192 1.22-.8 2.27-1.824 3.14-1.024.85-2.411 1.28-4.16 1.28-2.005 0-3.627-.63-4.864-1.89-1.237-1.26-1.856-3.04-1.856-5.34 0-2.22.587-4.04 1.76-5.47 1.173-1.43 2.763-2.15 4.768-2.15 1.963 0 3.456.62 4.48 1.86 1.024 1.24 1.547 2.7 1.568 4.38 0 .56-.064 1.12-.192 1.7h-10.016c.128 3.33 1.632 4.99 4.512 4.99 1.131 0 2.016-.27 2.656-.8.64-.53 1.067-1.24 1.28-2.11l1.888.41zm-2.496-4.16c.107-1.06-.149-2.07-.768-3-.597-.94-1.589-1.41-2.976-1.41-1.323 0-2.293.44-2.912 1.31-.619.87-1.003 1.91-1.152 3.1h7.808zm17.303 3.46c-.192 1.24-.757 2.4-1.696 3.49-.917 1.09-2.357 1.63-4.32 1.63-1.962 0-3.53-.63-4.704-1.89-1.173-1.28-1.76-3.06-1.76-5.34 0-1.96.555-3.72 1.664-5.28 1.11-1.56 2.774-2.34 4.992-2.34.939 0 1.803.11 2.592.32.79.22 1.547.6 2.272 1.15l.544 3.43-1.856.22-.544-2.4c-.853-.53-1.866-.8-3.04-.8-1.514 0-2.602.55-3.264 1.63-.661 1.09-.992 2.4-.992 3.94 0 1.71.374 3.04 1.12 4 .747.96 1.824 1.44 3.232 1.44 2.134 0 3.414-1.21 3.84-3.62l1.92.42zm18.558 4.8h-4.8v-2.69c-.448.9-1.11 1.62-1.984 2.18-.854.55-1.846.83-2.976.83-1.387 0-2.56-.43-3.52-1.28-.939-.87-1.408-2.26-1.408-4.16v-7.3h-2.496v-1.82h4.736v8.48c0 1.54.32 2.61.96 3.23.64.62 1.461.93 2.463.93 1.217 0 2.209-.46 2.977-1.38.789-.91 1.205-1.88 1.248-2.91v-6.53h-2.976v-1.82h5.216v12.42h2.56v1.82zm12.177-3.84c-.384 2.77-1.888 4.16-4.512 4.16-1.429 0-2.528-.41-3.296-1.22-.747-.81-1.12-1.91-1.12-3.29v-8.26h-2.304v-1.79h2.304v-4.58h2.24v4.58h5.568v1.79h-5.568v7.97c0 .85.181 1.55.544 2.08.384.51 1.003.77 1.856.77.555 0 1.067-.17 1.536-.51.491-.35.843-1.09 1.056-2.24l1.696.54zm14.083-.26c-.192 1.22-.8 2.27-1.824 3.14-1.024.85-2.411 1.28-4.16 1.28-2.005 0-3.627-.63-4.864-1.89-1.237-1.26-1.856-3.04-1.856-5.34 0-2.22.587-4.04 1.76-5.47 1.173-1.43 2.763-2.15 4.768-2.15 1.963 0 3.456.62 4.48 1.86 1.024 1.24 1.547 2.7 1.568 4.38 0 .56-.064 1.12-.192 1.7h-10.016c.128 3.33 1.632 4.99 4.512 4.99 1.131 0 2.016-.27 2.656-.8.64-.53 1.067-1.24 1.28-2.11l1.888.41zm-2.496-4.16c.107-1.06-.149-2.07-.768-3-.597-.94-1.589-1.41-2.976-1.41-1.323 0-2.293.44-2.912 1.31-.619.87-1.003 1.91-1.152 3.1h7.808zm10.007-14.72h2.144c-3.541 4.51-5.312 9.28-5.312 14.34 0 2.47.438 4.96 1.312 7.46.896 2.49 2.23 4.84 4 7.04h-2.208c-1.77-2.35-3.061-4.74-3.872-7.17-.81-2.46-1.216-4.9-1.216-7.33 0-2.47.416-4.92 1.248-7.33.854-2.41 2.155-4.74 3.904-7.01zm12 28.84h-2.144c3.541-4.51 5.312-9.28 5.312-14.34 0-2.47-.448-4.95-1.344-7.42-.875-2.5-2.198-4.86-3.968-7.08h2.208c1.77 2.35 3.061 4.75 3.872 7.2.81 2.44 1.216 4.87 1.216 7.3 0 2.45-.427 4.89-1.28 7.3-.832 2.41-2.123 4.75-3.872 7.04z" fill="#000"/><rect x="1003.5" y="910.5" width="85" height="51" rx="6.5" fill="#FFF7CE" stroke="#C4AC32" stroke-width="3"/><rect x="1099.5" y="910.5" width="120" height="51" rx="6.5" fill="#FFF7CE" stroke="#C4AC32" stroke-width="3"/><rect x="838.5" y="910.5" width="113" height="51" rx="9.5" fill="#F8BEE0" stroke="#B828C5" stroke-width="3"/><path d="M755.864 951.816h-7.776v-1.824h3.328v-7.904a6.514 6.514 0 0 1-1.856 2.272c-.811.64-1.888.96-3.232.96-1.771 0-3.232-.608-4.384-1.824-1.152-1.216-1.728-2.955-1.728-5.216 0-1.237.213-2.453.64-3.648.427-1.216 1.109-2.208 2.048-2.976.939-.789 2.155-1.184 3.648-1.184 1.109 0 2.112.245 3.008.736.917.469 1.6 1.141 2.048 2.016l.128-1.216c.043-.427.107-.843.192-1.248h2.24a27.903 27.903 0 0 0-.352 2.208 18.947 18.947 0 0 0-.128 2.208v14.816h2.176zm-4.448-13.12v-2.144c0-1.195-.437-2.187-1.312-2.976-.853-.789-1.877-1.184-3.072-1.184-1.557 0-2.688.576-3.392 1.728-.704 1.152-1.056 2.464-1.056 3.936 0 1.771.416 3.104 1.248 4 .832.896 1.845 1.344 3.04 1.344 1.344 0 2.421-.512 3.232-1.536.832-1.045 1.269-2.101 1.312-3.168zm22.15 6.304h-4.8v-2.688a5.41 5.41 0 0 1-1.984 2.176c-.854.555-1.846.832-2.976.832-1.387 0-2.56-.427-3.52-1.28-.939-.875-1.408-2.261-1.408-4.16v-7.296h-2.496v-1.824h4.736v8.48c0 1.536.32 2.613.96 3.232.64.619 1.461.928 2.464.928 1.216 0 2.208-.459 2.976-1.376.789-.917 1.205-1.888 1.248-2.912v-6.528h-2.976v-1.824h5.216v12.416h2.56zm14.385-4.096c-.192 1.216-.8 2.261-1.824 3.136-1.024.853-2.41 1.28-4.16 1.28-2.005 0-3.626-.629-4.864-1.888-1.237-1.259-1.856-3.04-1.856-5.344 0-2.219.587-4.043 1.76-5.472 1.174-1.429 2.763-2.144 4.768-2.144 1.963 0 3.456.619 4.48 1.856 1.024 1.237 1.547 2.699 1.568 4.384 0 .555-.064 1.12-.192 1.696h-10.016c.128 3.328 1.632 4.992 4.512 4.992 1.131 0 2.016-.267 2.656-.8.64-.533 1.067-1.237 1.28-2.112zm-2.496-4.16c.107-1.067-.149-2.069-.768-3.008-.597-.939-1.589-1.408-2.976-1.408-1.322 0-2.293.437-2.912 1.312-.618.875-1.002 1.909-1.152 3.104zm12.696-6.24c1.024 0 1.834.245 2.432.736l.544 3.584-1.824.224-.544-2.432a3.255 3.255 0 0 0-1.088-.192c-.832 0-1.526.352-2.08 1.056-.555.683-.832 1.579-.832 2.688v7.008h3.296V945h-8.032v-1.824h2.496v-10.592h-2.56v-1.824h4.672v2.56a4.566 4.566 0 0 1 1.344-1.984c.64-.555 1.365-.832 2.176-.832zm20.413 2.08h-1.696L811.844 945l-1.92 4.992h2.432v1.824h-7.232v-1.824h2.656l1.856-5.024-5.184-12.384h-1.696v-1.824h6.592v1.824h-2.496l4 9.568h.192l3.552-9.568h-2.304v-1.824h6.272zm9.437 19.232V921h5.664v1.664h-3.649v27.488h3.649v1.664zM865.676 945h-15.488v-2.048h2.624v-16.704h-2.624V924.2h15.2l.64 5.888-2.048.224-.64-4.064h-8.192v7.168h9.824v2.048h-9.824v7.488h8.48l.64-4.064 2.016.224zm20.028 0h-7.2v-1.824h2.464v-6.624c0-1.536-.309-2.613-.928-3.232-.618-.64-1.408-.96-2.368-.96-1.28 0-2.314.427-3.104 1.28-.768.832-1.173 1.792-1.216 2.88v6.656h2.496V945h-7.232v-1.824h2.496v-10.592h-2.56v-1.824h4.8v2.528c1.024-1.877 2.688-2.816 4.992-2.816 1.387 0 2.55.427 3.488 1.28.939.853 1.408 2.229 1.408 4.128v7.296h2.464zm14.216-4.096c-.192 1.216-.8 2.261-1.824 3.136-1.024.853-2.411 1.28-4.16 1.28-2.005 0-3.627-.629-4.864-1.888s-1.856-3.04-1.856-5.344c0-2.219.587-4.043 1.76-5.472 1.173-1.429 2.763-2.144 4.768-2.144 1.963 0 3.456.619 4.48 1.856 1.024 1.237 1.547 2.699 1.568 4.384 0 .555-.064 1.12-.192 1.696h-10.016c.128 3.328 1.632 4.992 4.512 4.992 1.131 0 2.016-.267 2.656-.8.64-.533 1.067-1.237 1.28-2.112zm-2.496-4.16c.107-1.067-.149-2.069-.768-3.008-.597-.939-1.589-1.408-2.976-1.408-1.323 0-2.293.437-2.912 1.312-.619.875-1.003 1.909-1.152 3.104zM928.359 945h-6.816v-1.824h2.08v-6.624c0-1.536-.309-2.613-.928-3.232-.597-.64-1.365-.96-2.304-.96-1.301 0-2.304.491-3.008 1.472-.704.981-1.066 1.92-1.088 2.816v6.528h2.464V945h-6.784v-1.824h2.048v-6.624c0-1.557-.298-2.645-.896-3.264-.597-.619-1.354-.928-2.272-.928-1.322 0-2.336.48-3.04 1.44-.682.939-1.045 1.867-1.088 2.784v6.592h2.624V945h-7.36v-1.824h2.496v-10.592h-2.528v-1.824h4.768v2.656a6.211 6.211 0 0 1 1.888-2.112c.79-.555 1.75-.832 2.88-.832 1.11 0 2.07.277 2.88.832.832.555 1.398 1.419 1.696 2.592a6.024 6.024 0 0 1 1.888-2.464c.854-.64 1.899-.96 3.136-.96 1.366 0 2.496.427 3.392 1.28.918.853 1.376 2.229 1.376 4.128v7.296h2.496zm15.611-12.416h-1.696L937.25 945l-1.92 4.992h2.432v1.824h-7.232v-1.824h2.656l1.856-5.024-5.184-12.384h-1.696v-1.824h6.592v1.824h-2.496l4 9.568h.192l3.552-9.568h-2.304v-1.824h6.272zm20.303 19.232h-5.664v-1.664h3.648v-27.488h-3.648V921h5.664zm11.929-18.464v-1.728h14.624v1.728zm0 7.04v-1.664h14.624v1.664z" fill="#000"/><rect x="1003.5" y="983.5" width="107" height="51" rx="6.5" fill="#FFF7CE" stroke="#C4AC32" stroke-width="3"/><rect x="838.5" y="983.5" width="113" height="51" rx="9.5" fill="#F8BEE0" stroke="#B828C5" stroke-width="3"/><path d="M755.864 1024.82h-7.776v-1.83h3.328v-7.9a6.553 6.553 0 0 1-1.856 2.27c-.811.64-1.888.96-3.232.96-1.771 0-3.232-.61-4.384-1.82-1.152-1.22-1.728-2.96-1.728-5.22 0-1.24.213-2.45.64-3.65.427-1.21 1.109-2.21 2.048-2.97.939-.79 2.155-1.19 3.648-1.19 1.109 0 2.112.25 3.008.74.917.47 1.6 1.14 2.048 2.01l.128-1.21c.043-.43.107-.84.192-1.25h2.24c-.149.75-.267 1.48-.352 2.21a18.88 18.88 0 0 0-.128 2.21v14.81h2.176zm-4.448-13.12v-2.15c0-1.19-.437-2.18-1.312-2.97-.853-.79-1.877-1.19-3.072-1.19-1.557 0-2.688.58-3.392 1.73-.704 1.15-1.056 2.46-1.056 3.94 0 1.77.416 3.1 1.248 4 .832.89 1.845 1.34 3.04 1.34 1.344 0 2.421-.51 3.232-1.54.832-1.04 1.269-2.1 1.312-3.16zm22.15 6.3h-4.8v-2.69c-.448.9-1.11 1.62-1.984 2.18-.854.55-1.846.83-2.976.83-1.387 0-2.56-.43-3.52-1.28-.939-.87-1.408-2.26-1.408-4.16v-7.3h-2.496v-1.82h4.736v8.48c0 1.54.32 2.61.96 3.23.64.62 1.461.93 2.464.93 1.216 0 2.208-.46 2.976-1.38.789-.91 1.205-1.88 1.248-2.91v-6.53h-2.976v-1.82h5.216v12.42h2.56zm14.385-4.1c-.192 1.22-.8 2.27-1.824 3.14-1.024.85-2.41 1.28-4.16 1.28-2.005 0-3.626-.63-4.864-1.89-1.237-1.26-1.856-3.04-1.856-5.34 0-2.22.587-4.04 1.76-5.47 1.174-1.43 2.763-2.15 4.768-2.15 1.963 0 3.456.62 4.48 1.86 1.024 1.24 1.547 2.7 1.568 4.38 0 .56-.064 1.12-.192 1.7h-10.016c.128 3.33 1.632 4.99 4.512 4.99 1.131 0 2.016-.27 2.656-.8.64-.53 1.067-1.24 1.28-2.11zm-2.496-4.16c.107-1.06-.149-2.07-.768-3-.597-.94-1.589-1.41-2.976-1.41-1.322 0-2.293.44-2.912 1.31-.618.87-1.002 1.91-1.152 3.1zm12.696-6.24c1.024 0 1.834.25 2.432.74l.544 3.58-1.824.23-.544-2.43c-.363-.13-.726-.2-1.088-.2-.832 0-1.526.36-2.08 1.06-.555.68-.832 1.58-.832 2.69v7.01h3.296v1.82h-8.032v-1.82h2.496v-10.6h-2.56v-1.82h4.672v2.56a4.53 4.53 0 0 1 1.344-1.98c.64-.56 1.365-.84 2.176-.84zm20.413 2.08h-1.696l-5.024 12.42-1.92 4.99h2.432v1.83h-7.232v-1.83h2.656l1.856-5.02-5.184-12.39h-1.696v-1.82h6.592v1.82h-2.496l4 9.57h.192l3.552-9.57h-2.304v-1.82h6.272zm9.437 19.24V994h5.664v1.664h-3.649v27.486h3.649v1.67zm38.251-21.25c0 2.17-.662 3.84-1.984 4.99-1.323 1.13-3.008 1.7-5.056 1.7h-4.064v5.69h3.584v2.05h-8.544v-2.05h2.624v-16.702h-2.624V997.2h8.832c2.581 0 4.426.629 5.536 1.888 1.13 1.262 1.696 2.752 1.696 4.482zm-2.496.06c0-1.34-.395-2.41-1.184-3.2-.79-.787-2.038-1.182-3.744-1.182h-3.68v8.962h3.776c3.221 0 4.832-1.53 4.832-4.58zm11.335 14.37h-7.232v-1.82h2.496v-18.372h-2.528v-1.824h4.768v20.196h2.496zm3.22-13.15a8.02 8.02 0 0 1 2.368-1.06c.832-.21 1.717-.32 2.656-.32 3.392 0 5.088 1.59 5.088 4.77v6.78c0 1.03.405 1.54 1.216 1.54.362 0 .682-.06.96-.19l.032 1.47c-.576.32-1.195.48-1.856.48-1.686 0-2.55-.96-2.592-2.88v-.06c-.448.76-1.088 1.45-1.92 2.04-.811.6-1.792.9-2.944.9-.939 0-1.899-.29-2.88-.86-.96-.58-1.44-1.63-1.44-3.14 0-1.79.704-2.97 2.112-3.52 1.429-.58 2.944-.86 4.544-.86.426 0 .853.01 1.28.03.448.02.864.05 1.248.09v-1.28c0-1.02-.224-1.85-.672-2.49-.427-.64-1.28-.96-2.56-.96-1.046 0-1.963.19-2.752.57l-.544 2.47-1.856-.23zm7.872 7.81v-1.09c-.406-.02-.832-.06-1.28-.1-.448-.04-.907-.06-1.376-.06-1.067 0-2.038.17-2.912.51-.854.32-1.28 1.03-1.28 2.14 0 .92.288 1.55.864 1.89.576.34 1.173.51 1.792.51.981 0 1.898-.34 2.752-1.02.874-.68 1.354-1.61 1.44-2.78zm20.381-7.08h-1.696l-5.024 12.42-1.92 4.99h2.432v1.83h-7.232v-1.83h2.656l1.856-5.02-5.184-12.39h-1.696v-1.82h6.592v1.82h-2.496l4 9.57h.192l3.552-9.57h-2.304v-1.82h6.272zm13.794 8.32c-.192 1.22-.8 2.27-1.824 3.14-1.024.85-2.411 1.28-4.16 1.28-2.006 0-3.627-.63-4.864-1.89-1.238-1.26-1.856-3.04-1.856-5.34 0-2.22.586-4.04 1.76-5.47 1.173-1.43 2.762-2.15 4.768-2.15 1.962 0 3.456.62 4.48 1.86 1.024 1.24 1.546 2.7 1.568 4.38 0 .56-.064 1.12-.192 1.7h-10.016c.128 3.33 1.632 4.99 4.512 4.99 1.13 0 2.016-.27 2.656-.8.64-.53 1.066-1.24 1.28-2.11zm-2.496-4.16c.106-1.06-.15-2.07-.768-3-.598-.94-1.59-1.41-2.976-1.41-1.323 0-2.294.44-2.912 1.31-.619.87-1.003 1.91-1.152 3.1zm12.695-6.24c1.024 0 1.834.25 2.432.74l.544 3.58-1.824.23-.544-2.43c-.363-.13-.726-.2-1.088-.2-.832 0-1.526.36-2.08 1.06-.555.68-.832 1.58-.832 2.69v7.01h3.296v1.82h-8.032v-1.82h2.496v-10.6h-2.56v-1.82h4.672v2.56a4.53 4.53 0 0 1 1.344-1.98c.64-.56 1.365-.84 2.176-.84zm31.903 21.32h-5.664v-1.67h3.648v-27.486h-3.648V994h5.664zm11.93-18.47v-1.73h14.624v1.73zm0 7.04v-1.66h14.624v1.66zM952.96 856h-7.392v-2.048h2.784l-1.504-4h-8.896l-1.6 4h3.008V856h-7.328v-2.048h1.952l6.816-16.704h-3.328V835.2h5.92l7.456 18.752h2.112V856zm-6.784-7.872-3.584-9.536h-.192l-3.744 9.536h7.52zm17.911 4.032c-.384 2.773-1.888 4.16-4.512 4.16-1.429 0-2.528-.405-3.296-1.216-.747-.811-1.12-1.909-1.12-3.296v-8.256h-2.304v-1.792h2.304v-4.576h2.24v4.576h5.568v1.792h-5.568v7.968c0 .853.181 1.547.544 2.08.384.512 1.003.768 1.856.768.555 0 1.067-.171 1.536-.512.491-.341.843-1.088 1.056-2.24l1.696.544zm11.875 0c-.384 2.773-1.888 4.16-4.512 4.16-1.429 0-2.528-.405-3.296-1.216-.747-.811-1.12-1.909-1.12-3.296v-8.256h-2.304v-1.792h2.304v-4.576h2.24v4.576h5.568v1.792h-5.568v7.968c0 .853.181 1.547.544 2.08.384.512 1.003.768 1.856.768.555 0 1.067-.171 1.536-.512.491-.341.843-1.088 1.056-2.24l1.696.544zm2.755-9.312a7.82 7.82 0 0 1 2.368-1.056c.832-.213 1.717-.32 2.656-.32 3.392 0 5.088 1.589 5.088 4.768v6.784c0 1.024.405 1.536 1.216 1.536.363 0 .683-.064.96-.192l.032 1.472c-.576.32-1.195.48-1.856.48-1.685 0-2.549-.96-2.592-2.88v-.064c-.448.768-1.088 1.451-1.92 2.048-.811.597-1.792.896-2.944.896-.939 0-1.899-.288-2.88-.864-.96-.576-1.44-1.621-1.44-3.136 0-1.792.704-2.965 2.112-3.52a12.04 12.04 0 0 1 4.544-.864c.427 0 .853.011 1.28.032.448.021.864.053 1.248.096v-1.28c0-1.024-.224-1.856-.672-2.496-.427-.64-1.28-.96-2.56-.96-1.045 0-1.963.192-2.752.576l-.544 2.464-1.856-.224.512-3.296zm7.872 7.808v-1.088a29.318 29.318 0 0 1-1.28-.096 14.405 14.405 0 0 0-1.376-.064c-1.067 0-2.037.171-2.912.512-.853.32-1.28 1.035-1.28 2.144 0 .917.288 1.547.864 1.888a3.47 3.47 0 0 0 1.792.512c.981 0 1.899-.341 2.752-1.024.875-.683 1.355-1.611 1.44-2.784zm18.701.544c-.19 1.237-.76 2.4-1.7 3.488-.91 1.088-2.35 1.632-4.316 1.632-1.963 0-3.531-.629-4.704-1.888-1.174-1.28-1.76-3.061-1.76-5.344 0-1.963.554-3.723 1.664-5.28 1.109-1.557 2.773-2.336 4.992-2.336.934 0 1.804.107 2.594.32.79.213 1.54.597 2.27 1.152l.54 3.424-1.85.224-.55-2.4c-.85-.533-1.86-.8-3.036-.8-1.515 0-2.603.544-3.264 1.632-.662 1.088-.992 2.4-.992 3.936 0 1.707.373 3.04 1.12 4 .746.96 1.824 1.44 3.232 1.44 2.13 0 3.41-1.205 3.84-3.616l1.92.416zm17.37 4.8h-6.72v-1.824h2.15l-3.91-4.832h-2.52v4.832h2.04V856h-6.78v-1.824h2.46v-18.368h-2.52v-1.824h4.8v13.632h2.56l3.26-4.032h-2.21v-1.824h6.66v1.824h-2.18l-3.81 4.704 4.71 5.888h2.01V856z" fill="#000"/><rect x="100.5" y="1223.5" width="684" height="222" rx="11.5" fill="#E7F7FB" stroke="#265FB5" stroke-width="3"/><path d="M148.92 1365.9c-.192 1.22-.8 2.27-1.824 3.14-1.024.85-2.411 1.28-4.16 1.28-2.005 0-3.627-.63-4.864-1.89-1.237-1.26-1.856-3.04-1.856-5.34 0-2.22.587-4.04 1.76-5.47 1.173-1.43 2.763-2.15 4.768-2.15 1.963 0 3.456.62 4.48 1.86 1.024 1.24 1.547 2.7 1.568 4.38 0 .56-.064 1.12-.192 1.7h-10.016c.128 3.33 1.632 4.99 4.512 4.99 1.131 0 2.016-.27 2.656-.8.64-.53 1.067-1.24 1.28-2.11l1.888.41zm-2.496-4.16c.107-1.06-.149-2.07-.768-3-.597-.94-1.589-1.41-2.976-1.41-1.323 0-2.293.44-2.912 1.31-.619.87-1.003 1.91-1.152 3.1h7.808zm19.231 8.26h-6.272v-1.82h1.856l-3.328-4.1-3.36 4.1h1.696v1.82h-5.92v-1.82h1.952l4.48-5.28-4.512-5.32h-1.92v-1.82h6.496v1.82h-1.92l3.2 4.04 3.296-4.04h-1.696v-1.82h5.696v1.82h-1.664l-4.448 5.19 4.576 5.41h1.792v1.82zm13.89-4.1c-.192 1.22-.8 2.27-1.824 3.14-1.024.85-2.411 1.28-4.16 1.28-2.005 0-3.627-.63-4.864-1.89-1.237-1.26-1.856-3.04-1.856-5.34 0-2.22.587-4.04 1.76-5.47 1.173-1.43 2.763-2.15 4.768-2.15 1.963 0 3.456.62 4.48 1.86 1.024 1.24 1.547 2.7 1.568 4.38 0 .56-.064 1.12-.192 1.7h-10.016c.128 3.33 1.632 4.99 4.512 4.99 1.131 0 2.016-.27 2.656-.8.64-.53 1.067-1.24 1.28-2.11l1.888.41zm-2.496-4.16c.107-1.06-.149-2.07-.768-3-.597-.94-1.589-1.41-2.976-1.41-1.323 0-2.293.44-2.912 1.31-.619.87-1.003 1.91-1.152 3.1h7.808zm17.303 3.46c-.192 1.24-.757 2.4-1.696 3.49-.917 1.09-2.357 1.63-4.32 1.63-1.962 0-3.53-.63-4.704-1.89-1.173-1.28-1.76-3.06-1.76-5.34 0-1.96.555-3.72 1.664-5.28 1.11-1.56 2.774-2.34 4.992-2.34.939 0 1.803.11 2.592.32.79.22 1.547.6 2.272 1.15l.544 3.43-1.856.22-.544-2.4c-.853-.53-1.866-.8-3.04-.8-1.514 0-2.602.55-3.264 1.63-.661 1.09-.992 2.4-.992 3.94 0 1.71.374 3.04 1.12 4 .747.96 1.824 1.44 3.232 1.44 2.134 0 3.414-1.21 3.84-3.62l1.92.42zm18.558 4.8h-4.8v-2.69c-.448.9-1.11 1.62-1.984 2.18-.854.55-1.846.83-2.976.83-1.387 0-2.56-.43-3.52-1.28-.939-.87-1.408-2.26-1.408-4.16v-7.3h-2.496v-1.82h4.736v8.48c0 1.54.32 2.61.96 3.23.64.62 1.461.93 2.463.93 1.217 0 2.209-.46 2.977-1.38.789-.91 1.205-1.88 1.248-2.91v-6.53h-2.976v-1.82h5.216v12.42h2.56v1.82zm12.177-3.84c-.384 2.77-1.888 4.16-4.512 4.16-1.429 0-2.528-.41-3.296-1.22-.747-.81-1.12-1.91-1.12-3.29v-8.26h-2.304v-1.79h2.304v-4.58h2.24v4.58h5.568v1.79h-5.568v7.97c0 .85.181 1.55.544 2.08.384.51 1.003.77 1.856.77.555 0 1.067-.17 1.536-.51.491-.35.843-1.09 1.056-2.24l1.696.54zm14.083-.26c-.192 1.22-.8 2.27-1.824 3.14-1.024.85-2.411 1.28-4.16 1.28-2.005 0-3.627-.63-4.864-1.89-1.237-1.26-1.856-3.04-1.856-5.34 0-2.22.587-4.04 1.76-5.47 1.173-1.43 2.763-2.15 4.768-2.15 1.963 0 3.456.62 4.48 1.86 1.024 1.24 1.547 2.7 1.568 4.38 0 .56-.064 1.12-.192 1.7h-10.016c.128 3.33 1.632 4.99 4.512 4.99 1.131 0 2.016-.27 2.656-.8.64-.53 1.067-1.24 1.28-2.11l1.888.41zm-2.496-4.16c.107-1.06-.149-2.07-.768-3-.597-.94-1.589-1.41-2.976-1.41-1.323 0-2.293.44-2.912 1.31-.619.87-1.003 1.91-1.152 3.1h7.808zm10.007-14.72h2.144c-3.541 4.51-5.312 9.28-5.312 14.34 0 2.47.438 4.96 1.312 7.46.896 2.49 2.23 4.84 4 7.04h-2.208c-1.77-2.35-3.061-4.74-3.872-7.17-.81-2.46-1.216-4.9-1.216-7.33 0-2.47.416-4.92 1.248-7.33.854-2.41 2.155-4.74 3.904-7.01zm12 28.84h-2.144c3.541-4.51 5.312-9.28 5.312-14.34 0-2.47-.448-4.95-1.344-7.42-.875-2.5-2.198-4.86-3.968-7.08h2.208c1.77 2.35 3.061 4.75 3.872 7.2.81 2.44 1.216 4.87 1.216 7.3 0 2.45-.427 4.89-1.28 7.3-.832 2.41-2.123 4.75-3.872 7.04z" fill="#000"/><rect x="425.5" y="1261.5" width="85" height="51" rx="6.5" fill="#FFF7CE" stroke="#C4AC32" stroke-width="3"/><rect x="521.5" y="1261.5" width="120" height="51" rx="6.5" fill="#FFF7CE" stroke="#C4AC32" stroke-width="3"/><rect x="650.5" y="1261.5" width="109" height="51" rx="6.5" fill="#FFF7CE" stroke="#C4AC32" stroke-width="3"/><rect x="234.5" y="1261.5" width="139" height="51" rx="9.5" fill="#F8BEE0" stroke="#B828C5" stroke-width="3"/><path d="M151.864 1302.82h-7.776v-1.83h3.328v-7.9a6.553 6.553 0 0 1-1.856 2.27c-.811.64-1.888.96-3.232.96-1.771 0-3.232-.61-4.384-1.82-1.152-1.22-1.728-2.96-1.728-5.22 0-1.24.213-2.45.64-3.65.427-1.21 1.109-2.21 2.048-2.97.939-.79 2.155-1.19 3.648-1.19 1.109 0 2.112.25 3.008.74.917.47 1.6 1.14 2.048 2.01l.128-1.21c.043-.43.107-.84.192-1.25h2.24c-.149.75-.267 1.48-.352 2.21a18.88 18.88 0 0 0-.128 2.21v14.81h2.176zm-4.448-13.12v-2.15c0-1.19-.437-2.18-1.312-2.97-.853-.79-1.877-1.19-3.072-1.19-1.557 0-2.688.58-3.392 1.73-.704 1.15-1.056 2.46-1.056 3.94 0 1.77.416 3.1 1.248 4 .832.89 1.845 1.34 3.04 1.34 1.344 0 2.421-.51 3.232-1.54.832-1.04 1.269-2.1 1.312-3.16zm22.15 6.3h-4.8v-2.69c-.448.9-1.11 1.62-1.984 2.18-.854.55-1.846.83-2.976.83-1.387 0-2.56-.43-3.52-1.28-.939-.87-1.408-2.26-1.408-4.16v-7.3h-2.496v-1.82h4.736v8.48c0 1.54.32 2.61.96 3.23.64.62 1.461.93 2.464.93 1.216 0 2.208-.46 2.976-1.38.789-.91 1.205-1.88 1.248-2.91v-6.53h-2.976v-1.82h5.216v12.42h2.56zm14.385-4.1c-.192 1.22-.8 2.27-1.824 3.14-1.024.85-2.41 1.28-4.16 1.28-2.005 0-3.626-.63-4.864-1.89-1.237-1.26-1.856-3.04-1.856-5.34 0-2.22.587-4.04 1.76-5.47 1.174-1.43 2.763-2.15 4.768-2.15 1.963 0 3.456.62 4.48 1.86 1.024 1.24 1.547 2.7 1.568 4.38 0 .56-.064 1.12-.192 1.7h-10.016c.128 3.33 1.632 4.99 4.512 4.99 1.131 0 2.016-.27 2.656-.8.64-.53 1.067-1.24 1.28-2.11zm-2.496-4.16c.107-1.06-.149-2.07-.768-3-.597-.94-1.589-1.41-2.976-1.41-1.322 0-2.293.44-2.912 1.31-.618.87-1.002 1.91-1.152 3.1zm12.696-6.24c1.024 0 1.834.25 2.432.74l.544 3.58-1.824.23-.544-2.43c-.363-.13-.726-.2-1.088-.2-.832 0-1.526.36-2.08 1.06-.555.68-.832 1.58-.832 2.69v7.01h3.296v1.82h-8.032v-1.82h2.496v-10.6h-2.56v-1.82h4.672v2.56a4.53 4.53 0 0 1 1.344-1.98c.64-.56 1.365-.84 2.176-.84zm20.413 2.08h-1.696l-5.024 12.42-1.92 4.99h2.432v1.83h-7.232v-1.83h2.656l1.856-5.02-5.184-12.39h-1.696v-1.82h6.592v1.82h-2.496l4 9.57h.192l3.552-9.57h-2.304v-1.82h6.272zm9.437 19.24V1272h5.664v1.66h-3.649v27.49h3.649v1.67zm47.787-25.57h-2.72v16.7h2.592v2.05h-7.392v-2.05h2.432v-13.25h-.128l-6.976 14.24h-1.248l-7.136-14.33h-.128v13.34h2.496v2.05h-7.36v-2.05h2.624v-16.7h-2.72v-2.05h4.768l8.096 16.29h.128l7.872-16.29h4.8zm15.757 11.61c0 2.16-.64 3.94-1.92 5.35-1.28 1.41-3.019 2.11-5.216 2.11-2.155 0-3.851-.68-5.088-2.05-1.216-1.36-1.824-3.12-1.824-5.28 0-2.07.597-3.84 1.792-5.31 1.194-1.49 2.944-2.24 5.247-2.24 2.326 0 4.075.74 5.249 2.21 1.173 1.45 1.76 3.19 1.76 5.21zm-2.368-.03c0-1.62-.416-2.93-1.248-3.93-.811-1.03-1.963-1.54-3.456-1.54-1.494 0-2.646.52-3.457 1.57-.789 1.04-1.183 2.36-1.183 3.93 0 1.56.394 2.87 1.183 3.94.79 1.07 1.942 1.6 3.457 1.6 1.514 0 2.677-.52 3.488-1.57.81-1.06 1.216-2.4 1.216-4zm20.662 7.17h-4.704v-2.88a7.42 7.42 0 0 1-1.92 2.24c-.811.64-1.867.96-3.168.96-1.835 0-3.318-.62-4.448-1.86-1.11-1.25-1.664-2.99-1.664-5.21 0-1.9.49-3.67 1.472-5.31.981-1.65 2.634-2.47 4.96-2.47 2.218 0 3.808.87 4.768 2.59v-8.25h-3.456v-1.83h5.696v20.2h2.464zm-4.704-6.3v-2.28c-.043-1.19-.48-2.16-1.312-2.91a4.296 4.296 0 0 0-2.944-1.12c-1.579 0-2.742.58-3.488 1.73-.726 1.15-1.088 2.47-1.088 3.97 0 1.75.405 3.07 1.216 3.97.832.89 1.866 1.34 3.104 1.34 1.28 0 2.336-.51 3.168-1.54.853-1.04 1.301-2.1 1.344-3.16zm19.066 2.2c-.192 1.22-.8 2.27-1.824 3.14-1.024.85-2.41 1.28-4.16 1.28-2.005 0-3.626-.63-4.864-1.89-1.237-1.26-1.856-3.04-1.856-5.34 0-2.22.587-4.04 1.76-5.47 1.174-1.43 2.763-2.15 4.768-2.15 1.963 0 3.456.62 4.48 1.86 1.024 1.24 1.547 2.7 1.568 4.38 0 .56-.064 1.12-.192 1.7h-10.016c.128 3.33 1.632 4.99 4.512 4.99 1.131 0 2.016-.27 2.656-.8.64-.53 1.067-1.24 1.28-2.11zm-2.496-4.16c.107-1.06-.149-2.07-.768-3-.597-.94-1.589-1.41-2.976-1.41-1.322 0-2.293.44-2.912 1.31-.618.87-1.002 1.91-1.152 3.1zm11.48 8.26h-7.232v-1.82h2.496v-18.37h-2.528v-1.83h4.768v20.2h2.496zm2.739-15.33c.598-.4 1.377-.78 2.337-1.12a8.847 8.847 0 0 1 3.072-.54c1.685 0 3.072.44 4.16 1.31 1.109.87 1.664 2.13 1.664 3.78 0 1.04-.299 2.01-.896 2.91-.576.87-1.611 1.54-3.104 2.01v.13c1.898.32 3.189.97 3.872 1.95a5.666 5.666 0 0 1 1.024 3.3c0 1.86-.608 3.34-1.824 4.45-1.195 1.11-2.838 1.66-4.928 1.66-1.963 0-3.456-.44-4.48-1.31-1.024-.87-1.664-1.94-1.92-3.2l1.824-.64a5.33 5.33 0 0 0 1.472 2.21c.682.62 1.696.93 3.04.93 1.706 0 2.848-.44 3.424-1.32.597-.87.896-1.84.896-2.91 0-1.26-.448-2.24-1.344-2.94-.896-.71-2.464-1.09-4.704-1.15v-1.73c2.005-.09 3.37-.56 4.096-1.41.725-.87 1.088-1.76 1.088-2.66 0-1.04-.342-1.86-1.024-2.46-.662-.6-1.59-.9-2.784-.9-1.046 0-2.07.27-3.073.8l-.575 2.6-1.856-.23zm34.825 4.9c0 3.05-.939 5.56-2.816 7.52-1.856 1.94-4.427 2.91-7.712 2.91h-9.408v-2.02h2.624v-16.76h-2.624v-2.02h9.312c3.392 0 6.005.98 7.84 2.94 1.856 1.95 2.784 4.42 2.784 7.43zm-2.496.03c0-2.52-.704-4.54-2.112-6.08-1.387-1.54-3.403-2.3-6.048-2.3h-4.32v16.76h4.32c2.645 0 4.661-.74 6.048-2.24 1.408-1.51 2.112-3.56 2.112-6.14zm24.582 17.22h-5.664v-1.67h3.648v-27.49h-3.648V1272h5.664zm11.93-18.47v-1.73h14.624v1.73zm0 7.04v-1.66h14.624v1.66zM425.593 1196.57c0 3.05-.939 5.56-2.816 7.52-1.856 1.94-4.427 2.91-7.712 2.91h-9.408v-2.02h2.624v-16.76h-2.624v-2.02h9.312c3.392 0 6.005.98 7.84 2.94 1.856 1.95 2.784 4.42 2.784 7.43zm-2.496.03c0-2.52-.704-4.54-2.112-6.08-1.387-1.54-3.403-2.3-6.048-2.3h-4.32v16.76h4.32c2.645 0 4.661-.74 6.048-2.24 1.408-1.51 2.112-3.56 2.112-6.14zm12.866-4.1c1.024 0 1.835.25 2.432.74l.544 3.58-1.824.23-.544-2.43c-.363-.13-.725-.2-1.088-.2-.832 0-1.525.36-2.08 1.06-.555.68-.832 1.58-.832 2.69v7.01h3.296v1.82h-8.032v-1.82h2.496v-10.6h-2.56v-1.82h4.672v2.56a4.53 4.53 0 0 1 1.344-1.98c.64-.56 1.365-.84 2.176-.84zm6.942 1.35a8.02 8.02 0 0 1 2.368-1.06c.832-.21 1.717-.32 2.656-.32 3.392 0 5.088 1.59 5.088 4.77v6.78c0 1.03.405 1.54 1.216 1.54.362 0 .682-.06.96-.19l.032 1.47c-.576.32-1.195.48-1.856.48-1.686 0-2.55-.96-2.592-2.88v-.06c-.448.76-1.088 1.45-1.92 2.04-.811.6-1.792.9-2.944.9-.939 0-1.899-.29-2.88-.86-.96-.58-1.44-1.63-1.44-3.14 0-1.79.704-2.97 2.112-3.52 1.429-.58 2.944-.86 4.544-.86.426 0 .853.01 1.28.03.448.02.864.05 1.248.09v-1.28c0-1.02-.224-1.85-.672-2.49-.427-.64-1.28-.96-2.56-.96-1.046 0-1.963.19-2.752.57l-.544 2.47-1.856-.23.512-3.29zm7.872 7.81v-1.09c-.406-.02-.832-.06-1.28-.1-.448-.04-.907-.06-1.376-.06-1.067 0-2.038.17-2.912.51-.854.32-1.28 1.03-1.28 2.14 0 .92.288 1.55.864 1.89.576.34 1.173.51 1.792.51.981 0 1.898-.34 2.752-1.02.874-.68 1.354-1.61 1.44-2.78zm28.603-7.08h-1.632l-4.192 12.42h-1.728l-4.352-10.88h-.16L463.06 1207h-1.664l-4.352-12.42h-1.568v-1.82h6.72v1.82h-2.72l2.976 9h.16l4.224-10.82h1.504l4.448 10.82h.16l2.624-9h-2.592v-1.82h6.4v1.82z" fill="#000"/><rect x="704.5" y="548.5" width="545" height="222" rx="11.5" fill="#E7F7FB" stroke="#265FB5" stroke-width="3"/><path d="M752.92 690.904c-.192 1.216-.8 2.261-1.824 3.136-1.024.853-2.411 1.28-4.16 1.28-2.005 0-3.627-.629-4.864-1.888s-1.856-3.04-1.856-5.344c0-2.219.587-4.043 1.76-5.472 1.173-1.429 2.763-2.144 4.768-2.144 1.963 0 3.456.619 4.48 1.856 1.024 1.237 1.547 2.699 1.568 4.384 0 .555-.064 1.12-.192 1.696h-10.016c.128 3.328 1.632 4.992 4.512 4.992 1.131 0 2.016-.267 2.656-.8.64-.533 1.067-1.237 1.28-2.112l1.888.416zm-2.496-4.16c.107-1.067-.149-2.069-.768-3.008-.597-.939-1.589-1.408-2.976-1.408-1.323 0-2.293.437-2.912 1.312-.619.875-1.003 1.909-1.152 3.104h7.808zM769.655 695h-6.272v-1.824h1.856l-3.328-4.096-3.36 4.096h1.696V695h-5.92v-1.824h1.952l4.48-5.28-4.512-5.312h-1.92v-1.824h6.496v1.824h-1.92l3.2 4.032 3.296-4.032h-1.696v-1.824h5.696v1.824h-1.664l-4.448 5.184 4.576 5.408h1.792V695zm13.89-4.096c-.192 1.216-.8 2.261-1.824 3.136-1.024.853-2.411 1.28-4.16 1.28-2.005 0-3.627-.629-4.864-1.888s-1.856-3.04-1.856-5.344c0-2.219.587-4.043 1.76-5.472 1.173-1.429 2.763-2.144 4.768-2.144 1.963 0 3.456.619 4.48 1.856 1.024 1.237 1.547 2.699 1.568 4.384 0 .555-.064 1.12-.192 1.696h-10.016c.128 3.328 1.632 4.992 4.512 4.992 1.131 0 2.016-.267 2.656-.8.64-.533 1.067-1.237 1.28-2.112l1.888.416zm-2.496-4.16c.107-1.067-.149-2.069-.768-3.008-.597-.939-1.589-1.408-2.976-1.408-1.323 0-2.293.437-2.912 1.312-.619.875-1.003 1.909-1.152 3.104h7.808zm17.303 3.456c-.192 1.237-.757 2.4-1.696 3.488-.917 1.088-2.357 1.632-4.32 1.632-1.962 0-3.53-.629-4.704-1.888-1.173-1.28-1.76-3.061-1.76-5.344 0-1.963.555-3.723 1.664-5.28 1.11-1.557 2.774-2.336 4.992-2.336.939 0 1.803.107 2.592.32.79.213 1.547.597 2.272 1.152l.544 3.424-1.856.224-.544-2.4c-.853-.533-1.866-.8-3.04-.8-1.514 0-2.602.544-3.264 1.632-.661 1.088-.992 2.4-.992 3.936 0 1.707.374 3.04 1.12 4 .747.96 1.824 1.44 3.232 1.44 2.134 0 3.414-1.205 3.84-3.616l1.92.416zm18.558 4.8h-4.8v-2.688a5.41 5.41 0 0 1-1.984 2.176c-.854.555-1.846.832-2.976.832-1.387 0-2.56-.427-3.52-1.28-.939-.875-1.408-2.261-1.408-4.16v-7.296h-2.496v-1.824h4.736v8.48c0 1.536.32 2.613.96 3.232.64.619 1.461.928 2.463.928 1.217 0 2.209-.459 2.977-1.376.789-.917 1.205-1.888 1.248-2.912v-6.528h-2.976v-1.824h5.216v12.416h2.56V695zm12.177-3.84c-.384 2.773-1.888 4.16-4.512 4.16-1.429 0-2.528-.405-3.296-1.216-.747-.811-1.12-1.909-1.12-3.296v-8.256h-2.304v-1.792h2.304v-4.576h2.24v4.576h5.568v1.792h-5.568v7.968c0 .853.181 1.547.544 2.08.384.512 1.003.768 1.856.768.555 0 1.067-.171 1.536-.512.491-.341.843-1.088 1.056-2.24l1.696.544zm14.083-.256c-.192 1.216-.8 2.261-1.824 3.136-1.024.853-2.411 1.28-4.16 1.28-2.005 0-3.627-.629-4.864-1.888s-1.856-3.04-1.856-5.344c0-2.219.587-4.043 1.76-5.472 1.173-1.429 2.763-2.144 4.768-2.144 1.963 0 3.456.619 4.48 1.856 1.024 1.237 1.547 2.699 1.568 4.384 0 .555-.064 1.12-.192 1.696h-10.016c.128 3.328 1.632 4.992 4.512 4.992 1.131 0 2.016-.267 2.656-.8.64-.533 1.067-1.237 1.28-2.112l1.888.416zm-2.496-4.16c.107-1.067-.149-2.069-.768-3.008-.597-.939-1.589-1.408-2.976-1.408-1.323 0-2.293.437-2.912 1.312-.619.875-1.003 1.909-1.152 3.104h7.808zm10.007-14.72h2.144c-3.541 4.501-5.312 9.28-5.312 14.336 0 2.475.438 4.96 1.312 7.456.896 2.496 2.23 4.843 4 7.04h-2.208c-1.77-2.347-3.061-4.736-3.872-7.168-.81-2.453-1.216-4.896-1.216-7.328 0-2.475.416-4.917 1.248-7.328.854-2.411 2.155-4.747 3.904-7.008zm12 28.832h-2.144c3.541-4.501 5.312-9.28 5.312-14.336 0-2.475-.448-4.949-1.344-7.424-.875-2.496-2.198-4.853-3.968-7.072h2.208c1.77 2.347 3.061 4.747 3.872 7.2.81 2.432 1.216 4.864 1.216 7.296 0 2.453-.427 4.885-1.28 7.296-.832 2.411-2.123 4.757-3.872 7.04z" fill="#000"/><rect x="976.5" y="586.5" width="124" height="51" rx="6.5" fill="#FFF7CE" stroke="#C4AC32" stroke-width="3"/><rect x="838.5" y="586.5" width="87" height="51" rx="9.5" fill="#F8BEE0" stroke="#B828C5" stroke-width="3"/><path d="M755.864 627.816h-7.776v-1.824h3.328v-7.904a6.514 6.514 0 0 1-1.856 2.272c-.811.64-1.888.96-3.232.96-1.771 0-3.232-.608-4.384-1.824-1.152-1.216-1.728-2.955-1.728-5.216 0-1.237.213-2.453.64-3.648.427-1.216 1.109-2.208 2.048-2.976.939-.789 2.155-1.184 3.648-1.184 1.109 0 2.112.245 3.008.736.917.469 1.6 1.141 2.048 2.016l.128-1.216c.043-.427.107-.843.192-1.248h2.24a27.903 27.903 0 0 0-.352 2.208 18.947 18.947 0 0 0-.128 2.208v14.816h2.176zm-4.448-13.12v-2.144c0-1.195-.437-2.187-1.312-2.976-.853-.789-1.877-1.184-3.072-1.184-1.557 0-2.688.576-3.392 1.728-.704 1.152-1.056 2.464-1.056 3.936 0 1.771.416 3.104 1.248 4 .832.896 1.845 1.344 3.04 1.344 1.344 0 2.421-.512 3.232-1.536.832-1.045 1.269-2.101 1.312-3.168zm22.15 6.304h-4.8v-2.688a5.41 5.41 0 0 1-1.984 2.176c-.854.555-1.846.832-2.976.832-1.387 0-2.56-.427-3.52-1.28-.939-.875-1.408-2.261-1.408-4.16v-7.296h-2.496v-1.824h4.736v8.48c0 1.536.32 2.613.96 3.232.64.619 1.461.928 2.464.928 1.216 0 2.208-.459 2.976-1.376.789-.917 1.205-1.888 1.248-2.912v-6.528h-2.976v-1.824h5.216v12.416h2.56zm14.385-4.096c-.192 1.216-.8 2.261-1.824 3.136-1.024.853-2.41 1.28-4.16 1.28-2.005 0-3.626-.629-4.864-1.888-1.237-1.259-1.856-3.04-1.856-5.344 0-2.219.587-4.043 1.76-5.472 1.174-1.429 2.763-2.144 4.768-2.144 1.963 0 3.456.619 4.48 1.856 1.024 1.237 1.547 2.699 1.568 4.384 0 .555-.064 1.12-.192 1.696h-10.016c.128 3.328 1.632 4.992 4.512 4.992 1.131 0 2.016-.267 2.656-.8.64-.533 1.067-1.237 1.28-2.112zm-2.496-4.16c.107-1.067-.149-2.069-.768-3.008-.597-.939-1.589-1.408-2.976-1.408-1.322 0-2.293.437-2.912 1.312-.618.875-1.002 1.909-1.152 3.104zm12.696-6.24c1.024 0 1.834.245 2.432.736l.544 3.584-1.824.224-.544-2.432a3.255 3.255 0 0 0-1.088-.192c-.832 0-1.526.352-2.08 1.056-.555.683-.832 1.579-.832 2.688v7.008h3.296V621h-8.032v-1.824h2.496v-10.592h-2.56v-1.824h4.672v2.56a4.566 4.566 0 0 1 1.344-1.984c.64-.555 1.365-.832 2.176-.832zm20.413 2.08h-1.696L811.844 621l-1.92 4.992h2.432v1.824h-7.232v-1.824h2.656l1.856-5.024-5.184-12.384h-1.696v-1.824h6.592v1.824h-2.496l4 9.568h.192l3.552-9.568h-2.304v-1.824h6.272zm9.437 19.232V597h5.664v1.664h-3.649v27.488h3.649v1.664zm37.963-21.632-2.112.224-.64-4.16h-8.064v8.096h9.568v2.048h-9.568v6.56h3.68V621h-8.64v-2.048h2.624v-16.704h-2.624V600.2h15.104zM874.56 621h-7.232v-1.824h2.496v-18.368h-2.528v-1.824h4.768v20.192h2.496zm16.285-12.416h-1.696L884.125 621l-1.92 4.992h2.432v1.824h-7.232v-1.824h2.656l1.856-5.024-5.184-12.384h-1.696v-1.824h6.592v1.824h-2.496l4 9.568h.192l3.552-9.568h-2.304v-1.824h6.272zm13.794 8.32c-.192 1.216-.8 2.261-1.824 3.136-1.024.853-2.411 1.28-4.16 1.28-2.006 0-3.627-.629-4.864-1.888-1.238-1.259-1.856-3.04-1.856-5.344 0-2.219.586-4.043 1.76-5.472 1.173-1.429 2.762-2.144 4.768-2.144 1.962 0 3.456.619 4.48 1.856 1.024 1.237 1.546 2.699 1.568 4.384 0 .555-.064 1.12-.192 1.696h-10.016c.128 3.328 1.632 4.992 4.512 4.992 1.13 0 2.016-.267 2.656-.8.64-.533 1.066-1.237 1.28-2.112zm-2.496-4.16c.106-1.067-.15-2.069-.768-3.008-.598-.939-1.59-1.408-2.976-1.408-1.323 0-2.294.437-2.912 1.312-.619.875-1.003 1.909-1.152 3.104zm12.695-6.24c1.024 0 1.835.245 2.432.736l.544 3.584-1.824.224-.544-2.432a3.25 3.25 0 0 0-1.088-.192c-.832 0-1.525.352-2.08 1.056-.555.683-.832 1.579-.832 2.688v7.008h3.296V621h-8.032v-1.824h2.496v-10.592h-2.56v-1.824h4.672v2.56a4.566 4.566 0 0 1 1.344-1.984c.64-.555 1.365-.832 2.176-.832zm24.654 21.312h-5.664v-1.664h3.648v-27.488h-3.648V597h5.664zm11.929-18.464v-1.728h14.624v1.728zm0 7.04v-1.664h14.624v1.664zM973.479 517.184l-2.112.224-.64-4.16h-8.064v8.096h9.568v2.048h-9.568v6.56h3.68V532h-8.64v-2.048h2.624v-16.704h-2.624V511.2h15.104l.672 5.984zM982.075 532h-7.232v-1.824h2.496v-18.368h-2.528v-1.824h4.768v20.192h2.496V532zm16.286-12.416h-1.696L991.641 532l-1.92 4.992h2.432v1.824h-7.232v-1.824h2.656l1.856-5.024-5.184-12.384h-1.696v-1.824h6.592v1.824h-2.496l4 9.568h.192l3.552-9.568h-2.304v-1.824h6.272v1.824z" fill="#000"/><rect x="100.5" y="873.5" width="545" height="257" rx="11.5" fill="#E7F7FB" stroke="#265FB5" stroke-width="3"/><path d="M148.92 1015.9c-.192 1.22-.8 2.27-1.824 3.14-1.024.85-2.411 1.28-4.16 1.28-2.005 0-3.627-.63-4.864-1.89-1.237-1.26-1.856-3.04-1.856-5.34 0-2.22.587-4.04 1.76-5.47 1.173-1.43 2.763-2.15 4.768-2.15 1.963 0 3.456.62 4.48 1.86 1.024 1.24 1.547 2.7 1.568 4.38 0 .56-.064 1.12-.192 1.7h-10.016c.128 3.33 1.632 4.99 4.512 4.99 1.131 0 2.016-.27 2.656-.8.64-.53 1.067-1.24 1.28-2.11l1.888.41zm-2.496-4.16c.107-1.06-.149-2.07-.768-3-.597-.94-1.589-1.41-2.976-1.41-1.323 0-2.293.44-2.912 1.31-.619.87-1.003 1.91-1.152 3.1h7.808zm19.231 8.26h-6.272v-1.82h1.856l-3.328-4.1-3.36 4.1h1.696v1.82h-5.92v-1.82h1.952l4.48-5.28-4.512-5.32h-1.92v-1.82h6.496v1.82h-1.92l3.2 4.04 3.296-4.04h-1.696v-1.82h5.696v1.82h-1.664l-4.448 5.19 4.576 5.41h1.792v1.82zm13.89-4.1c-.192 1.22-.8 2.27-1.824 3.14-1.024.85-2.411 1.28-4.16 1.28-2.005 0-3.627-.63-4.864-1.89-1.237-1.26-1.856-3.04-1.856-5.34 0-2.22.587-4.04 1.76-5.47 1.173-1.43 2.763-2.15 4.768-2.15 1.963 0 3.456.62 4.48 1.86 1.024 1.24 1.547 2.7 1.568 4.38 0 .56-.064 1.12-.192 1.7h-10.016c.128 3.33 1.632 4.99 4.512 4.99 1.131 0 2.016-.27 2.656-.8.64-.53 1.067-1.24 1.28-2.11l1.888.41zm-2.496-4.16c.107-1.06-.149-2.07-.768-3-.597-.94-1.589-1.41-2.976-1.41-1.323 0-2.293.44-2.912 1.31-.619.87-1.003 1.91-1.152 3.1h7.808zm17.303 3.46c-.192 1.24-.757 2.4-1.696 3.49-.917 1.09-2.357 1.63-4.32 1.63-1.962 0-3.53-.63-4.704-1.89-1.173-1.28-1.76-3.06-1.76-5.34 0-1.96.555-3.72 1.664-5.28 1.11-1.56 2.774-2.34 4.992-2.34.939 0 1.803.11 2.592.32.79.22 1.547.6 2.272 1.15l.544 3.43-1.856.22-.544-2.4c-.853-.53-1.866-.8-3.04-.8-1.514 0-2.602.55-3.264 1.63-.661 1.09-.992 2.4-.992 3.94 0 1.71.374 3.04 1.12 4 .747.96 1.824 1.44 3.232 1.44 2.134 0 3.414-1.21 3.84-3.62l1.92.42zm18.558 4.8h-4.8v-2.69c-.448.9-1.11 1.62-1.984 2.18-.854.55-1.846.83-2.976.83-1.387 0-2.56-.43-3.52-1.28-.939-.87-1.408-2.26-1.408-4.16v-7.3h-2.496v-1.82h4.736v8.48c0 1.54.32 2.61.96 3.23.64.62 1.461.93 2.463.93 1.217 0 2.209-.46 2.977-1.38.789-.91 1.205-1.88 1.248-2.91v-6.53h-2.976v-1.82h5.216v12.42h2.56v1.82zm12.177-3.84c-.384 2.77-1.888 4.16-4.512 4.16-1.429 0-2.528-.41-3.296-1.22-.747-.81-1.12-1.91-1.12-3.29v-8.26h-2.304v-1.79h2.304v-4.58h2.24v4.58h5.568v1.79h-5.568v7.97c0 .85.181 1.55.544 2.08.384.51 1.003.77 1.856.77.555 0 1.067-.17 1.536-.51.491-.35.843-1.09 1.056-2.24l1.696.54zm14.083-.26c-.192 1.22-.8 2.27-1.824 3.14-1.024.85-2.411 1.28-4.16 1.28-2.005 0-3.627-.63-4.864-1.89-1.237-1.26-1.856-3.04-1.856-5.34 0-2.22.587-4.04 1.76-5.47 1.173-1.43 2.763-2.15 4.768-2.15 1.963 0 3.456.62 4.48 1.86 1.024 1.24 1.547 2.7 1.568 4.38 0 .56-.064 1.12-.192 1.7h-10.016c.128 3.33 1.632 4.99 4.512 4.99 1.131 0 2.016-.27 2.656-.8.64-.53 1.067-1.24 1.28-2.11l1.888.41zm-2.496-4.16c.107-1.06-.149-2.07-.768-3-.597-.94-1.589-1.41-2.976-1.41-1.323 0-2.293.44-2.912 1.31-.619.87-1.003 1.91-1.152 3.1h7.808zm10.007-14.716h2.144c-3.541 4.506-5.312 9.276-5.312 14.336 0 2.47.438 4.96 1.312 7.46.896 2.49 2.23 4.84 4 7.04h-2.208c-1.77-2.35-3.061-4.74-3.872-7.17-.81-2.46-1.216-4.9-1.216-7.33 0-2.47.416-4.92 1.248-7.33.854-2.41 2.155-4.745 3.904-7.006zm12 28.836h-2.144c3.541-4.51 5.312-9.28 5.312-14.34 0-2.47-.448-4.95-1.344-7.42-.875-2.5-2.198-4.857-3.968-7.076h2.208c1.77 2.347 3.061 4.746 3.872 7.196.81 2.44 1.216 4.87 1.216 7.3 0 2.45-.427 4.89-1.28 7.3-.832 2.41-2.123 4.75-3.872 7.04z" fill="#000"/><rect x="522.5" y="911.5" width="92" height="51" rx="6.5" fill="#FFF7CE" stroke="#C4AC32" stroke-width="3"/><rect x="234.5" y="911.5" width="113" height="51" rx="9.5" fill="#F8BEE0" stroke="#B828C5" stroke-width="3"/><rect x="358.5" y="911.5" width="113" height="51" rx="9.5" fill="#F8BEE0" stroke="#B828C5" stroke-width="3"/><path d="M151.864 952.816h-7.776v-1.824h3.328v-7.904a6.514 6.514 0 0 1-1.856 2.272c-.811.64-1.888.96-3.232.96-1.771 0-3.232-.608-4.384-1.824-1.152-1.216-1.728-2.955-1.728-5.216 0-1.237.213-2.453.64-3.648.427-1.216 1.109-2.208 2.048-2.976.939-.789 2.155-1.184 3.648-1.184 1.109 0 2.112.245 3.008.736.917.469 1.6 1.141 2.048 2.016l.128-1.216c.043-.427.107-.843.192-1.248h2.24a27.903 27.903 0 0 0-.352 2.208 18.947 18.947 0 0 0-.128 2.208v14.816h2.176zm-4.448-13.12v-2.144c0-1.195-.437-2.187-1.312-2.976-.853-.789-1.877-1.184-3.072-1.184-1.557 0-2.688.576-3.392 1.728-.704 1.152-1.056 2.464-1.056 3.936 0 1.771.416 3.104 1.248 4 .832.896 1.845 1.344 3.04 1.344 1.344 0 2.421-.512 3.232-1.536.832-1.045 1.269-2.101 1.312-3.168zm22.15 6.304h-4.8v-2.688a5.41 5.41 0 0 1-1.984 2.176c-.854.555-1.846.832-2.976.832-1.387 0-2.56-.427-3.52-1.28-.939-.875-1.408-2.261-1.408-4.16v-7.296h-2.496v-1.824h4.736v8.48c0 1.536.32 2.613.96 3.232.64.619 1.461.928 2.464.928 1.216 0 2.208-.459 2.976-1.376.789-.917 1.205-1.888 1.248-2.912v-6.528h-2.976v-1.824h5.216v12.416h2.56zm14.385-4.096c-.192 1.216-.8 2.261-1.824 3.136-1.024.853-2.41 1.28-4.16 1.28-2.005 0-3.626-.629-4.864-1.888-1.237-1.259-1.856-3.04-1.856-5.344 0-2.219.587-4.043 1.76-5.472 1.174-1.429 2.763-2.144 4.768-2.144 1.963 0 3.456.619 4.48 1.856 1.024 1.237 1.547 2.699 1.568 4.384 0 .555-.064 1.12-.192 1.696h-10.016c.128 3.328 1.632 4.992 4.512 4.992 1.131 0 2.016-.267 2.656-.8.64-.533 1.067-1.237 1.28-2.112zm-2.496-4.16c.107-1.067-.149-2.069-.768-3.008-.597-.939-1.589-1.408-2.976-1.408-1.322 0-2.293.437-2.912 1.312-.618.875-1.002 1.909-1.152 3.104zm12.696-6.24c1.024 0 1.834.245 2.432.736l.544 3.584-1.824.224-.544-2.432a3.255 3.255 0 0 0-1.088-.192c-.832 0-1.526.352-2.08 1.056-.555.683-.832 1.579-.832 2.688v7.008h3.296V946h-8.032v-1.824h2.496v-10.592h-2.56v-1.824h4.672v2.56a4.566 4.566 0 0 1 1.344-1.984c.64-.555 1.365-.832 2.176-.832zm20.413 2.08h-1.696L207.844 946l-1.92 4.992h2.432v1.824h-7.232v-1.824h2.656l1.856-5.024-5.184-12.384h-1.696v-1.824h6.592v1.824h-2.496l4 9.568h.192l3.552-9.568h-2.304v-1.824h6.272zm9.437 19.232V922h5.664v1.664h-3.649v27.488h3.649v1.664zM261.676 946h-15.488v-2.048h2.624v-16.704h-2.624V925.2h15.2l.64 5.888-2.048.224-.64-4.064h-8.192v7.168h9.824v2.048h-9.824v7.488h8.48l.64-4.064 2.016.224zm20.028 0h-7.2v-1.824h2.464v-6.624c0-1.536-.309-2.613-.928-3.232-.618-.64-1.408-.96-2.368-.96-1.28 0-2.314.427-3.104 1.28-.768.832-1.173 1.792-1.216 2.88v6.656h2.496V946h-7.232v-1.824h2.496v-10.592h-2.56v-1.824h4.8v2.528c1.024-1.877 2.688-2.816 4.992-2.816 1.387 0 2.55.427 3.488 1.28.939.853 1.408 2.229 1.408 4.128v7.296h2.464zm14.216-4.096c-.192 1.216-.8 2.261-1.824 3.136-1.024.853-2.411 1.28-4.16 1.28-2.005 0-3.627-.629-4.864-1.888s-1.856-3.04-1.856-5.344c0-2.219.587-4.043 1.76-5.472 1.173-1.429 2.763-2.144 4.768-2.144 1.963 0 3.456.619 4.48 1.856 1.024 1.237 1.547 2.699 1.568 4.384 0 .555-.064 1.12-.192 1.696h-10.016c.128 3.328 1.632 4.992 4.512 4.992 1.131 0 2.016-.267 2.656-.8.64-.533 1.067-1.237 1.28-2.112zm-2.496-4.16c.107-1.067-.149-2.069-.768-3.008-.597-.939-1.589-1.408-2.976-1.408-1.323 0-2.293.437-2.912 1.312-.619.875-1.003 1.909-1.152 3.104zM324.359 946h-6.816v-1.824h2.08v-6.624c0-1.536-.309-2.613-.928-3.232-.597-.64-1.365-.96-2.304-.96-1.301 0-2.304.491-3.008 1.472-.704.981-1.066 1.92-1.088 2.816v6.528h2.464V946h-6.784v-1.824h2.048v-6.624c0-1.557-.298-2.645-.896-3.264-.597-.619-1.354-.928-2.272-.928-1.322 0-2.336.48-3.04 1.44-.682.939-1.045 1.867-1.088 2.784v6.592h2.624V946h-7.36v-1.824h2.496v-10.592h-2.528v-1.824h4.768v2.656a6.211 6.211 0 0 1 1.888-2.112c.79-.555 1.75-.832 2.88-.832 1.11 0 2.07.277 2.88.832.832.555 1.398 1.419 1.696 2.592a6.024 6.024 0 0 1 1.888-2.464c.854-.64 1.899-.96 3.136-.96 1.366 0 2.496.427 3.392 1.28.918.853 1.376 2.229 1.376 4.128v7.296h2.496zm15.611-12.416h-1.696L333.25 946l-1.92 4.992h2.432v1.824h-7.232v-1.824h2.656l1.856-5.024-5.184-12.384h-1.696v-1.824h6.592v1.824h-2.496l4 9.568h.192l3.552-9.568h-2.304v-1.824h6.272zm57.164-6.336h-1.76L389.806 946h-1.888l-5.472-16.64h-.128L377.006 946h-1.888l-5.952-18.752h-1.76V925.2h7.2v2.048h-2.944l4.384 14.944h.128l4.8-14.944h-2.08V925.2h7.168v2.048h-2.08l4.864 15.04h.128l4.032-15.04h-3.008V925.2h7.136zm1.333 5.6a7.82 7.82 0 0 1 2.368-1.056c.832-.213 1.717-.32 2.656-.32 3.392 0 5.088 1.589 5.088 4.768v6.784c0 1.024.405 1.536 1.216 1.536.363 0 .683-.064.96-.192l.032 1.472c-.576.32-1.195.48-1.856.48-1.685 0-2.549-.96-2.592-2.88v-.064c-.448.768-1.088 1.451-1.92 2.048-.811.597-1.792.896-2.944.896-.939 0-1.899-.288-2.88-.864-.96-.576-1.44-1.621-1.44-3.136 0-1.792.704-2.965 2.112-3.52a12.04 12.04 0 0 1 4.544-.864c.427 0 .853.011 1.28.032.448.021.864.053 1.248.096v-1.28c0-1.024-.224-1.856-.672-2.496-.427-.64-1.28-.96-2.56-.96-1.045 0-1.963.192-2.752.576l-.544 2.464-1.856-.224zm7.872 7.808v-1.088a29.318 29.318 0 0 1-1.28-.096 14.405 14.405 0 0 0-1.376-.064c-1.067 0-2.037.171-2.912.512-.853.32-1.28 1.035-1.28 2.144 0 .917.288 1.547.864 1.888a3.47 3.47 0 0 0 1.792.512c.981 0 1.899-.341 2.752-1.024.875-.683 1.355-1.611 1.44-2.784zM419.216 946h-7.232v-1.824h2.496v-18.368h-2.528v-1.824h4.768v20.192h2.496zm16.916 0h-6.72v-1.824h2.144l-3.904-4.832h-2.528v4.832h2.048V946h-6.784v-1.824h2.464v-18.368h-2.528v-1.824h4.8v13.632h2.56l3.264-4.032h-2.208v-1.824h6.656v1.824h-2.176l-3.808 4.704 4.704 5.888h2.016zm13.726-4.096c-.192 1.216-.8 2.261-1.824 3.136-1.024.853-2.411 1.28-4.16 1.28-2.006 0-3.627-.629-4.864-1.888-1.238-1.259-1.856-3.04-1.856-5.344 0-2.219.586-4.043 1.76-5.472 1.173-1.429 2.762-2.144 4.768-2.144 1.962 0 3.456.619 4.48 1.856 1.024 1.237 1.546 2.699 1.568 4.384 0 .555-.064 1.12-.192 1.696h-10.016c.128 3.328 1.632 4.992 4.512 4.992 1.13 0 2.016-.267 2.656-.8.64-.533 1.066-1.237 1.28-2.112zm-2.496-4.16c.106-1.067-.15-2.069-.768-3.008-.598-.939-1.59-1.408-2.976-1.408-1.323 0-2.294.437-2.912 1.312-.619.875-1.003 1.909-1.152 3.104zm12.695-6.24c1.024 0 1.834.245 2.432.736l.544 3.584-1.824.224-.544-2.432a3.255 3.255 0 0 0-1.088-.192c-.832 0-1.526.352-2.08 1.056-.555.683-.832 1.579-.832 2.688v7.008h3.296V946h-8.032v-1.824h2.496v-10.592h-2.56v-1.824h4.672v2.56a4.566 4.566 0 0 1 1.344-1.984c.64-.555 1.365-.832 2.176-.832zm24.653 21.312h-5.664v-1.664h3.648v-27.488h-3.648V922h5.664zm11.93-18.464v-1.728h14.624v1.728zm0 7.04v-1.664h14.624v1.664zM335.351 857h-7.392v-2.048h2.784l-1.504-4h-8.896l-1.6 4h3.008V857h-7.328v-2.048h1.952l6.816-16.704h-3.328V836.2h5.92l7.456 18.752h2.112V857zm-6.784-7.872-3.584-9.536h-.192l-3.744 9.536h7.52zM344.069 857h-7.584v-2.048h2.624v-16.704h-2.624V836.2h7.584v2.048h-2.592v16.704h2.592V857zm3.048 2.368h13.824V861h-13.824v-1.632zm45.158-21.12h-1.76L384.947 857h-1.888l-5.472-16.64h-.128L372.147 857h-1.888l-5.952-18.752h-1.76V836.2h7.2v2.048h-2.944l4.384 14.944h.128l4.8-14.944h-2.08V836.2h7.168v2.048h-2.08l4.864 15.04h.128l4.032-15.04h-3.008V836.2h7.136v2.048zm1.333 5.6a7.81 7.81 0 0 1 2.368-1.056c.832-.213 1.717-.32 2.656-.32 3.392 0 5.088 1.589 5.088 4.768v6.784c0 1.024.405 1.536 1.216 1.536.362 0 .682-.064.96-.192l.032 1.472c-.576.32-1.195.48-1.856.48-1.686 0-2.55-.96-2.592-2.88v-.064c-.448.768-1.088 1.451-1.92 2.048-.811.597-1.792.896-2.944.896-.939 0-1.899-.288-2.88-.864-.96-.576-1.44-1.621-1.44-3.136 0-1.792.704-2.965 2.112-3.52a12.04 12.04 0 0 1 4.544-.864c.426 0 .853.011 1.28.032.448.021.864.053 1.248.096v-1.28c0-1.024-.224-1.856-.672-2.496-.427-.64-1.28-.96-2.56-.96-1.046 0-1.963.192-2.752.576l-.544 2.464-1.856-.224.512-3.296zm7.872 7.808v-1.088a29.202 29.202 0 0 1-1.28-.096 14.405 14.405 0 0 0-1.376-.064c-1.067 0-2.038.171-2.912.512-.854.32-1.28 1.035-1.28 2.144 0 .917.288 1.547.864 1.888a3.47 3.47 0 0 0 1.792.512c.981 0 1.898-.341 2.752-1.024.874-.683 1.354-1.611 1.44-2.784zM414.356 857h-7.232v-1.824h2.496v-18.368h-2.528v-1.824h4.768v20.192h2.496V857zm16.916 0h-6.72v-1.824h2.144l-3.904-4.832h-2.528v4.832h2.048V857h-6.784v-1.824h2.464v-18.368h-2.528v-1.824h4.8v13.632h2.56l3.264-4.032h-2.208v-1.824h6.656v1.824h-2.176l-3.808 4.704 4.704 5.888h2.016V857z" fill="#000"/><rect x="1016.5" y="1405.5" width="51" height="30" rx="6.5" fill="#E7F7FB" stroke="#265FB5" stroke-width="3"/><rect x="1016.5" y="1305.5" width="51" height="30" rx="6.5" fill="#FFF7CE" stroke="#C4AC32" stroke-width="3"/><rect x="1016.5" y="1355.5" width="51" height="30" rx="6.5" fill="#F8BEE0" stroke="#B828C5" stroke-width="3"/><path d="M111 101H59v360h52" stroke="#C3AC32" stroke-width="2"/><path d="M111 490H59v982h52" stroke="#265FB5" stroke-width="2"/><text xml:space="preserve" style="font-style:normal;font-variant:normal;font-weight:400;font-stretch:normal;font-size:37.3333px;font-family:'Times New Roman';-inkscape-font-specification:'Times New Roman, ';text-align:start;writing-mode:lr-tb;direction:ltr;text-anchor:start;fill:#000" x="298.701" y="120.993"><tspan x="298.701" y="120.993" style="font-style:normal;font-variant:normal;font-weight:400;font-stretch:normal;font-size:37.3333px;font-family:'Times New Roman';-inkscape-font-specification:'Times New Roman, '">волк</tspan></text><text xml:space="preserve" style="font-style:normal;font-variant:normal;font-weight:400;font-stretch:normal;font-size:37.3333px;font-family:'Times New Roman';-inkscape-font-specification:'Times New Roman, ';text-align:start;writing-mode:lr-tb;direction:ltr;text-anchor:start;fill:#000" x="405.421" y="619.525"><tspan x="405.421" y="619.525" style="font-style:normal;font-variant:normal;font-weight:400;font-stretch:normal;font-size:37.3333px;font-family:'Times New Roman';-inkscape-font-specification:'Times New Roman, '">волк</tspan></text><text xml:space="preserve" style="font-style:normal;font-variant:normal;font-weight:400;font-stretch:normal;font-size:37.3333px;font-family:'Times New Roman';-inkscape-font-specification:'Times New Roman, ';text-align:start;writing-mode:lr-tb;direction:ltr;text-anchor:start;fill:#000" x="531.144" y="946.014"><tspan x="531.144" y="946.014" style="font-style:normal;font-variant:normal;font-weight:400;font-stretch:normal;font-size:37.3333px;font-family:'Times New Roman';-inkscape-font-specification:'Times New Roman, '">волк</tspan></text><text xml:space="preserve" style="font-style:normal;font-variant:normal;font-weight:400;font-stretch:normal;font-size:37.3333px;font-family:'Times New Roman';-inkscape-font-specification:'Times New Roman, ';text-align:start;writing-mode:lr-tb;direction:ltr;text-anchor:start;fill:#000" x="430.792" y="1295.236"><tspan x="430.792" y="1295.236" style="font-style:normal;font-variant:normal;font-weight:400;font-stretch:normal;font-size:37.3333px;font-family:'Times New Roman';-inkscape-font-specification:'Times New Roman, '">волк</tspan></text><text xml:space="preserve" style="font-style:normal;font-variant:normal;font-weight:400;font-stretch:normal;font-size:37.3333px;font-family:'Times New Roman';-inkscape-font-specification:'Times New Roman, ';text-align:start;writing-mode:lr-tb;direction:ltr;text-anchor:start;fill:#000" x="1010.362" y="944.389"><tspan x="1010.362" y="944.389" style="font-style:normal;font-variant:normal;font-weight:400;font-stretch:normal;font-size:37.3333px;font-family:'Times New Roman';-inkscape-font-specification:'Times New Roman, '">волк</tspan></text><text xml:space="preserve" style="font-style:normal;font-variant:normal;font-weight:400;font-stretch:normal;font-size:37.3333px;font-family:'Times New Roman';-inkscape-font-specification:'Times New Roman, ';text-align:start;writing-mode:lr-tb;direction:ltr;text-anchor:start;fill:#000" x="502.416" y="620.02"><tspan x="502.416" y="620.02" style="font-style:normal;font-variant:normal;font-weight:400;font-stretch:normal;font-size:37.3333px;font-family:'Times New Roman';-inkscape-font-specification:'Times New Roman, '">игрок</tspan></text><text xml:space="preserve" style="font-style:normal;font-variant:normal;font-weight:400;font-stretch:normal;font-size:37.3333px;font-family:'Times New Roman';-inkscape-font-specification:'Times New Roman, ';text-align:start;writing-mode:lr-tb;direction:ltr;text-anchor:start;fill:#000" x="1010.682" y="1016.845"><tspan x="1010.682" y="1016.845" style="font-style:normal;font-variant:normal;font-weight:400;font-stretch:normal;font-size:37.3333px;font-family:'Times New Roman';-inkscape-font-specification:'Times New Roman, '">игрок</tspan></text><text xml:space="preserve" style="font-style:normal;font-variant:normal;font-weight:400;font-stretch:normal;font-size:37.3333px;font-family:'Times New Roman';-inkscape-font-specification:'Times New Roman, ';text-align:start;writing-mode:lr-tb;direction:ltr;text-anchor:start;fill:#000" x="657.814" y="1294.635"><tspan x="657.814" y="1294.635" style="font-style:normal;font-variant:normal;font-weight:400;font-stretch:normal;font-size:37.3333px;font-family:'Times New Roman';-inkscape-font-specification:'Times New Roman, '">игрок</tspan></text><text xml:space="preserve" style="font-style:normal;font-variant:normal;font-weight:400;font-stretch:normal;font-size:26.6667px;font-family:'Times New Roman';-inkscape-font-specification:'Times New Roman, ';text-align:start;writing-mode:lr-tb;direction:ltr;text-anchor:start;fill:#000" x="1084.625" y="1429.186"><tspan x="1084.625" y="1429.186" style="font-style:normal;font-variant:normal;font-weight:400;font-stretch:normal;font-size:26.6667px;font-family:'Times New Roman';-inkscape-font-specification:'Times New Roman, '">Система</tspan></text><text xml:space="preserve" style="font-style:normal;font-variant:normal;font-weight:400;font-stretch:normal;font-size:26.6667px;font-family:'Times New Roman';-inkscape-font-specification:'Times New Roman, ';text-align:start;writing-mode:lr-tb;direction:ltr;text-anchor:start;fill:#000" x="1085.131" y="1378.476"><tspan x="1085.131" y="1378.476" style="font-style:normal;font-variant:normal;font-weight:400;font-stretch:normal;font-size:26.6667px;font-family:'Times New Roman';-inkscape-font-specification:'Times New Roman, '">Компонент</tspan></text><text xml:space="preserve" style="font-style:normal;font-variant:normal;font-weight:400;font-stretch:normal;font-size:26.6667px;font-family:'Times New Roman';-inkscape-font-specification:'Times New Roman, ';text-align:start;writing-mode:lr-tb;direction:ltr;text-anchor:start;fill:#000" x="1085.131" y="1328.377"><tspan x="1085.131" y="1328.377" style="font-style:normal;font-variant:normal;font-weight:400;font-stretch:normal;font-size:26.6667px;font-family:'Times New Roman';-inkscape-font-specification:'Times New Roman, '">Сущность</tspan></text><text xml:space="preserve" style="font-style:normal;font-variant:normal;font-weight:400;font-stretch:normal;font-size:37.3333px;font-family:'Times New Roman';-inkscape-font-specification:'Times New Roman, ';text-align:start;writing-mode:lr-tb;direction:ltr;text-anchor:start;fill:#000" x="984.665" y="620.464"><tspan x="984.665" y="620.464" style="font-style:normal;font-variant:normal;font-weight:400;font-stretch:normal;font-size:37.3333px;font-family:'Times New Roman';-inkscape-font-specification:'Times New Roman, '">дракон</tspan></text><text xml:space="preserve" style="font-style:normal;font-variant:normal;font-weight:400;font-stretch:normal;font-size:37.3333px;font-family:'Times New Roman';-inkscape-font-specification:'Times New Roman, ';text-align:start;writing-mode:lr-tb;direction:ltr;text-anchor:start;fill:#000" x="1105.715" y="943.656"><tspan x="1105.715" y="943.656" style="font-style:normal;font-variant:normal;font-weight:400;font-stretch:normal;font-size:37.3333px;font-family:'Times New Roman';-inkscape-font-specification:'Times New Roman, '">дракон</tspan></text><text xml:space="preserve" style="font-style:normal;font-variant:normal;font-weight:400;font-stretch:normal;font-size:37.3333px;font-family:'Times New Roman';-inkscape-font-specification:'Times New Roman, ';text-align:start;writing-mode:lr-tb;direction:ltr;text-anchor:start;fill:#000" x="527.841" y="1294.22"><tspan x="527.841" y="1294.22" style="font-style:normal;font-variant:normal;font-weight:400;font-stretch:normal;font-size:37.3333px;font-family:'Times New Roman';-inkscape-font-specification:'Times New Roman, '">дракон</tspan></text><text xml:space="preserve" style="font-style:normal;font-variant:normal;font-weight:400;font-stretch:normal;font-size:37.3333px;font-family:'Times New Roman';-inkscape-font-specification:'Times New Roman, ';text-align:start;writing-mode:lr-tb;direction:ltr;text-anchor:start;fill:#000" x="609.906" y="120.792"><tspan x="609.906" y="120.792" style="font-style:normal;font-variant:normal;font-weight:400;font-stretch:normal;font-size:37.3333px;font-family:'Times New Roman';-inkscape-font-specification:'Times New Roman, '">дракон</tspan></text><text xml:space="preserve" style="font-style:normal;font-variant:normal;font-weight:400;font-stretch:normal;font-size:37.3333px;font-family:'Times New Roman';-inkscape-font-specification:'Times New Roman, ';text-align:start;writing-mode:lr-tb;direction:ltr;text-anchor:start;fill:#000" x="943.552" y="120.712"><tspan x="943.552" y="120.712" style="font-style:normal;font-variant:normal;font-weight:400;font-stretch:normal;font-size:37.3333px;font-family:'Times New Roman';-inkscape-font-specification:'Times New Roman, '">игрок</tspan></text><text xml:space="preserve" style="font-style:normal;font-variant:normal;font-weight:400;font-stretch:normal;font-size:24px;font-family:sans-serif;-inkscape-font-specification:'sans-serif, Normal';font-variant-ligatures:normal;font-variant-caps:normal;font-variant-numeric:normal;font-variant-east-asian:normal;text-align:start;writing-mode:lr-tb;direction:ltr;text-anchor:start;white-space:pre;inline-size:348.508;display:inline;fill:#20699d;fill-opacity:1" x="276.96" y="780.781" transform="translate(2.836 -85.073)"><tspan x="276.96" y="780.781">Модифицирует компонент </tspan><tspan x="276.96" y="810.781">Walker у игрока и волка.</tspan></text><text xml:space="preserve" style="font-style:normal;font-variant:normal;font-weight:400;font-stretch:normal;font-size:24px;font-family:sans-serif;-inkscape-font-specification:'sans-serif, Normal';font-variant-ligatures:normal;font-variant-caps:normal;font-variant-numeric:normal;font-variant-east-asian:normal;text-align:start;writing-mode:lr-tb;direction:ltr;text-anchor:start;white-space:pre;inline-size:363.213;display:inline;fill:#20699d;fill-opacity:1" x="276.96" y="780.781" transform="translate(-2.332 240.003)"><tspan x="276.96" y="780.781">Имитирует ИИ
</tspan><tspan x="276.96" y="810.781">для перемещения всех </tspan><tspan x="276.96" y="840.781">врагов с компонентом </tspan><tspan x="276.96" y="870.781">Walker.</tspan></text><text xml:space="preserve" style="font-style:normal;font-variant:normal;font-weight:400;font-stretch:normal;font-size:24px;font-family:sans-serif;-inkscape-font-specification:'sans-serif, Normal';font-variant-ligatures:normal;font-variant-caps:normal;font-variant-numeric:normal;font-variant-east-asian:normal;text-align:start;writing-mode:lr-tb;direction:ltr;text-anchor:start;white-space:pre;inline-size:363.213;display:inline;fill:#20699d;fill-opacity:1" x="276.96" y="780.781" transform="translate(604 301.737)"><tspan x="276.96" y="780.781">Получает всех врагов рядом </tspan><tspan x="276.96" y="810.781">с игроком и проводит атаку.</tspan></text><text xml:space="preserve" style="font-style:normal;font-variant:normal;font-weight:400;font-stretch:normal;font-size:24px;font-family:sans-serif;-inkscape-font-specification:'sans-serif, Normal';font-variant-ligatures:normal;font-variant-caps:normal;font-variant-numeric:normal;font-variant-east-asian:normal;text-align:start;writing-mode:lr-tb;direction:ltr;text-anchor:start;white-space:pre;inline-size:500.903;display:inline;fill:#20699d;fill-opacity:1" x="276.96" y="780.781" transform="translate(4.776 589.058)"><tspan x="276.96" y="780.781">Получает все сущности с компонентом </tspan><tspan x="276.96" y="810.781"><tspan style="font-style:italic">Model3D </tspan>и выводит их на экран.</tspan></text><text xml:space="preserve" style="font-style:normal;font-variant:normal;font-weight:400;font-stretch:normal;font-size:24px;font-family:sans-serif;-inkscape-font-specification:'sans-serif, Normal';font-variant-ligatures:normal;font-variant-caps:normal;font-variant-numeric:normal;font-variant-east-asian:normal;text-align:start;writing-mode:lr-tb;direction:ltr;text-anchor:start;white-space:pre;inline-size:348.508;display:inline;fill:#20699d;fill-opacity:1" x="276.96" y="780.781" transform="translate(606.43 -84.976)"><tspan x="276.96" y="780.781">Модифицирует компонент </tspan><tspan x="276.96" y="810.781">Fly у всех драконов.</tspan></text><text xml:space="preserve" style="font-style:normal;font-variant:normal;font-weight:400;font-stretch:normal;font-size:24px;font-family:sans-serif;-inkscape-font-specification:'sans-serif, Normal';font-variant-ligatures:normal;font-variant-caps:normal;font-variant-numeric:normal;font-variant-east-asian:normal;text-align:start;writing-mode:lr-tb;direction:ltr;text-anchor:start;white-space:pre;inline-size:363.213;display:inline;fill:#20699d;fill-opacity:1" x="276.96" y="780.781" transform="translate(-2.332 240.003)"><tspan x="276.96" y="780.781">Имитирует ИИ
</tspan><tspan x="276.96" y="810.781">для перемещения всех </tspan><tspan x="276.96" y="840.781">врагов с компонентом </tspan><tspan x="276.96" y="870.781">Walker.</tspan></text></svg>