<svg width="998" height="411" fill="none" xmlns="http://www.w3.org/2000/svg"><path fill="#ECECEC" d="M0 0h998v411H0z"/><path fill="#fff" d="M0 0h998v411H0z"/><rect x="40.5" y="75.5" width="251" height="295" rx="27.5" fill="#FFF7CE" stroke="#C4AC32" stroke-width="3"/><rect x="80.5" y="115.5" width="171" height="53" rx="6.5" fill="#F8BEE0" stroke="#B828C5" stroke-width="3"/><rect x="80.5" y="196.5" width="171" height="53" rx="6.5" fill="#F8BEE0" stroke="#B828C5" stroke-width="3"/><rect x="80.5" y="275.5" width="171" height="53" rx="6.5" fill="#F8BEE0" stroke="#B828C5" stroke-width="3"/><path d="M146.728 134.248h-1.76L139.4 153h-1.888l-5.472-16.64h-.128L126.6 153h-1.888l-5.952-18.752H117V132.2h7.2v2.048h-2.944l4.384 14.944h.128l4.8-14.944h-2.08V132.2h7.168v2.048h-2.08l4.864 15.04h.128l4.032-15.04h-3.008V132.2h7.136v2.048zm1.333 5.6a7.81 7.81 0 0 1 2.368-1.056c.832-.213 1.717-.32 2.656-.32 3.392 0 5.088 1.589 5.088 4.768v6.784c0 1.024.405 1.536 1.216 1.536.362 0 .682-.064.96-.192l.032 1.472c-.576.32-1.195.48-1.856.48-1.686 0-2.55-.96-2.592-2.88v-.064c-.448.768-1.088 1.451-1.92 2.048-.811.597-1.792.896-2.944.896-.939 0-1.899-.288-2.88-.864-.96-.576-1.44-1.621-1.44-3.136 0-1.792.704-2.965 2.112-3.52a12.04 12.04 0 0 1 4.544-.864c.426 0 .853.011 1.28.032.448.021.864.053 1.248.096v-1.28c0-1.024-.224-1.856-.672-2.496-.427-.64-1.28-.96-2.56-.96-1.046 0-1.963.192-2.752.576l-.544 2.464-1.856-.224.512-3.296zm7.872 7.808v-1.088a29.202 29.202 0 0 1-1.28-.096 14.405 14.405 0 0 0-1.376-.064c-1.067 0-2.038.171-2.912.512-.854.32-1.28 1.035-1.28 2.144 0 .917.288 1.547.864 1.888a3.47 3.47 0 0 0 1.792.512c.981 0 1.898-.341 2.752-1.024.874-.683 1.354-1.611 1.44-2.784zM168.81 153h-7.232v-1.824h2.496v-18.368h-2.528v-1.824h4.768v20.192h2.496V153zm16.916 0h-6.72v-1.824h2.144l-3.904-4.832h-2.528v4.832h2.048V153h-6.784v-1.824h2.464v-18.368h-2.528v-1.824h4.8v13.632h2.56l3.264-4.032h-2.208v-1.824h6.656v1.824h-2.176l-3.808 4.704 4.704 5.888h2.016V153zm13.725-4.096c-.192 1.216-.8 2.261-1.824 3.136-1.024.853-2.41 1.28-4.16 1.28-2.005 0-3.626-.629-4.864-1.888-1.237-1.259-1.856-3.04-1.856-5.344 0-2.219.587-4.043 1.76-5.472 1.174-1.429 2.763-2.144 4.768-2.144 1.963 0 3.456.619 4.48 1.856 1.024 1.237 1.547 2.699 1.568 4.384 0 .555-.064 1.12-.192 1.696h-10.016c.128 3.328 1.632 4.992 4.512 4.992 1.131 0 2.016-.267 2.656-.8.64-.533 1.067-1.237 1.28-2.112l1.888.416zm-2.496-4.16c.107-1.067-.149-2.069-.768-3.008-.597-.939-1.589-1.408-2.976-1.408-1.322 0-2.293.437-2.912 1.312-.618.875-1.002 1.909-1.152 3.104h7.808zm12.696-6.24c1.024 0 1.834.245 2.432.736l.544 3.584-1.824.224-.544-2.432a3.255 3.255 0 0 0-1.088-.192c-.832 0-1.526.352-2.08 1.056-.555.683-.832 1.579-.832 2.688v7.008h3.296V153h-8.032v-1.824h2.496v-10.592h-2.56v-1.824h4.672v2.56a4.566 4.566 0 0 1 1.344-1.984c.64-.555 1.365-.832 2.176-.832zM134.832 234h-15.488v-2.048h2.624v-16.704h-2.624V213.2h15.2l.64 5.888-2.048.224-.64-4.064h-8.192v7.168h9.824v2.048h-9.824v7.488h8.48l.64-4.064 2.016.224-.608 5.888zm20.029 0h-7.2v-1.824h2.464v-6.624c0-1.536-.31-2.613-.928-3.232-.619-.64-1.408-.96-2.368-.96-1.28 0-2.315.427-3.104 1.28-.768.832-1.174 1.792-1.216 2.88v6.656h2.496V234h-7.232v-1.824h2.496v-10.592h-2.56v-1.824h4.8v2.528c1.024-1.877 2.688-2.816 4.992-2.816 1.386 0 2.549.427 3.488 1.28.938.853 1.408 2.229 1.408 4.128v7.296h2.464V234zm14.215-4.096c-.192 1.216-.8 2.261-1.824 3.136-1.024.853-2.41 1.28-4.16 1.28-2.005 0-3.626-.629-4.864-1.888-1.237-1.259-1.856-3.04-1.856-5.344 0-2.219.587-4.043 1.76-5.472 1.174-1.429 2.763-2.144 4.768-2.144 1.963 0 3.456.619 4.48 1.856 1.024 1.237 1.547 2.699 1.568 4.384 0 .555-.064 1.12-.192 1.696H158.74c.128 3.328 1.632 4.992 4.512 4.992 1.131 0 2.016-.267 2.656-.8.64-.533 1.067-1.237 1.28-2.112l1.888.416zm-2.496-4.16c.107-1.067-.149-2.069-.768-3.008-.597-.939-1.589-1.408-2.976-1.408-1.322 0-2.293.437-2.912 1.312-.618.875-1.002 1.909-1.152 3.104h7.808zM197.516 234H190.7v-1.824h2.08v-6.624c0-1.536-.31-2.613-.928-3.232-.598-.64-1.366-.96-2.304-.96-1.302 0-2.304.491-3.008 1.472-.704.981-1.067 1.92-1.088 2.816v6.528h2.464V234h-6.784v-1.824h2.048v-6.624c0-1.557-.299-2.645-.896-3.264-.598-.619-1.355-.928-2.272-.928-1.323 0-2.336.48-3.04 1.44-.683.939-1.046 1.867-1.088 2.784v6.592h2.624V234h-7.36v-1.824h2.496v-10.592h-2.528v-1.824h4.768v2.656a6.19 6.19 0 0 1 1.888-2.112c.789-.555 1.749-.832 2.88-.832 1.109 0 2.069.277 2.88.832.832.555 1.397 1.419 1.696 2.592a6.016 6.016 0 0 1 1.888-2.464c.853-.64 1.898-.96 3.136-.96 1.365 0 2.496.427 3.392 1.28.917.853 1.376 2.229 1.376 4.128v7.296h2.496V234zm15.611-12.416h-1.696L206.407 234l-1.92 4.992h2.432v1.824h-7.232v-1.824h2.656l1.856-5.024-5.184-12.384h-1.696v-1.824h6.592v1.824h-2.496l4 9.568h.192l3.552-9.568h-2.304v-1.824h6.272v1.824zM130.944 294.248h-2.72v16.704h2.592V313h-7.392v-2.048h2.432v-13.248h-.128l-6.976 14.24h-1.248l-7.136-14.336h-.128v13.344h2.496V313h-7.36v-2.048H108v-16.704h-2.72V292.2h4.768l8.096 16.288h.128l7.872-16.288h4.8v2.048zm15.757 11.616c0 2.155-.64 3.936-1.92 5.344-1.28 1.408-3.019 2.112-5.216 2.112-2.155 0-3.851-.683-5.088-2.048-1.216-1.365-1.824-3.125-1.824-5.28 0-2.069.597-3.84 1.792-5.312 1.194-1.493 2.944-2.24 5.248-2.24 2.325 0 4.074.736 5.248 2.208 1.173 1.451 1.76 3.189 1.76 5.216zm-2.368-.032c0-1.621-.416-2.933-1.248-3.936-.811-1.024-1.963-1.536-3.456-1.536-1.494 0-2.646.523-3.456 1.568-.79 1.045-1.184 2.357-1.184 3.936 0 1.557.394 2.869 1.184 3.936.789 1.067 1.941 1.6 3.456 1.6 1.514 0 2.677-.523 3.488-1.568.81-1.067 1.216-2.4 1.216-4zM164.995 313h-4.704v-2.88a7.358 7.358 0 0 1-1.92 2.24c-.811.64-1.867.96-3.168.96-1.835 0-3.317-.619-4.448-1.856-1.109-1.259-1.664-2.997-1.664-5.216 0-1.899.491-3.669 1.472-5.312.981-1.643 2.635-2.464 4.96-2.464 2.219 0 3.808.864 4.768 2.592v-8.256h-3.456v-1.824h5.696v20.192h2.464V313zm-4.704-6.304v-2.272c-.043-1.195-.48-2.165-1.312-2.912-.832-.747-1.813-1.12-2.944-1.12-1.579 0-2.741.576-3.488 1.728-.725 1.152-1.088 2.475-1.088 3.968 0 1.749.405 3.072 1.216 3.968.832.896 1.867 1.344 3.104 1.344 1.28 0 2.336-.512 3.168-1.536.853-1.045 1.301-2.101 1.344-3.168zm19.067 2.208c-.192 1.216-.8 2.261-1.824 3.136-1.024.853-2.411 1.28-4.16 1.28-2.006 0-3.627-.629-4.864-1.888-1.238-1.259-1.856-3.04-1.856-5.344 0-2.219.586-4.043 1.76-5.472 1.173-1.429 2.762-2.144 4.768-2.144 1.962 0 3.456.619 4.48 1.856 1.024 1.237 1.546 2.699 1.568 4.384 0 .555-.064 1.12-.192 1.696h-10.016c.128 3.328 1.632 4.992 4.512 4.992 1.13 0 2.016-.267 2.656-.8.64-.533 1.066-1.237 1.28-2.112l1.888.416zm-2.496-4.16c.106-1.067-.15-2.069-.768-3.008-.598-.939-1.59-1.408-2.976-1.408-1.323 0-2.294.437-2.912 1.312-.619.875-1.003 1.909-1.152 3.104h7.808zM188.341 313h-7.232v-1.824h2.496v-18.368h-2.528v-1.824h4.768v20.192h2.496V313zm2.74-15.328c.597-.405 1.376-.779 2.336-1.12a8.78 8.78 0 0 1 3.072-.544c1.685 0 3.072.437 4.16 1.312 1.109.875 1.664 2.133 1.664 3.776a5.15 5.15 0 0 1-.896 2.912c-.576.875-1.611 1.547-3.104 2.016v.128c1.898.32 3.189.971 3.872 1.952a5.642 5.642 0 0 1 1.024 3.296c0 1.856-.608 3.339-1.824 4.448-1.195 1.109-2.838 1.664-4.928 1.664-1.963 0-3.456-.437-4.48-1.312-1.024-.875-1.664-1.941-1.92-3.2l1.824-.64a5.299 5.299 0 0 0 1.472 2.208c.682.619 1.696.928 3.04.928 1.706 0 2.848-.437 3.424-1.312a5.052 5.052 0 0 0 .896-2.912c0-1.259-.448-2.24-1.344-2.944-.896-.704-2.464-1.088-4.704-1.152v-1.728c2.005-.085 3.37-.555 4.096-1.408.725-.875 1.088-1.76 1.088-2.656 0-1.045-.342-1.867-1.024-2.464-.662-.597-1.59-.896-2.784-.896-1.046 0-2.07.267-3.072.8l-.576 2.592-1.856-.224.544-3.52zm34.824 4.896c0 3.051-.939 5.557-2.816 7.52-1.856 1.941-4.427 2.912-7.712 2.912h-9.408v-2.016h2.624v-16.768h-2.624V292.2h9.312c3.392 0 6.005.981 7.84 2.944 1.856 1.941 2.784 4.416 2.784 7.424zm-2.496.032c0-2.517-.704-4.544-2.112-6.08-1.387-1.536-3.403-2.304-6.048-2.304h-4.32v16.768h4.32c2.645 0 4.661-.747 6.048-2.24 1.408-1.515 2.112-3.563 2.112-6.144z" fill="#000"/><rect x="369.5" y="75.5" width="251" height="295" rx="27.5" fill="#FFF7CE" stroke="#C4AC32" stroke-width="3"/><rect x="409.5" y="115.5" width="171" height="53" rx="6.5" fill="#F8BEE0" stroke="#B828C5" stroke-width="3"/><rect x="409.5" y="196.5" width="171" height="53" rx="6.5" fill="#F8BEE0" stroke="#B828C5" stroke-width="3"/><rect x="409.5" y="275.5" width="171" height="53" rx="6.5" fill="#F8BEE0" stroke="#B828C5" stroke-width="3"/><path d="m476.12 138.184-2.112.224-.64-4.16h-8.064v8.096h9.568v2.048h-9.568v6.56h3.68V153h-8.64v-2.048h2.624v-16.704h-2.624V132.2h15.104l.672 5.984zM484.716 153h-7.232v-1.824h2.496v-18.368h-2.528v-1.824h4.768v20.192h2.496V153zm16.286-12.416h-1.696L494.282 153l-1.92 4.992h2.432v1.824h-7.232v-1.824h2.656l1.856-5.024-5.184-12.384h-1.696v-1.824h6.592v1.824h-2.496l4 9.568h.192l3.552-9.568h-2.304v-1.824h6.272v1.824zm13.793 8.32c-.192 1.216-.8 2.261-1.824 3.136-1.024.853-2.411 1.28-4.16 1.28-2.005 0-3.627-.629-4.864-1.888s-1.856-3.04-1.856-5.344c0-2.219.587-4.043 1.76-5.472 1.173-1.429 2.763-2.144 4.768-2.144 1.963 0 3.456.619 4.48 1.856 1.024 1.237 1.547 2.699 1.568 4.384 0 .555-.064 1.12-.192 1.696h-10.016c.128 3.328 1.632 4.992 4.512 4.992 1.131 0 2.016-.267 2.656-.8.64-.533 1.067-1.237 1.28-2.112l1.888.416zm-2.496-4.16c.107-1.067-.149-2.069-.768-3.008-.597-.939-1.589-1.408-2.976-1.408-1.323 0-2.293.437-2.912 1.312-.619.875-1.003 1.909-1.152 3.104h7.808zm12.695-6.24c1.024 0 1.835.245 2.432.736l.544 3.584-1.824.224-.544-2.432a3.246 3.246 0 0 0-1.088-.192c-.832 0-1.525.352-2.08 1.056-.554.683-.832 1.579-.832 2.688v7.008h3.296V153h-8.032v-1.824h2.496v-10.592h-2.56v-1.824h4.672v2.56a4.583 4.583 0 0 1 1.344-1.984c.64-.555 1.366-.832 2.176-.832zM463.832 234h-15.488v-2.048h2.624v-16.704h-2.624V213.2h15.2l.64 5.888-2.048.224-.64-4.064h-8.192v7.168h9.824v2.048h-9.824v7.488h8.48l.64-4.064 2.016.224-.608 5.888zm20.029 0h-7.2v-1.824h2.464v-6.624c0-1.536-.31-2.613-.928-3.232-.619-.64-1.408-.96-2.368-.96-1.28 0-2.315.427-3.104 1.28-.768.832-1.174 1.792-1.216 2.88v6.656h2.496V234h-7.232v-1.824h2.496v-10.592h-2.56v-1.824h4.8v2.528c1.024-1.877 2.688-2.816 4.992-2.816 1.386 0 2.549.427 3.488 1.28.938.853 1.408 2.229 1.408 4.128v7.296h2.464V234zm14.215-4.096c-.192 1.216-.8 2.261-1.824 3.136-1.024.853-2.41 1.28-4.16 1.28-2.005 0-3.626-.629-4.864-1.888-1.237-1.259-1.856-3.04-1.856-5.344 0-2.219.587-4.043 1.76-5.472 1.174-1.429 2.763-2.144 4.768-2.144 1.963 0 3.456.619 4.48 1.856 1.024 1.237 1.547 2.699 1.568 4.384 0 .555-.064 1.12-.192 1.696H487.74c.128 3.328 1.632 4.992 4.512 4.992 1.131 0 2.016-.267 2.656-.8.64-.533 1.067-1.237 1.28-2.112l1.888.416zm-2.496-4.16c.107-1.067-.149-2.069-.768-3.008-.597-.939-1.589-1.408-2.976-1.408-1.322 0-2.293.437-2.912 1.312-.618.875-1.002 1.909-1.152 3.104h7.808zM526.516 234H519.7v-1.824h2.08v-6.624c0-1.536-.31-2.613-.928-3.232-.598-.64-1.366-.96-2.304-.96-1.302 0-2.304.491-3.008 1.472-.704.981-1.067 1.92-1.088 2.816v6.528h2.464V234h-6.784v-1.824h2.048v-6.624c0-1.557-.299-2.645-.896-3.264-.598-.619-1.355-.928-2.272-.928-1.323 0-2.336.48-3.04 1.44-.683.939-1.046 1.867-1.088 2.784v6.592h2.624V234h-7.36v-1.824h2.496v-10.592h-2.528v-1.824h4.768v2.656a6.19 6.19 0 0 1 1.888-2.112c.789-.555 1.749-.832 2.88-.832 1.109 0 2.069.277 2.88.832.832.555 1.397 1.419 1.696 2.592a6.016 6.016 0 0 1 1.888-2.464c.853-.64 1.898-.96 3.136-.96 1.365 0 2.496.427 3.392 1.28.917.853 1.376 2.229 1.376 4.128v7.296h2.496V234zm15.611-12.416h-1.696L535.407 234l-1.92 4.992h2.432v1.824h-7.232v-1.824h2.656l1.856-5.024-5.184-12.384h-1.696v-1.824h6.592v1.824h-2.496l4 9.568h.192l3.552-9.568h-2.304v-1.824h6.272v1.824zM459.944 294.248h-2.72v16.704h2.592V313h-7.392v-2.048h2.432v-13.248h-.128l-6.976 14.24h-1.248l-7.136-14.336h-.128v13.344h2.496V313h-7.36v-2.048H437v-16.704h-2.72V292.2h4.768l8.096 16.288h.128l7.872-16.288h4.8v2.048zm15.757 11.616c0 2.155-.64 3.936-1.92 5.344-1.28 1.408-3.019 2.112-5.216 2.112-2.155 0-3.851-.683-5.088-2.048-1.216-1.365-1.824-3.125-1.824-5.28 0-2.069.597-3.84 1.792-5.312 1.194-1.493 2.944-2.24 5.248-2.24 2.325 0 4.074.736 5.248 2.208 1.173 1.451 1.76 3.189 1.76 5.216zm-2.368-.032c0-1.621-.416-2.933-1.248-3.936-.811-1.024-1.963-1.536-3.456-1.536-1.494 0-2.646.523-3.456 1.568-.79 1.045-1.184 2.357-1.184 3.936 0 1.557.394 2.869 1.184 3.936.789 1.067 1.941 1.6 3.456 1.6 1.514 0 2.677-.523 3.488-1.568.81-1.067 1.216-2.4 1.216-4zM493.995 313h-4.704v-2.88a7.358 7.358 0 0 1-1.92 2.24c-.811.64-1.867.96-3.168.96-1.835 0-3.317-.619-4.448-1.856-1.109-1.259-1.664-2.997-1.664-5.216 0-1.899.491-3.669 1.472-5.312.981-1.643 2.635-2.464 4.96-2.464 2.219 0 3.808.864 4.768 2.592v-8.256h-3.456v-1.824h5.696v20.192h2.464V313zm-4.704-6.304v-2.272c-.043-1.195-.48-2.165-1.312-2.912-.832-.747-1.813-1.12-2.944-1.12-1.579 0-2.741.576-3.488 1.728-.725 1.152-1.088 2.475-1.088 3.968 0 1.749.405 3.072 1.216 3.968.832.896 1.867 1.344 3.104 1.344 1.28 0 2.336-.512 3.168-1.536.853-1.045 1.301-2.101 1.344-3.168zm19.067 2.208c-.192 1.216-.8 2.261-1.824 3.136-1.024.853-2.411 1.28-4.16 1.28-2.006 0-3.627-.629-4.864-1.888-1.238-1.259-1.856-3.04-1.856-5.344 0-2.219.586-4.043 1.76-5.472 1.173-1.429 2.762-2.144 4.768-2.144 1.962 0 3.456.619 4.48 1.856 1.024 1.237 1.546 2.699 1.568 4.384 0 .555-.064 1.12-.192 1.696h-10.016c.128 3.328 1.632 4.992 4.512 4.992 1.13 0 2.016-.267 2.656-.8.64-.533 1.066-1.237 1.28-2.112l1.888.416zm-2.496-4.16c.106-1.067-.15-2.069-.768-3.008-.598-.939-1.59-1.408-2.976-1.408-1.323 0-2.294.437-2.912 1.312-.619.875-1.003 1.909-1.152 3.104h7.808zM517.341 313h-7.232v-1.824h2.496v-18.368h-2.528v-1.824h4.768v20.192h2.496V313zm2.74-15.328c.597-.405 1.376-.779 2.336-1.12a8.78 8.78 0 0 1 3.072-.544c1.685 0 3.072.437 4.16 1.312 1.109.875 1.664 2.133 1.664 3.776a5.15 5.15 0 0 1-.896 2.912c-.576.875-1.611 1.547-3.104 2.016v.128c1.898.32 3.189.971 3.872 1.952a5.642 5.642 0 0 1 1.024 3.296c0 1.856-.608 3.339-1.824 4.448-1.195 1.109-2.838 1.664-4.928 1.664-1.963 0-3.456-.437-4.48-1.312-1.024-.875-1.664-1.941-1.92-3.2l1.824-.64a5.299 5.299 0 0 0 1.472 2.208c.682.619 1.696.928 3.04.928 1.706 0 2.848-.437 3.424-1.312a5.052 5.052 0 0 0 .896-2.912c0-1.259-.448-2.24-1.344-2.944-.896-.704-2.464-1.088-4.704-1.152v-1.728c2.005-.085 3.37-.555 4.096-1.408.725-.875 1.088-1.76 1.088-2.656 0-1.045-.342-1.867-1.024-2.464-.662-.597-1.59-.896-2.784-.896-1.046 0-2.07.267-3.072.8l-.576 2.592-1.856-.224.544-3.52zm34.824 4.896c0 3.051-.939 5.557-2.816 7.52-1.856 1.941-4.427 2.912-7.712 2.912h-9.408v-2.016h2.624v-16.768h-2.624V292.2h9.312c3.392 0 6.005.981 7.84 2.944 1.856 1.941 2.784 4.416 2.784 7.424zm-2.496.032c0-2.517-.704-4.544-2.112-6.08-1.387-1.536-3.403-2.304-6.048-2.304h-4.32v16.768h4.32c2.645 0 4.661-.747 6.048-2.24 1.408-1.515 2.112-3.563 2.112-6.144z" fill="#000"/><rect x="698.5" y="75.5" width="251" height="295" rx="27.5" fill="#FFF7CE" stroke="#C4AC32" stroke-width="3"/><rect x="738.5" y="115.5" width="171" height="53" rx="6.5" fill="#F8BEE0" stroke="#B828C5" stroke-width="3"/><rect x="738.5" y="196.5" width="171" height="53" rx="6.5" fill="#F8BEE0" stroke="#B828C5" stroke-width="3"/><rect x="738.5" y="275.5" width="171" height="53" rx="6.5" fill="#F8BEE0" stroke="#B828C5" stroke-width="3"/><path d="M804.728 134.248h-1.76L797.4 153h-1.888l-5.472-16.64h-.128L784.6 153h-1.888l-5.952-18.752H775V132.2h7.2v2.048h-2.944l4.384 14.944h.128l4.8-14.944h-2.08V132.2h7.168v2.048h-2.08l4.864 15.04h.128l4.032-15.04h-3.008V132.2h7.136v2.048zm1.333 5.6a7.81 7.81 0 0 1 2.368-1.056c.832-.213 1.717-.32 2.656-.32 3.392 0 5.088 1.589 5.088 4.768v6.784c0 1.024.405 1.536 1.216 1.536.362 0 .682-.064.96-.192l.032 1.472c-.576.32-1.195.48-1.856.48-1.686 0-2.55-.96-2.592-2.88v-.064c-.448.768-1.088 1.451-1.92 2.048-.811.597-1.792.896-2.944.896-.939 0-1.899-.288-2.88-.864-.96-.576-1.44-1.621-1.44-3.136 0-1.792.704-2.965 2.112-3.52a12.04 12.04 0 0 1 4.544-.864c.426 0 .853.011 1.28.032.448.021.864.053 1.248.096v-1.28c0-1.024-.224-1.856-.672-2.496-.427-.64-1.28-.96-2.56-.96-1.046 0-1.963.192-2.752.576l-.544 2.464-1.856-.224.512-3.296zm7.872 7.808v-1.088a29.202 29.202 0 0 1-1.28-.096 14.405 14.405 0 0 0-1.376-.064c-1.067 0-2.038.171-2.912.512-.854.32-1.28 1.035-1.28 2.144 0 .917.288 1.547.864 1.888a3.47 3.47 0 0 0 1.792.512c.981 0 1.898-.341 2.752-1.024.874-.683 1.354-1.611 1.44-2.784zM826.81 153h-7.232v-1.824h2.496v-18.368h-2.528v-1.824h4.768v20.192h2.496V153zm16.916 0h-6.72v-1.824h2.144l-3.904-4.832h-2.528v4.832h2.048V153h-6.784v-1.824h2.464v-18.368h-2.528v-1.824h4.8v13.632h2.56l3.264-4.032h-2.208v-1.824h6.656v1.824h-2.176l-3.808 4.704 4.704 5.888h2.016V153zm13.725-4.096c-.192 1.216-.8 2.261-1.824 3.136-1.024.853-2.41 1.28-4.16 1.28-2.005 0-3.626-.629-4.864-1.888-1.237-1.259-1.856-3.04-1.856-5.344 0-2.219.587-4.043 1.76-5.472 1.174-1.429 2.763-2.144 4.768-2.144 1.963 0 3.456.619 4.48 1.856 1.024 1.237 1.547 2.699 1.568 4.384 0 .555-.064 1.12-.192 1.696h-10.016c.128 3.328 1.632 4.992 4.512 4.992 1.131 0 2.016-.267 2.656-.8.64-.533 1.067-1.237 1.28-2.112l1.888.416zm-2.496-4.16c.107-1.067-.149-2.069-.768-3.008-.597-.939-1.589-1.408-2.976-1.408-1.322 0-2.293.437-2.912 1.312-.618.875-1.002 1.909-1.152 3.104h7.808zm12.696-6.24c1.024 0 1.834.245 2.432.736l.544 3.584-1.824.224-.544-2.432a3.255 3.255 0 0 0-1.088-.192c-.832 0-1.526.352-2.08 1.056-.555.683-.832 1.579-.832 2.688v7.008h3.296V153h-8.032v-1.824h2.496v-10.592h-2.56v-1.824h4.672v2.56a4.566 4.566 0 0 1 1.344-1.984c.64-.555 1.365-.832 2.176-.832zM797.408 219.568c0 2.176-.661 3.84-1.984 4.992-1.323 1.131-3.008 1.696-5.056 1.696h-4.064v5.696h3.584V234h-8.544v-2.048h2.624v-16.704h-2.624V213.2h8.832c2.581 0 4.427.629 5.536 1.888 1.131 1.259 1.696 2.752 1.696 4.48zm-2.496.064c0-1.344-.395-2.411-1.184-3.2-.789-.789-2.037-1.184-3.744-1.184h-3.68v8.96h3.776c3.221 0 4.832-1.525 4.832-4.576zM806.247 234h-7.232v-1.824h2.496v-18.368h-2.528v-1.824h4.768v20.192h2.496V234zm3.22-13.152a7.82 7.82 0 0 1 2.368-1.056c.832-.213 1.717-.32 2.656-.32 3.392 0 5.088 1.589 5.088 4.768v6.784c0 1.024.405 1.536 1.216 1.536.363 0 .683-.064.96-.192l.032 1.472c-.576.32-1.195.48-1.856.48-1.685 0-2.549-.96-2.592-2.88v-.064c-.448.768-1.088 1.451-1.92 2.048-.811.597-1.792.896-2.944.896-.939 0-1.899-.288-2.88-.864-.96-.576-1.44-1.621-1.44-3.136 0-1.792.704-2.965 2.112-3.52a12.04 12.04 0 0 1 4.544-.864c.427 0 .853.011 1.28.032.448.021.864.053 1.248.096v-1.28c0-1.024-.224-1.856-.672-2.496-.427-.64-1.28-.96-2.56-.96-1.045 0-1.963.192-2.752.576l-.544 2.464-1.856-.224.512-3.296zm7.872 7.808v-1.088a29.318 29.318 0 0 1-1.28-.096 14.405 14.405 0 0 0-1.376-.064c-1.067 0-2.037.171-2.912.512-.853.32-1.28 1.035-1.28 2.144 0 .917.288 1.547.864 1.888a3.47 3.47 0 0 0 1.792.512c.981 0 1.899-.341 2.752-1.024.875-.683 1.355-1.611 1.44-2.784zm20.381-7.072h-1.696L831 234l-1.92 4.992h2.432v1.824h-7.232v-1.824h2.656l1.856-5.024-5.184-12.384h-1.696v-1.824h6.592v1.824h-2.496l4 9.568h.192l3.552-9.568h-2.304v-1.824h6.272v1.824zm13.794 8.32c-.192 1.216-.8 2.261-1.824 3.136-1.024.853-2.411 1.28-4.16 1.28-2.006 0-3.627-.629-4.864-1.888-1.238-1.259-1.856-3.04-1.856-5.344 0-2.219.586-4.043 1.76-5.472 1.173-1.429 2.762-2.144 4.768-2.144 1.962 0 3.456.619 4.48 1.856 1.024 1.237 1.546 2.699 1.568 4.384 0 .555-.064 1.12-.192 1.696h-10.016c.128 3.328 1.632 4.992 4.512 4.992 1.13 0 2.016-.267 2.656-.8.64-.533 1.066-1.237 1.28-2.112l1.888.416zm-2.496-4.16c.106-1.067-.15-2.069-.768-3.008-.598-.939-1.59-1.408-2.976-1.408-1.323 0-2.294.437-2.912 1.312-.619.875-1.003 1.909-1.152 3.104h7.808zm12.695-6.24c1.024 0 1.835.245 2.432.736l.544 3.584-1.824.224-.544-2.432a3.25 3.25 0 0 0-1.088-.192c-.832 0-1.525.352-2.08 1.056-.555.683-.832 1.579-.832 2.688v7.008h3.296V234h-8.032v-1.824h2.496v-10.592h-2.56v-1.824h4.672v2.56a4.566 4.566 0 0 1 1.344-1.984c.64-.555 1.365-.832 2.176-.832zM788.944 294.248h-2.72v16.704h2.592V313h-7.392v-2.048h2.432v-13.248h-.128l-6.976 14.24h-1.248l-7.136-14.336h-.128v13.344h2.496V313h-7.36v-2.048H766v-16.704h-2.72V292.2h4.768l8.096 16.288h.128l7.872-16.288h4.8v2.048zm15.757 11.616c0 2.155-.64 3.936-1.92 5.344-1.28 1.408-3.019 2.112-5.216 2.112-2.155 0-3.851-.683-5.088-2.048-1.216-1.365-1.824-3.125-1.824-5.28 0-2.069.597-3.84 1.792-5.312 1.194-1.493 2.944-2.24 5.248-2.24 2.325 0 4.074.736 5.248 2.208 1.173 1.451 1.76 3.189 1.76 5.216zm-2.368-.032c0-1.621-.416-2.933-1.248-3.936-.811-1.024-1.963-1.536-3.456-1.536-1.494 0-2.646.523-3.456 1.568-.79 1.045-1.184 2.357-1.184 3.936 0 1.557.394 2.869 1.184 3.936.789 1.067 1.941 1.6 3.456 1.6 1.514 0 2.677-.523 3.488-1.568.81-1.067 1.216-2.4 1.216-4zM822.995 313h-4.704v-2.88a7.358 7.358 0 0 1-1.92 2.24c-.811.64-1.867.96-3.168.96-1.835 0-3.317-.619-4.448-1.856-1.109-1.259-1.664-2.997-1.664-5.216 0-1.899.491-3.669 1.472-5.312.981-1.643 2.635-2.464 4.96-2.464 2.219 0 3.808.864 4.768 2.592v-8.256h-3.456v-1.824h5.696v20.192h2.464V313zm-4.704-6.304v-2.272c-.043-1.195-.48-2.165-1.312-2.912-.832-.747-1.813-1.12-2.944-1.12-1.579 0-2.741.576-3.488 1.728-.725 1.152-1.088 2.475-1.088 3.968 0 1.749.405 3.072 1.216 3.968.832.896 1.867 1.344 3.104 1.344 1.28 0 2.336-.512 3.168-1.536.853-1.045 1.301-2.101 1.344-3.168zm19.067 2.208c-.192 1.216-.8 2.261-1.824 3.136-1.024.853-2.411 1.28-4.16 1.28-2.006 0-3.627-.629-4.864-1.888-1.238-1.259-1.856-3.04-1.856-5.344 0-2.219.586-4.043 1.76-5.472 1.173-1.429 2.762-2.144 4.768-2.144 1.962 0 3.456.619 4.48 1.856 1.024 1.237 1.546 2.699 1.568 4.384 0 .555-.064 1.12-.192 1.696h-10.016c.128 3.328 1.632 4.992 4.512 4.992 1.13 0 2.016-.267 2.656-.8.64-.533 1.066-1.237 1.28-2.112l1.888.416zm-2.496-4.16c.106-1.067-.15-2.069-.768-3.008-.598-.939-1.59-1.408-2.976-1.408-1.323 0-2.294.437-2.912 1.312-.619.875-1.003 1.909-1.152 3.104h7.808zM846.341 313h-7.232v-1.824h2.496v-18.368h-2.528v-1.824h4.768v20.192h2.496V313zm2.74-15.328c.597-.405 1.376-.779 2.336-1.12a8.78 8.78 0 0 1 3.072-.544c1.685 0 3.072.437 4.16 1.312 1.109.875 1.664 2.133 1.664 3.776a5.15 5.15 0 0 1-.896 2.912c-.576.875-1.611 1.547-3.104 2.016v.128c1.898.32 3.189.971 3.872 1.952a5.642 5.642 0 0 1 1.024 3.296c0 1.856-.608 3.339-1.824 4.448-1.195 1.109-2.838 1.664-4.928 1.664-1.963 0-3.456-.437-4.48-1.312-1.024-.875-1.664-1.941-1.92-3.2l1.824-.64a5.299 5.299 0 0 0 1.472 2.208c.682.619 1.696.928 3.04.928 1.706 0 2.848-.437 3.424-1.312a5.052 5.052 0 0 0 .896-2.912c0-1.259-.448-2.24-1.344-2.944-.896-.704-2.464-1.088-4.704-1.152v-1.728c2.005-.085 3.37-.555 4.096-1.408.725-.875 1.088-1.76 1.088-2.656 0-1.045-.342-1.867-1.024-2.464-.662-.597-1.59-.896-2.784-.896-1.046 0-2.07.267-3.072.8l-.576 2.592-1.856-.224.544-3.52zm34.824 4.896c0 3.051-.939 5.557-2.816 7.52-1.856 1.941-4.427 2.912-7.712 2.912h-9.408v-2.016h2.624v-16.768h-2.624V292.2h9.312c3.392 0 6.005.981 7.84 2.944 1.856 1.941 2.784 4.416 2.784 7.424zm-2.496.032c0-2.517-.704-4.544-2.112-6.08-1.387-1.536-3.403-2.304-6.048-2.304h-4.32v16.768h4.32c2.645 0 4.661-.747 6.048-2.24 1.408-1.515 2.112-3.563 2.112-6.144z" fill="#000"/><text xml:space="preserve" style="font-size:37.3333px;text-align:start;writing-mode:lr-tb;direction:ltr;text-anchor:start;fill:#000" x="131.875" y="59.232"><tspan x="131.875" y="59.232" style="font-style:normal;font-variant:normal;font-weight:400;font-stretch:normal;font-size:37.3333px;font-family:'Times New Roman';-inkscape-font-specification:'Times New Roman, '">волк</tspan></text><text xml:space="preserve" style="font-size:37.3333px;text-align:start;writing-mode:lr-tb;direction:ltr;text-anchor:start;fill:#000" x="439.814" y="56.955"><tspan x="439.814" y="56.955" style="font-style:normal;font-variant:normal;font-weight:400;font-stretch:normal;font-size:37.3333px;font-family:'Times New Roman';-inkscape-font-specification:'Times New Roman, '">дракон</tspan></text><text xml:space="preserve" style="font-size:37.3333px;text-align:start;writing-mode:lr-tb;direction:ltr;text-anchor:start;fill:#000" x="780.89" y="57.425"><tspan x="780.89" y="57.425" style="font-style:normal;font-variant:normal;font-weight:400;font-stretch:normal;font-size:37.3333px;font-family:'Times New Roman';-inkscape-font-specification:'Times New Roman, '">игрок</tspan></text></svg>