<svg width="920" height="594" fill="none" xmlns="http://www.w3.org/2000/svg"><path fill="#EDEDED" d="M0 0h920v594H0z"/><path fill="#fff" d="M0 0h920v594H0z"/><rect x="163" y="485" width="591" height="71" rx="15" fill="#F4F4F4"/><rect x="408.508" y="500" width="101.985" height="41" rx="20.5" fill="#A3F096"/><path d="m457.313 518.478-1.32.14-.4-2.6h-5.04v5.06h5.98v1.28h-5.98v4.1h2.3v1.28h-5.4v-1.28h1.64v-10.44h-1.64v-1.28h9.44l.42 3.74zm5.372 9.26h-4.52v-1.14h1.56v-11.48h-1.58v-1.14h2.98v12.62h1.56v1.14zm10.179-7.76h-1.06l-3.14 7.76-1.2 3.12h1.52v1.14h-4.52v-1.14h1.66l1.16-3.14-3.24-7.74h-1.06v-1.14h4.12v1.14h-1.56l2.5 5.98h.12l2.22-5.98h-1.44v-1.14h3.92v1.14z" fill="#000"/><rect x="520.237" y="500" width="101.985" height="41" rx="20.5" fill="#96E4EF"/><path d="M556.218 527.738h-4.62v-1.28h1.74l-.94-2.5h-5.56l-1 2.5h1.88v1.28h-4.58v-1.28h1.22l4.26-10.44h-2.08v-1.28h3.7l4.66 11.72h1.32v1.28zm-4.24-4.92-2.24-5.96h-.12l-2.34 5.96h4.7zm11.194 2.52c-.24 1.733-1.18 2.6-2.82 2.6-.893 0-1.58-.254-2.06-.76-.467-.507-.7-1.194-.7-2.06v-5.16h-1.44v-1.12h1.44v-2.86h1.4v2.86h3.48v1.12h-3.48v4.98c0 .533.113.966.34 1.3.24.32.627.48 1.16.48.347 0 .667-.107.96-.32.307-.214.527-.68.66-1.4l1.06.34zm7.422 0c-.24 1.733-1.18 2.6-2.82 2.6-.894 0-1.58-.254-2.06-.76-.467-.507-.7-1.194-.7-2.06v-5.16h-1.44v-1.12h1.44v-2.86h1.4v2.86h3.48v1.12h-3.48v4.98c0 .533.113.966.34 1.3.24.32.626.48 1.16.48.346 0 .666-.107.96-.32.306-.214.526-.68.66-1.4l1.06.34zm1.722-5.82c.466-.307.96-.527 1.48-.66a6.63 6.63 0 0 1 1.66-.2c2.12 0 3.18.993 3.18 2.98v4.24c0 .64.253.96.76.96.226 0 .426-.04.6-.12l.02.92c-.36.2-.747.3-1.16.3-1.054 0-1.594-.6-1.62-1.8v-.04c-.28.48-.68.906-1.2 1.28-.507.373-1.12.56-1.84.56-.587 0-1.187-.18-1.8-.54-.6-.36-.9-1.014-.9-1.96 0-1.12.44-1.854 1.32-2.2.893-.36 1.84-.54 2.84-.54a15.282 15.282 0 0 1 1.58.08v-.8c0-.64-.14-1.16-.42-1.56-.267-.4-.8-.6-1.6-.6-.654 0-1.227.12-1.72.36l-.34 1.54-1.16-.14.32-2.06zm4.92 4.88v-.68c-.254-.014-.52-.034-.8-.06a8.964 8.964 0 0 0-.86-.04 4.95 4.95 0 0 0-1.82.32c-.534.2-.8.646-.8 1.34 0 .573.18.966.54 1.18.36.213.733.32 1.12.32.613 0 1.186-.214 1.72-.64.546-.427.846-1.007.9-1.74zm11.688.34c-.12.773-.474 1.5-1.06 2.18-.574.68-1.474 1.02-2.7 1.02-1.227 0-2.207-.394-2.94-1.18-.734-.8-1.1-1.914-1.1-3.34 0-1.227.346-2.327 1.04-3.3.693-.974 1.733-1.46 3.12-1.46.586 0 1.126.066 1.62.2.493.133.966.373 1.42.72l.34 2.14-1.16.14-.34-1.5c-.534-.334-1.167-.5-1.9-.5-.947 0-1.627.34-2.04 1.02-.414.68-.62 1.5-.62 2.46 0 1.066.233 1.9.7 2.5.466.6 1.14.9 2.02.9 1.333 0 2.133-.754 2.4-2.26l1.2.26zm10.858 3h-4.2v-1.14h1.34l-2.44-3.02h-1.58v3.02h1.28v1.14h-4.24v-1.14h1.54v-11.48h-1.58v-1.14h3v8.52h1.6l2.04-2.52h-1.38v-1.14h4.16v1.14h-1.36l-2.38 2.94 2.94 3.68h1.26v1.14z" fill="#000"/><rect x="631.967" y="500" width="101.985" height="41" rx="20.5" fill="#C5BCFF"/><path d="M673.03 521.218c0 1.906-.587 3.473-1.76 4.7-1.16 1.213-2.767 1.82-4.82 1.82h-5.88v-1.26h1.64v-10.48h-1.64v-1.26h5.82c2.12 0 3.753.613 4.9 1.84 1.16 1.213 1.74 2.76 1.74 4.64zm-1.56.02c0-1.574-.44-2.84-1.32-3.8-.867-.96-2.127-1.44-3.78-1.44h-2.7v10.48h2.7c1.653 0 2.913-.467 3.78-1.4.88-.947 1.32-2.227 1.32-3.84zm8.041-2.56c.64 0 1.147.153 1.52.46l.34 2.24-1.14.14-.34-1.52a2.032 2.032 0 0 0-.68-.12c-.52 0-.953.22-1.3.66-.347.426-.52.986-.52 1.68v4.38h2.06v1.14h-5.02v-1.14h1.56v-6.62h-1.6v-1.14h2.92v1.6c.173-.494.453-.907.84-1.24.4-.347.853-.52 1.36-.52zm4.339.84c.466-.307.96-.527 1.48-.66a6.63 6.63 0 0 1 1.66-.2c2.12 0 3.18.993 3.18 2.98v4.24c0 .64.253.96.76.96.226 0 .426-.04.6-.12l.02.92c-.36.2-.747.3-1.16.3-1.054 0-1.594-.6-1.62-1.8v-.04c-.28.48-.68.906-1.2 1.28-.507.373-1.12.56-1.84.56-.587 0-1.187-.18-1.8-.54-.6-.36-.9-1.014-.9-1.96 0-1.12.44-1.854 1.32-2.2.893-.36 1.84-.54 2.84-.54a15.282 15.282 0 0 1 1.58.08v-.8c0-.64-.14-1.16-.42-1.56-.267-.4-.8-.6-1.6-.6-.654 0-1.227.12-1.72.36l-.34 1.54-1.16-.14.32-2.06zm4.92 4.88v-.68c-.254-.014-.52-.034-.8-.06a8.964 8.964 0 0 0-.86-.04 4.95 4.95 0 0 0-1.82.32c-.534.2-.8.646-.8 1.34 0 .573.18.966.54 1.18.36.213.733.32 1.12.32.613 0 1.186-.214 1.72-.64.546-.427.846-1.007.9-1.74zm17.876-4.42h-1.02l-2.62 7.76h-1.08l-2.72-6.8h-.1l-2.66 6.8h-1.04l-2.72-7.76h-.98v-1.14h4.2v1.14h-1.7l1.86 5.62h.1l2.64-6.76h.94l2.78 6.76h.1l1.64-5.62h-1.62v-1.14h4v1.14z" fill="#000"/><rect x="296.779" y="500" width="101.985" height="41" rx="20.5" fill="#FFD18C"/><path d="M345.094 516.018h-1.1l-3.48 11.72h-1.18l-3.42-10.4h-.08l-3.32 10.4h-1.18l-3.72-11.72h-1.1v-1.28h4.5v1.28h-1.84l2.74 9.34h.08l3-9.34h-1.3v-1.28h4.48v1.28h-1.3l3.04 9.4h.08l2.52-9.4h-1.88v-1.28h4.46v1.28zm.833 3.5c.467-.307.96-.527 1.48-.66.52-.134 1.074-.2 1.66-.2 2.12 0 3.18.993 3.18 2.98v4.24c0 .64.254.96.76.96.227 0 .427-.04.6-.12l.02.92c-.36.2-.746.3-1.16.3-1.053 0-1.593-.6-1.62-1.8v-.04c-.28.48-.68.906-1.2 1.28-.506.373-1.12.56-1.84.56-.586 0-1.186-.18-1.8-.54-.6-.36-.9-1.014-.9-1.96 0-1.12.44-1.854 1.32-2.2.894-.36 1.84-.54 2.84-.54a15.228 15.228 0 0 1 1.58.08v-.8c0-.64-.14-1.16-.42-1.56-.266-.4-.8-.6-1.6-.6-.653 0-1.226.12-1.72.36l-.34 1.54-1.16-.14.32-2.06zm4.92 4.88v-.68c-.253-.014-.52-.034-.8-.06a8.949 8.949 0 0 0-.86-.04c-.666 0-1.273.106-1.82.32-.533.2-.8.646-.8 1.34 0 .573.18.966.54 1.18.36.213.734.32 1.12.32.614 0 1.187-.214 1.72-.64.547-.427.847-1.007.9-1.74zm8.048 3.34h-4.52v-1.14h1.56v-11.48h-1.58v-1.14h2.98v12.62h1.56v1.14zm10.573 0h-4.2v-1.14h1.34l-2.44-3.02h-1.58v3.02h1.28v1.14h-4.24v-1.14h1.54v-11.48h-1.58v-1.14h3v8.52h1.6l2.04-2.52h-1.38v-1.14h4.16v1.14h-1.36l-2.38 2.94 2.94 3.68h1.26v1.14z" fill="#000"/><rect x="185.049" y="500" width="101.985" height="41" rx="20.5" fill="#FF9494"/><path d="M212.836 527.738h-4.62v-1.28h1.74l-.94-2.5h-5.56l-1 2.5h1.88v1.28h-4.58v-1.28h1.22l4.26-10.44h-2.08v-1.28h3.7l4.66 11.72h1.32v1.28zm-4.24-4.92-2.24-5.96h-.12l-2.34 5.96h4.7zm9.689 4.92h-4.74v-1.28h1.64v-10.44h-1.64v-1.28h4.74v1.28h-1.62v10.44h1.62v1.28zm1.905 1.48h8.64v1.02h-8.64v-1.02zm28.224-13.2h-1.1l-3.48 11.72h-1.18l-3.42-10.4h-.08l-3.32 10.4h-1.18l-3.72-11.72h-1.1v-1.28h4.5v1.28h-1.84l2.74 9.34h.08l3-9.34h-1.3v-1.28h4.48v1.28h-1.3l3.04 9.4h.08l2.52-9.4h-1.88v-1.28h4.46v1.28zm.833 3.5c.466-.307.96-.527 1.48-.66a6.63 6.63 0 0 1 1.66-.2c2.12 0 3.18.993 3.18 2.98v4.24c0 .64.253.96.76.96.226 0 .426-.04.6-.12l.02.92c-.36.2-.747.3-1.16.3-1.054 0-1.594-.6-1.62-1.8v-.04c-.28.48-.68.906-1.2 1.28-.507.373-1.12.56-1.84.56-.587 0-1.187-.18-1.8-.54-.6-.36-.9-1.014-.9-1.96 0-1.12.44-1.854 1.32-2.2.893-.36 1.84-.54 2.84-.54a15.282 15.282 0 0 1 1.58.08v-.8c0-.64-.14-1.16-.42-1.56-.267-.4-.8-.6-1.6-.6-.654 0-1.227.12-1.72.36l-.34 1.54-1.16-.14.32-2.06zm4.92 4.88v-.68c-.254-.014-.52-.034-.8-.06a8.964 8.964 0 0 0-.86-.04 4.95 4.95 0 0 0-1.82.32c-.534.2-.8.646-.8 1.34 0 .573.18.966.54 1.18.36.213.733.32 1.12.32.613 0 1.186-.214 1.72-.64.546-.427.846-1.007.9-1.74zm8.048 3.34h-4.52v-1.14h1.56v-11.48h-1.58v-1.14h2.98v12.62h1.56v1.14zm10.572 0h-4.2v-1.14h1.34l-2.44-3.02h-1.58v3.02h1.28v1.14h-4.24v-1.14h1.54v-11.48h-1.58v-1.14h3v8.52h1.6l2.04-2.52h-1.38v-1.14h4.16v1.14h-1.36l-2.38 2.94 2.94 3.68h1.26v1.14zM414.447 114.672c-.156.988-.65 1.837-1.482 2.548-.832.693-1.959 1.04-3.38 1.04-1.63 0-2.947-.511-3.952-1.534-1.006-1.023-1.508-2.47-1.508-4.342 0-1.803.476-3.285 1.43-4.446.953-1.161 2.244-1.742 3.874-1.742 1.594 0 2.808.503 3.64 1.508.832 1.005 1.256 2.193 1.274 3.562 0 .451-.052.91-.156 1.378h-8.138c.104 2.704 1.326 4.056 3.666 4.056.918 0 1.638-.217 2.158-.65.52-.433.866-1.005 1.04-1.716l1.534.338zm-2.028-3.38c.086-.867-.122-1.681-.624-2.444-.486-.763-1.292-1.144-2.418-1.144-1.075 0-1.864.355-2.366 1.066-.503.711-.815 1.551-.936 2.522h6.344zM428.044 118h-5.096v-1.482h1.508l-2.704-3.328-2.73 3.328h1.378V118h-4.81v-1.482h1.586l3.64-4.29-3.666-4.316h-1.56v-1.482h5.278v1.482h-1.56l2.6 3.276 2.678-3.276h-1.378v-1.482h4.628v1.482h-1.352l-3.614 4.212 3.718 4.394h1.456V118zm11.286-3.328c-.156.988-.65 1.837-1.482 2.548-.832.693-1.959 1.04-3.38 1.04-1.63 0-2.947-.511-3.952-1.534-1.006-1.023-1.508-2.47-1.508-4.342 0-1.803.476-3.285 1.43-4.446.953-1.161 2.244-1.742 3.874-1.742 1.594 0 2.808.503 3.64 1.508.832 1.005 1.256 2.193 1.274 3.562 0 .451-.052.91-.156 1.378h-8.138c.104 2.704 1.326 4.056 3.666 4.056.918 0 1.638-.217 2.158-.65.52-.433.866-1.005 1.04-1.716l1.534.338zm-2.028-3.38c.086-.867-.122-1.681-.624-2.444-.486-.763-1.292-1.144-2.418-1.144-1.075 0-1.864.355-2.366 1.066-.503.711-.815 1.551-.936 2.522h6.344zm14.058 2.808c-.156 1.005-.615 1.95-1.378 2.834-.745.884-1.915 1.326-3.51 1.326-1.594 0-2.868-.511-3.822-1.534-.953-1.04-1.43-2.487-1.43-4.342 0-1.595.451-3.025 1.352-4.29.902-1.265 2.254-1.898 4.056-1.898.763 0 1.465.087 2.106.26a5.298 5.298 0 0 1 1.846.936l.442 2.782-1.508.182-.442-1.95c-.693-.433-1.516-.65-2.47-.65-1.23 0-2.114.442-2.652 1.326-.537.884-.806 1.95-.806 3.198 0 1.387.304 2.47.91 3.25.607.78 1.482 1.17 2.626 1.17 1.734 0 2.774-.979 3.12-2.938l1.56.338zm15.078 3.9h-3.9v-2.184a4.39 4.39 0 0 1-1.612 1.768c-.693.451-1.499.676-2.418.676-1.126 0-2.08-.347-2.86-1.04-.762-.711-1.144-1.837-1.144-3.38v-5.928h-2.028v-1.482h3.848v6.89c0 1.248.26 2.123.78 2.626.52.503 1.188.754 2.002.754.988 0 1.794-.373 2.418-1.118.642-.745.98-1.534 1.014-2.366v-5.304h-2.418v-1.482h4.238v10.088h2.08V118zm9.894-3.12c-.312 2.253-1.534 3.38-3.666 3.38-1.161 0-2.054-.329-2.678-.988-.606-.659-.91-1.551-.91-2.678v-6.708h-1.872v-1.456h1.872v-3.718h1.82v3.718h4.524v1.456h-4.524v6.474c0 .693.148 1.257.442 1.69.312.416.815.624 1.508.624.451 0 .867-.139 1.248-.416.399-.277.685-.884.858-1.82l1.378.442zm11.443-.208c-.156.988-.65 1.837-1.482 2.548-.832.693-1.959 1.04-3.38 1.04-1.629 0-2.947-.511-3.952-1.534-1.005-1.023-1.508-2.47-1.508-4.342 0-1.803.477-3.285 1.43-4.446.953-1.161 2.245-1.742 3.874-1.742 1.595 0 2.808.503 3.64 1.508.832 1.005 1.257 2.193 1.274 3.562 0 .451-.052.91-.156 1.378h-8.138c.104 2.704 1.326 4.056 3.666 4.056.919 0 1.638-.217 2.158-.65.52-.433.867-1.005 1.04-1.716l1.534.338zm-2.028-3.38c.087-.867-.121-1.681-.624-2.444-.485-.763-1.291-1.144-2.418-1.144-1.075 0-1.863.355-2.366 1.066-.503.711-.815 1.551-.936 2.522h6.344zm8.131-11.96h1.742c-2.878 3.657-4.316 7.54-4.316 11.648 0 2.011.355 4.03 1.066 6.058.728 2.028 1.811 3.935 3.25 5.72h-1.794c-1.439-1.907-2.488-3.848-3.146-5.824-.659-1.993-.988-3.978-.988-5.954 0-2.011.338-3.995 1.014-5.954.693-1.959 1.75-3.857 3.172-5.694zm9.749 23.426h-1.742c2.877-3.657 4.316-7.54 4.316-11.648 0-2.011-.364-4.021-1.092-6.032-.711-2.028-1.785-3.943-3.224-5.746h1.794c1.439 1.907 2.487 3.857 3.146 5.85.659 1.976.988 3.952.988 5.928 0 1.993-.347 3.969-1.04 5.928-.676 1.959-1.725 3.865-3.146 5.72z" fill="#000"/><rect x="23" y="124" width="150" height="339" rx="15" fill="#FFF7CE"/><rect x="741" y="124" width="150" height="339" rx="15" fill="#FFF7CE"/><path d="M767.562 345.277h112.161v1.2h-112.16z" fill="#c10d0d" style="stroke-width:1.03744"/><path d="M766.707 150.707a.999.999 0 0 0 0-1.414l-6.364-6.364a.999.999 0 1 0-1.414 1.414l5.657 5.657-5.657 5.657a.999.999 0 1 0 1.414 1.414l6.364-6.364zM155 151h611v-2H155v2zM766.707 216.707a.999.999 0 0 0 0-1.414l-6.364-6.364a.999.999 0 1 0-1.414 1.414l5.657 5.657-5.657 5.657a.999.999 0 1 0 1.414 1.414l6.364-6.364zM155 217h611v-2H155v2zM766.707 281.707a.999.999 0 0 0 0-1.414l-6.364-6.364a.999.999 0 1 0-1.414 1.414l5.657 5.657-5.657 5.657a.999.999 0 1 0 1.414 1.414l6.364-6.364zM155 282h611v-2H155v2zM766.707 347.707a.999.999 0 0 0 0-1.414l-6.364-6.364a.999.999 0 1 0-1.414 1.414l5.657 5.657-5.657 5.657a.999.999 0 1 0 1.414 1.414l6.364-6.364zM155 348h611v-2H155v2zM766.707 415.707a.999.999 0 0 0 0-1.414l-6.364-6.364a.999.999 0 1 0-1.414 1.414l5.657 5.657-5.657 5.657a.999.999 0 1 0 1.414 1.414l6.364-6.364zM155 416h611v-2H155v2z" fill="#000"/><path stroke="#000" d="M226.5 150v350M246.5 281v219M237.5 216.002l-1 284M549.5 150v350M569.5 281v219M560.5 216.002l-1 284M460.5 347v153M579.5 347v153"/><circle cx="460" cy="347" r="5" fill="#7DE96B" stroke="#A3F096" stroke-width="2"/><circle cx="226" cy="150" r="5" fill="#FF9494" stroke="#FF9494" stroke-width="2"/><circle cx="247" cy="281" r="5" fill="#FF9494" stroke="#FF9494" stroke-width="2"/><circle cx="237" cy="216" r="5" fill="#FF9494" stroke="#FF9494" stroke-width="2"/><path stroke="#000" d="M328.5 150v350M349.5 281v219M339.5 216.002l-1 284M359.5 417v83M589.5 415v85"/><circle cx="349" cy="281" r="4.5" fill="#FFD18C" stroke="#FFD18C"/><circle cx="359" cy="415" r="4.5" fill="#FFD18C" stroke="#FFD18C"/><circle cx="339" cy="216" r="4.5" fill="#FFD18C" stroke="#FFD18C"/><circle cx="328" cy="150" r="4.5" fill="#FFD18C" stroke="#FFD18C"/><circle cx="549" cy="150" r="5" fill="#96E4EF" stroke="#96E4EF" stroke-width="2"/><circle cx="560" cy="216" r="5" fill="#96E4EF" stroke="#96E4EF" stroke-width="2"/><circle cx="569" cy="281" r="5" fill="#96E4EF" stroke="#96E4EF" stroke-width="2"/><circle cx="579" cy="347" r="5" fill="#96E4EF" stroke="#96E4EF" stroke-width="2"/><circle cx="589" cy="415" r="5" fill="#96E4EF" stroke="#96E4EF" stroke-width="2"/><path stroke="#000" d="M663.5 150v350M683.5 281v219M674.5 216.002l-1 284M693.5 347v153M703.5 415v85"/><circle cx="674" cy="216" r="5" fill="#C5BCFF" stroke="#C5BCFF" stroke-width="2"/><circle cx="683" cy="281" r="5" fill="#C5BCFF" stroke="#C5BCFF" stroke-width="2"/><circle cx="693" cy="347" r="5" fill="#C5BCFF" stroke="#C5BCFF" stroke-width="2"/><circle cx="703" cy="415" r="5" fill="#C5BCFF" stroke="#C5BCFF" stroke-width="2"/><circle cx="663" cy="150" r="5" fill="#C5BCFF" stroke="#C5BCFF" stroke-width="2"/><text xml:space="preserve" style="font-size:29.3333px;line-height:1;text-align:start;writing-mode:lr-tb;direction:ltr;text-anchor:start;fill:#000" x="104.375" y="42.635"><tspan x="104.375" y="42.635" style="font-style:normal;font-variant:normal;font-weight:400;font-stretch:normal;font-size:29.3333px;line-height:1;font-family:'Times New Roman';-inkscape-font-specification:'Times New Roman, ';text-align:center;text-anchor:middle">мир</tspan><tspan x="104.375" y="72.693" style="font-style:normal;font-variant:normal;font-weight:400;font-stretch:normal;font-size:29.3333px;line-height:1;font-family:'Times New Roman';-inkscape-font-specification:'Times New Roman, ';text-align:center;text-anchor:middle">(кадр N)</tspan></text><text xml:space="preserve" style="font-size:21.3333px;line-height:1;text-align:start;writing-mode:lr-tb;direction:ltr;text-anchor:start;fill:#000" x="100.193" y="118.718"><tspan x="100.193" y="118.718" style="font-style:normal;font-variant:normal;font-weight:400;font-stretch:normal;font-size:21.3333px;line-height:1;font-family:'Times New Roman';-inkscape-font-specification:'Times New Roman, ';text-align:center;text-anchor:middle">сущности</tspan></text><text xml:space="preserve" style="font-size:26.6667px;line-height:1;text-align:start;writing-mode:lr-tb;direction:ltr;text-anchor:start;fill:#000" x="99.859" y="157.567"><tspan x="99.859" y="157.567" style="font-style:normal;font-variant:normal;font-weight:400;font-stretch:normal;font-size:26.6667px;line-height:1;font-family:'Times New Roman';-inkscape-font-specification:'Times New Roman, ';text-align:center;text-anchor:middle">волк_1</tspan></text><text xml:space="preserve" style="font-size:26.6667px;line-height:1;text-align:start;writing-mode:lr-tb;direction:ltr;text-anchor:start;fill:#000" x="99.192" y="221.167"><tspan x="99.192" y="221.167" style="font-style:normal;font-variant:normal;font-weight:400;font-stretch:normal;font-size:26.6667px;line-height:1;font-family:'Times New Roman';-inkscape-font-specification:'Times New Roman, ';text-align:center;text-anchor:middle">волк_2</tspan></text><text xml:space="preserve" style="font-size:26.6667px;line-height:1;text-align:start;writing-mode:lr-tb;direction:ltr;text-anchor:start;fill:#000" x="99.637" y="286.167"><tspan x="99.637" y="286.167" style="font-style:normal;font-variant:normal;font-weight:400;font-stretch:normal;font-size:26.6667px;line-height:1;font-family:'Times New Roman';-inkscape-font-specification:'Times New Roman, ';text-align:center;text-anchor:middle">волк_3</tspan></text><text xml:space="preserve" style="font-size:26.6667px;line-height:1;text-align:start;writing-mode:lr-tb;direction:ltr;text-anchor:start;fill:#000" x="101.586" y="418.43"><tspan x="101.586" y="418.43" style="font-style:normal;font-variant:normal;font-weight:400;font-stretch:normal;font-size:26.6667px;line-height:1;font-family:'Times New Roman';-inkscape-font-specification:'Times New Roman, ';text-align:center;text-anchor:middle">игрок_1</tspan></text><text xml:space="preserve" style="font-size:26.6667px;line-height:1;text-align:start;writing-mode:lr-tb;direction:ltr;text-anchor:start;fill:#000" x="103.032" y="353.225"><tspan x="103.032" y="353.225" style="font-style:normal;font-variant:normal;font-weight:400;font-stretch:normal;font-size:26.6667px;line-height:1;font-family:'Times New Roman';-inkscape-font-specification:'Times New Roman, ';text-align:center;text-anchor:middle">дракон_1</tspan></text><text xml:space="preserve" style="font-size:26.6667px;line-height:1;text-align:start;writing-mode:lr-tb;direction:ltr;text-anchor:start;fill:#000" x="820.918" y="156.057"><tspan x="820.918" y="156.057" style="font-style:normal;font-variant:normal;font-weight:400;font-stretch:normal;font-size:26.6667px;line-height:1;font-family:'Times New Roman';-inkscape-font-specification:'Times New Roman, ';text-align:center;text-anchor:middle">волк_1</tspan></text><text xml:space="preserve" style="font-size:26.6667px;line-height:1;text-align:start;writing-mode:lr-tb;direction:ltr;text-anchor:start;fill:#028043;fill-opacity:1" x="820.251" y="219.657"><tspan x="820.251" y="219.657" style="font-style:normal;font-variant:normal;font-weight:400;font-stretch:normal;font-size:26.6667px;line-height:1;font-family:'Times New Roman';-inkscape-font-specification:'Times New Roman, ';text-align:center;text-anchor:middle;fill:#028043;fill-opacity:1">волк_2*</tspan></text><text xml:space="preserve" style="font-size:26.6667px;line-height:1;text-align:start;writing-mode:lr-tb;direction:ltr;text-anchor:start;fill:#000" x="820.696" y="284.657"><tspan x="820.696" y="284.657" style="font-style:normal;font-variant:normal;font-weight:400;font-stretch:normal;font-size:26.6667px;line-height:1;font-family:'Times New Roman';-inkscape-font-specification:'Times New Roman, ';text-align:center;text-anchor:middle">волк_3*</tspan></text><text xml:space="preserve" style="font-size:26.6667px;line-height:1;text-align:start;writing-mode:lr-tb;direction:ltr;text-anchor:start;fill:#028043;fill-opacity:1" x="823.368" y="420.533"><tspan x="823.368" y="420.533" style="font-style:normal;font-variant:normal;font-weight:400;font-stretch:normal;font-size:26.6667px;line-height:1;font-family:'Times New Roman';-inkscape-font-specification:'Times New Roman, ';text-align:center;text-anchor:middle;fill:#028043;fill-opacity:1">игрок_1*</tspan></text><text xml:space="preserve" style="font-size:26.6667px;line-height:1;text-align:start;writing-mode:lr-tb;direction:ltr;text-anchor:start;fill:#c82420;fill-opacity:1" x="824.09" y="351.715"><tspan x="824.09" y="351.715" style="font-style:normal;font-variant:normal;font-weight:400;font-stretch:normal;font-size:26.6667px;line-height:1;font-family:'Times New Roman';-inkscape-font-specification:'Times New Roman, ';text-align:center;text-anchor:middle;fill:#c82420;fill-opacity:1">дракон_1-</tspan></text><text xml:space="preserve" style="font-size:21.3333px;line-height:1;text-align:start;writing-mode:lr-tb;direction:ltr;text-anchor:start;fill:#000" x="458.173" y="574.692"><tspan x="458.173" y="574.692" style="font-style:normal;font-variant:normal;font-weight:400;font-stretch:normal;font-size:21.3333px;line-height:1;font-family:'Times New Roman';-inkscape-font-specification:'Times New Roman, ';text-align:center;text-anchor:middle">системы</tspan></text><text xml:space="preserve" style="font-size:21.3333px;line-height:1;text-align:start;writing-mode:lr-tb;direction:ltr;text-anchor:start;fill:#000" x="816.874" y="117.108"><tspan x="816.874" y="117.108" style="font-style:normal;font-variant:normal;font-weight:400;font-stretch:normal;font-size:21.3333px;line-height:1;font-family:'Times New Roman';-inkscape-font-specification:'Times New Roman, ';text-align:center;text-anchor:middle">сущности</tspan></text><text xml:space="preserve" style="font-size:29.3333px;line-height:1;text-align:start;writing-mode:lr-tb;direction:ltr;text-anchor:start;fill:#000" x="818.04" y="40.178"><tspan x="818.04" y="40.178" style="font-style:normal;font-variant:normal;font-weight:400;font-stretch:normal;font-size:29.3333px;line-height:1;font-family:'Times New Roman';-inkscape-font-specification:'Times New Roman, ';text-align:center;text-anchor:middle">мир</tspan><tspan x="818.04" y="70.236" style="font-style:normal;font-variant:normal;font-weight:400;font-stretch:normal;font-size:29.3333px;line-height:1;font-family:'Times New Roman';-inkscape-font-specification:'Times New Roman, ';text-align:center;text-anchor:middle">(кадр N+1)</tspan></text></svg>